<?xml version='1.0' encoding='utf-8'?>
<mlt title="Anonymous Submission" LC_NUMERIC="fr_FR.UTF-8" producer="main bin" version="6.13.0" root="/media/bordun/plagiat/Clip03_ViktorHuguauEnFranceAfrik/Video">
 <profile frame_rate_num="60000" sample_aspect_num="1" display_aspect_den="9" colorspace="709" progressive="1" description="HD 1080p 59.94 fps" display_aspect_num="16" frame_rate_den="1001" width="1920" height="1080" sample_aspect_den="1"/>
 <producer title="Anonymous Submission" id="1" in="0" out="6509">
  <property name="length">00:01:48:36</property>
  <property name="eof">pause</property>
  <property name="resource">/media/bordun/plagiat2/2019-12-07_Plagiat_ViktorHuguauEnFranceAfrik/MVI_0002.MP4</property>
  <property name="audio_index">1</property>
  <property name="video_index">0</property>
  <property name="mute_on_pause">1</property>
  <property name="mlt_service">avformat-novalidate</property>
  <property name="meta.media.nb_streams">3</property>
  <property name="meta.media.0.stream.type">video</property>
  <property name="meta.media.0.stream.frame_rate">59,9401</property>
  <property name="meta.media.0.stream.sample_aspect_ratio">0</property>
  <property name="meta.media.0.codec.width">1920</property>
  <property name="meta.media.0.codec.height">1080</property>
  <property name="meta.media.0.codec.rotate">0</property>
  <property name="meta.media.0.codec.frame_rate">60000</property>
  <property name="meta.media.0.codec.pix_fmt">yuv420p</property>
  <property name="meta.media.0.codec.sample_aspect_ratio">0</property>
  <property name="meta.media.0.codec.colorspace">709</property>
  <property name="meta.media.0.codec.color_trc">1</property>
  <property name="meta.media.0.codec.name">h264</property>
  <property name="meta.media.0.codec.long_name">H.264 / AVC / MPEG-4 AVC / MPEG-4 part 10</property>
  <property name="meta.media.0.codec.bit_rate">34281329</property>
  <property name="meta.attr.0.stream.creation_time.markup">2019-12-07T10:36:26.000000Z</property>
  <property name="meta.attr.0.stream.language.markup">eng</property>
  <property name="meta.media.1.stream.type">audio</property>
  <property name="meta.media.1.codec.sample_fmt">fltp</property>
  <property name="meta.media.1.codec.sample_rate">48000</property>
  <property name="meta.media.1.codec.channels">2</property>
  <property name="meta.media.1.codec.name">aac</property>
  <property name="meta.media.1.codec.long_name">AAC (Advanced Audio Coding)</property>
  <property name="meta.media.1.codec.bit_rate">254948</property>
  <property name="meta.attr.1.stream.creation_time.markup">2019-12-07T10:36:26.000000Z</property>
  <property name="meta.attr.1.stream.language.markup">eng</property>
  <property name="meta.attr.major_brand.markup">mp42</property>
  <property name="meta.attr.minor_version.markup">1</property>
  <property name="meta.attr.compatible_brands.markup">mp42avc1CAEP</property>
  <property name="meta.attr.creation_time.markup">2019-12-07T10:36:26.000000Z</property>
  <property name="meta.attr.timecode.markup">00:00:00;00</property>
  <property name="seekable">1</property>
  <property name="meta.media.sample_aspect_num">1</property>
  <property name="meta.media.sample_aspect_den">1</property>
  <property name="aspect_ratio">1</property>
  <property name="kdenlive:file_size">469214272</property>
  <property name="kdenlive:file_hash">1d972e8a8b1a30aaf19da709bb57d08e</property>
  <property name="global_feed">1</property>
  <property name="meta.media.frame_rate_num">60000</property>
  <property name="meta.media.frame_rate_den">1001</property>
  <property name="meta.media.colorspace">709</property>
  <property name="meta.media.color_trc">1</property>
  <property name="meta.media.width">1920</property>
  <property name="meta.media.height">1080</property>
  <property name="meta.media.top_field_first">0</property>
  <property name="meta.media.progressive">1</property>
  <property name="kdenlive:folderid">3</property>
 </producer>
 <producer title="Anonymous Submission" id="10" in="0" out="31649">
  <property name="length">00:08:48:01</property>
  <property name="eof">pause</property>
  <property name="resource">/media/bordun/plagiat2/2019-12-07_Plagiat_ViktorHuguauEnFranceAfrik/MVI_0011.MP4</property>
  <property name="audio_index">1</property>
  <property name="video_index">0</property>
  <property name="mute_on_pause">1</property>
  <property name="mlt_service">avformat-novalidate</property>
  <property name="meta.media.nb_streams">3</property>
  <property name="meta.media.0.stream.type">video</property>
  <property name="meta.media.0.stream.frame_rate">59,9401</property>
  <property name="meta.media.0.stream.sample_aspect_ratio">0</property>
  <property name="meta.media.0.codec.width">1920</property>
  <property name="meta.media.0.codec.height">1080</property>
  <property name="meta.media.0.codec.rotate">0</property>
  <property name="meta.media.0.codec.frame_rate">60000</property>
  <property name="meta.media.0.codec.pix_fmt">yuv420p</property>
  <property name="meta.media.0.codec.sample_aspect_ratio">0</property>
  <property name="meta.media.0.codec.colorspace">709</property>
  <property name="meta.media.0.codec.color_trc">1</property>
  <property name="meta.media.0.codec.name">h264</property>
  <property name="meta.media.0.codec.long_name">H.264 / AVC / MPEG-4 AVC / MPEG-4 part 10</property>
  <property name="meta.media.0.codec.bit_rate">34543878</property>
  <property name="meta.attr.0.stream.creation_time.markup">2019-12-07T16:10:30.000000Z</property>
  <property name="meta.attr.0.stream.language.markup">eng</property>
  <property name="meta.media.1.stream.type">audio</property>
  <property name="meta.media.1.codec.sample_fmt">fltp</property>
  <property name="meta.media.1.codec.sample_rate">48000</property>
  <property name="meta.media.1.codec.channels">2</property>
  <property name="meta.media.1.codec.name">aac</property>
  <property name="meta.media.1.codec.long_name">AAC (Advanced Audio Coding)</property>
  <property name="meta.media.1.codec.bit_rate">254871</property>
  <property name="meta.attr.1.stream.creation_time.markup">2019-12-07T16:10:30.000000Z</property>
  <property name="meta.attr.1.stream.language.markup">eng</property>
  <property name="meta.attr.major_brand.markup">mp42</property>
  <property name="meta.attr.minor_version.markup">1</property>
  <property name="meta.attr.compatible_brands.markup">mp42avc1CAEP</property>
  <property name="meta.attr.creation_time.markup">2019-12-07T16:10:30.000000Z</property>
  <property name="meta.attr.timecode.markup">16:09:29;38</property>
  <property name="seekable">1</property>
  <property name="meta.media.sample_aspect_num">1</property>
  <property name="meta.media.sample_aspect_den">1</property>
  <property name="aspect_ratio">1</property>
  <property name="kdenlive:file_size">2297907807</property>
  <property name="kdenlive:file_hash">9e6cb727583e14be47b42509c32c0c06</property>
  <property name="global_feed">1</property>
  <property name="meta.media.frame_rate_num">60000</property>
  <property name="meta.media.frame_rate_den">1001</property>
  <property name="meta.media.colorspace">709</property>
  <property name="meta.media.color_trc">1</property>
  <property name="meta.media.width">1920</property>
  <property name="meta.media.height">1080</property>
  <property name="meta.media.top_field_first">0</property>
  <property name="meta.media.progressive">1</property>
  <property name="kdenlive:clipname">MISSY 2</property>
  <property name="kdenlive:folderid">4</property>
 </producer>
 <producer title="Anonymous Submission" id="11" in="0" out="1649">
  <property name="length">00:00:27:31</property>
  <property name="eof">pause</property>
  <property name="resource">/media/bordun/plagiat2/2019-12-07_Plagiat_ViktorHuguauEnFranceAfrik/MVI_0012.MP4</property>
  <property name="audio_index">1</property>
  <property name="video_index">0</property>
  <property name="mute_on_pause">1</property>
  <property name="mlt_service">avformat-novalidate</property>
  <property name="meta.media.nb_streams">3</property>
  <property name="meta.media.0.stream.type">video</property>
  <property name="meta.media.0.stream.frame_rate">59,9401</property>
  <property name="meta.media.0.stream.sample_aspect_ratio">0</property>
  <property name="meta.media.0.codec.width">1920</property>
  <property name="meta.media.0.codec.height">1080</property>
  <property name="meta.media.0.codec.rotate">0</property>
  <property name="meta.media.0.codec.frame_rate">60000</property>
  <property name="meta.media.0.codec.pix_fmt">yuv420p</property>
  <property name="meta.media.0.codec.sample_aspect_ratio">0</property>
  <property name="meta.media.0.codec.colorspace">709</property>
  <property name="meta.media.0.codec.color_trc">1</property>
  <property name="meta.media.0.codec.name">h264</property>
  <property name="meta.media.0.codec.long_name">H.264 / AVC / MPEG-4 AVC / MPEG-4 part 10</property>
  <property name="meta.media.0.codec.bit_rate">34300395</property>
  <property name="meta.attr.0.stream.creation_time.markup">2019-12-07T16:49:30.000000Z</property>
  <property name="meta.attr.0.stream.language.markup">eng</property>
  <property name="meta.media.1.stream.type">audio</property>
  <property name="meta.media.1.codec.sample_fmt">fltp</property>
  <property name="meta.media.1.codec.sample_rate">48000</property>
  <property name="meta.media.1.codec.channels">2</property>
  <property name="meta.media.1.codec.name">aac</property>
  <property name="meta.media.1.codec.long_name">AAC (Advanced Audio Coding)</property>
  <property name="meta.media.1.codec.bit_rate">254870</property>
  <property name="meta.attr.1.stream.creation_time.markup">2019-12-07T16:49:30.000000Z</property>
  <property name="meta.attr.1.stream.language.markup">eng</property>
  <property name="meta.attr.major_brand.markup">mp42</property>
  <property name="meta.attr.minor_version.markup">1</property>
  <property name="meta.attr.compatible_brands.markup">mp42avc1CAEP</property>
  <property name="meta.attr.creation_time.markup">2019-12-07T16:49:30.000000Z</property>
  <property name="meta.attr.timecode.markup">16:48:29;24</property>
  <property name="seekable">1</property>
  <property name="meta.media.sample_aspect_num">1</property>
  <property name="meta.media.sample_aspect_den">1</property>
  <property name="aspect_ratio">1</property>
  <property name="kdenlive:file_size">119186092</property>
  <property name="kdenlive:file_hash">7589488cf8bf60e78d189ae4fc0de213</property>
  <property name="global_feed">1</property>
  <property name="meta.media.frame_rate_num">60000</property>
  <property name="meta.media.frame_rate_den">1001</property>
  <property name="meta.media.colorspace">709</property>
  <property name="meta.media.color_trc">1</property>
  <property name="meta.media.width">1920</property>
  <property name="meta.media.height">1080</property>
  <property name="meta.media.top_field_first">0</property>
  <property name="meta.media.progressive">1</property>
  <property name="kdenlive:folderid">1</property>
  <property name="kdenlive:zone_in">1034</property>
  <property name="kdenlive:zone_out">1650</property>
  <filter id="frei0r.levels">
   <property name="version">0,3</property>
   <property name="mlt_service">frei0r.levels</property>
   <property name="kdenlive_id">frei0r.levels</property>
   <property name="tag">frei0r.levels</property>
   <property name="kdenlive_ix">1</property>
   <property name="kdenlive_info"/>
   <property name="Channel">0,3</property>
   <property name="Input black level">0=0,043</property>
   <property name="Input white level">0=0,615</property>
   <property name="Gamma">0=0,25</property>
   <property name="Black output">0=0</property>
   <property name="White output">0=1</property>
   <property name="Show histogram">0</property>
   <property name="Histogram position">0,3</property>
  </filter>
 </producer>
 <producer title="Anonymous Submission" id="12" in="0" out="2999">
  <property name="length">00:00:50:02</property>
  <property name="eof">pause</property>
  <property name="resource">/media/bordun/plagiat2/2019-12-07_Plagiat_ViktorHuguauEnFranceAfrik/MVI_0013.MP4</property>
  <property name="audio_index">1</property>
  <property name="video_index">0</property>
  <property name="mute_on_pause">1</property>
  <property name="mlt_service">avformat-novalidate</property>
  <property name="meta.media.nb_streams">3</property>
  <property name="meta.media.0.stream.type">video</property>
  <property name="meta.media.0.stream.frame_rate">59,9401</property>
  <property name="meta.media.0.stream.sample_aspect_ratio">0</property>
  <property name="meta.media.0.codec.width">1920</property>
  <property name="meta.media.0.codec.height">1080</property>
  <property name="meta.media.0.codec.rotate">0</property>
  <property name="meta.media.0.codec.frame_rate">60000</property>
  <property name="meta.media.0.codec.pix_fmt">yuv420p</property>
  <property name="meta.media.0.codec.sample_aspect_ratio">0</property>
  <property name="meta.media.0.codec.colorspace">709</property>
  <property name="meta.media.0.codec.color_trc">1</property>
  <property name="meta.media.0.codec.name">h264</property>
  <property name="meta.media.0.codec.long_name">H.264 / AVC / MPEG-4 AVC / MPEG-4 part 10</property>
  <property name="meta.media.0.codec.bit_rate">34527137</property>
  <property name="meta.attr.0.stream.creation_time.markup">2019-12-07T16:50:03.000000Z</property>
  <property name="meta.attr.0.stream.language.markup">eng</property>
  <property name="meta.media.1.stream.type">audio</property>
  <property name="meta.media.1.codec.sample_fmt">fltp</property>
  <property name="meta.media.1.codec.sample_rate">48000</property>
  <property name="meta.media.1.codec.channels">2</property>
  <property name="meta.media.1.codec.name">aac</property>
  <property name="meta.media.1.codec.long_name">AAC (Advanced Audio Coding)</property>
  <property name="meta.media.1.codec.bit_rate">254980</property>
  <property name="meta.attr.1.stream.creation_time.markup">2019-12-07T16:50:03.000000Z</property>
  <property name="meta.attr.1.stream.language.markup">eng</property>
  <property name="meta.attr.major_brand.markup">mp42</property>
  <property name="meta.attr.minor_version.markup">1</property>
  <property name="meta.attr.compatible_brands.markup">mp42avc1CAEP</property>
  <property name="meta.attr.creation_time.markup">2019-12-07T16:50:03.000000Z</property>
  <property name="meta.attr.timecode.markup">16:49:02;20</property>
  <property name="seekable">1</property>
  <property name="meta.media.sample_aspect_num">1</property>
  <property name="meta.media.sample_aspect_den">1</property>
  <property name="aspect_ratio">1</property>
  <property name="kdenlive:file_size">217907111</property>
  <property name="kdenlive:file_hash">904e84230dffc756c3cc098f344878ac</property>
  <property name="global_feed">1</property>
  <property name="meta.media.frame_rate_num">60000</property>
  <property name="meta.media.frame_rate_den">1001</property>
  <property name="meta.media.colorspace">709</property>
  <property name="meta.media.color_trc">1</property>
  <property name="meta.media.width">1920</property>
  <property name="meta.media.height">1080</property>
  <property name="meta.media.top_field_first">0</property>
  <property name="meta.media.progressive">1</property>
  <property name="kdenlive:folderid">1</property>
 </producer>
 <producer title="Anonymous Submission" id="13" in="0" out="2579">
  <property name="length">00:00:43:02</property>
  <property name="eof">pause</property>
  <property name="resource">/media/bordun/plagiat2/2019-12-07_Plagiat_ViktorHuguauEnFranceAfrik/MVI_0014.MP4</property>
  <property name="audio_index">1</property>
  <property name="video_index">0</property>
  <property name="mute_on_pause">1</property>
  <property name="mlt_service">avformat-novalidate</property>
  <property name="meta.media.nb_streams">3</property>
  <property name="meta.media.0.stream.type">video</property>
  <property name="meta.media.0.stream.frame_rate">59,9401</property>
  <property name="meta.media.0.stream.sample_aspect_ratio">0</property>
  <property name="meta.media.0.codec.width">1920</property>
  <property name="meta.media.0.codec.height">1080</property>
  <property name="meta.media.0.codec.rotate">0</property>
  <property name="meta.media.0.codec.frame_rate">60000</property>
  <property name="meta.media.0.codec.pix_fmt">yuv420p</property>
  <property name="meta.media.0.codec.sample_aspect_ratio">0</property>
  <property name="meta.media.0.codec.colorspace">709</property>
  <property name="meta.media.0.codec.color_trc">1</property>
  <property name="meta.media.0.codec.name">h264</property>
  <property name="meta.media.0.codec.long_name">H.264 / AVC / MPEG-4 AVC / MPEG-4 part 10</property>
  <property name="meta.media.0.codec.bit_rate">34443348</property>
  <property name="meta.attr.0.stream.creation_time.markup">2019-12-07T16:51:14.000000Z</property>
  <property name="meta.attr.0.stream.language.markup">eng</property>
  <property name="meta.media.1.stream.type">audio</property>
  <property name="meta.media.1.codec.sample_fmt">fltp</property>
  <property name="meta.media.1.codec.sample_rate">48000</property>
  <property name="meta.media.1.codec.channels">2</property>
  <property name="meta.media.1.codec.name">aac</property>
  <property name="meta.media.1.codec.long_name">AAC (Advanced Audio Coding)</property>
  <property name="meta.media.1.codec.bit_rate">254941</property>
  <property name="meta.attr.1.stream.creation_time.markup">2019-12-07T16:51:14.000000Z</property>
  <property name="meta.attr.1.stream.language.markup">eng</property>
  <property name="meta.attr.major_brand.markup">mp42</property>
  <property name="meta.attr.minor_version.markup">1</property>
  <property name="meta.attr.compatible_brands.markup">mp42avc1CAEP</property>
  <property name="meta.attr.creation_time.markup">2019-12-07T16:51:14.000000Z</property>
  <property name="meta.attr.timecode.markup">16:50:13;18</property>
  <property name="seekable">1</property>
  <property name="meta.media.sample_aspect_num">1</property>
  <property name="meta.media.sample_aspect_den">1</property>
  <property name="aspect_ratio">1</property>
  <property name="kdenlive:file_size">186985409</property>
  <property name="kdenlive:file_hash">e8fd5b062e641bd9e15ee68fb38025b3</property>
  <property name="global_feed">1</property>
  <property name="meta.media.frame_rate_num">60000</property>
  <property name="meta.media.frame_rate_den">1001</property>
  <property name="meta.media.colorspace">709</property>
  <property name="meta.media.color_trc">1</property>
  <property name="meta.media.width">1920</property>
  <property name="meta.media.height">1080</property>
  <property name="meta.media.top_field_first">0</property>
  <property name="meta.media.progressive">1</property>
  <property name="kdenlive:folderid">1</property>
 </producer>
 <producer title="Anonymous Submission" id="14" in="0" out="2219">
  <property name="length">00:00:37:02</property>
  <property name="eof">pause</property>
  <property name="resource">/media/bordun/plagiat2/2019-12-07_Plagiat_ViktorHuguauEnFranceAfrik/MVI_0015.MP4</property>
  <property name="audio_index">1</property>
  <property name="video_index">0</property>
  <property name="mute_on_pause">1</property>
  <property name="mlt_service">avformat-novalidate</property>
  <property name="meta.media.nb_streams">3</property>
  <property name="meta.media.0.stream.type">video</property>
  <property name="meta.media.0.stream.frame_rate">59,9401</property>
  <property name="meta.media.0.stream.sample_aspect_ratio">0</property>
  <property name="meta.media.0.codec.width">1920</property>
  <property name="meta.media.0.codec.height">1080</property>
  <property name="meta.media.0.codec.rotate">0</property>
  <property name="meta.media.0.codec.frame_rate">60000</property>
  <property name="meta.media.0.codec.pix_fmt">yuv420p</property>
  <property name="meta.media.0.codec.sample_aspect_ratio">0</property>
  <property name="meta.media.0.codec.colorspace">709</property>
  <property name="meta.media.0.codec.color_trc">1</property>
  <property name="meta.media.0.codec.name">h264</property>
  <property name="meta.media.0.codec.long_name">H.264 / AVC / MPEG-4 AVC / MPEG-4 part 10</property>
  <property name="meta.media.0.codec.bit_rate">34415712</property>
  <property name="meta.attr.0.stream.creation_time.markup">2019-12-07T16:52:13.000000Z</property>
  <property name="meta.attr.0.stream.language.markup">eng</property>
  <property name="meta.media.1.stream.type">audio</property>
  <property name="meta.media.1.codec.sample_fmt">fltp</property>
  <property name="meta.media.1.codec.sample_rate">48000</property>
  <property name="meta.media.1.codec.channels">2</property>
  <property name="meta.media.1.codec.name">aac</property>
  <property name="meta.media.1.codec.long_name">AAC (Advanced Audio Coding)</property>
  <property name="meta.media.1.codec.bit_rate">254869</property>
  <property name="meta.attr.1.stream.creation_time.markup">2019-12-07T16:52:13.000000Z</property>
  <property name="meta.attr.1.stream.language.markup">eng</property>
  <property name="meta.attr.major_brand.markup">mp42</property>
  <property name="meta.attr.minor_version.markup">1</property>
  <property name="meta.attr.compatible_brands.markup">mp42avc1CAEP</property>
  <property name="meta.attr.creation_time.markup">2019-12-07T16:52:13.000000Z</property>
  <property name="meta.attr.timecode.markup">16:51:12;18</property>
  <property name="seekable">1</property>
  <property name="meta.media.sample_aspect_num">1</property>
  <property name="meta.media.sample_aspect_den">1</property>
  <property name="aspect_ratio">1</property>
  <property name="kdenlive:file_size">160803019</property>
  <property name="kdenlive:file_hash">bd41129f3c9490020c0ea8397eed6a82</property>
  <property name="global_feed">1</property>
  <property name="meta.media.frame_rate_num">60000</property>
  <property name="meta.media.frame_rate_den">1001</property>
  <property name="meta.media.colorspace">709</property>
  <property name="meta.media.color_trc">1</property>
  <property name="meta.media.width">1920</property>
  <property name="meta.media.height">1080</property>
  <property name="meta.media.top_field_first">0</property>
  <property name="meta.media.progressive">1</property>
  <property name="kdenlive:folderid">1</property>
 </producer>
 <producer title="Anonymous Submission" id="15" in="0" out="2879">
  <property name="length">00:00:48:02</property>
  <property name="eof">pause</property>
  <property name="resource">/media/bordun/plagiat2/2019-12-07_Plagiat_ViktorHuguauEnFranceAfrik/MVI_0016.MP4</property>
  <property name="audio_index">1</property>
  <property name="video_index">0</property>
  <property name="mute_on_pause">1</property>
  <property name="mlt_service">avformat-novalidate</property>
  <property name="meta.media.nb_streams">3</property>
  <property name="meta.media.0.stream.type">video</property>
  <property name="meta.media.0.stream.frame_rate">59,9401</property>
  <property name="meta.media.0.stream.sample_aspect_ratio">0</property>
  <property name="meta.media.0.codec.width">1920</property>
  <property name="meta.media.0.codec.height">1080</property>
  <property name="meta.media.0.codec.rotate">0</property>
  <property name="meta.media.0.codec.frame_rate">60000</property>
  <property name="meta.media.0.codec.pix_fmt">yuv420p</property>
  <property name="meta.media.0.codec.sample_aspect_ratio">0</property>
  <property name="meta.media.0.codec.colorspace">709</property>
  <property name="meta.media.0.codec.color_trc">1</property>
  <property name="meta.media.0.codec.name">h264</property>
  <property name="meta.media.0.codec.long_name">H.264 / AVC / MPEG-4 AVC / MPEG-4 part 10</property>
  <property name="meta.media.0.codec.bit_rate">34600182</property>
  <property name="meta.attr.0.stream.creation_time.markup">2019-12-07T16:52:55.000000Z</property>
  <property name="meta.attr.0.stream.language.markup">eng</property>
  <property name="meta.media.1.stream.type">audio</property>
  <property name="meta.media.1.codec.sample_fmt">fltp</property>
  <property name="meta.media.1.codec.sample_rate">48000</property>
  <property name="meta.media.1.codec.channels">2</property>
  <property name="meta.media.1.codec.name">aac</property>
  <property name="meta.media.1.codec.long_name">AAC (Advanced Audio Coding)</property>
  <property name="meta.media.1.codec.bit_rate">254886</property>
  <property name="meta.attr.1.stream.creation_time.markup">2019-12-07T16:52:55.000000Z</property>
  <property name="meta.attr.1.stream.language.markup">eng</property>
  <property name="meta.attr.major_brand.markup">mp42</property>
  <property name="meta.attr.minor_version.markup">1</property>
  <property name="meta.attr.compatible_brands.markup">mp42avc1CAEP</property>
  <property name="meta.attr.creation_time.markup">2019-12-07T16:52:55.000000Z</property>
  <property name="meta.attr.timecode.markup">16:51:54;26</property>
  <property name="seekable">1</property>
  <property name="meta.media.sample_aspect_num">1</property>
  <property name="meta.media.sample_aspect_den">1</property>
  <property name="aspect_ratio">1</property>
  <property name="kdenlive:file_size">209639345</property>
  <property name="kdenlive:file_hash">2f507f70dce94e20a0f1852c87e4fbce</property>
  <property name="global_feed">1</property>
  <property name="meta.media.frame_rate_num">60000</property>
  <property name="meta.media.frame_rate_den">1001</property>
  <property name="meta.media.colorspace">709</property>
  <property name="meta.media.color_trc">1</property>
  <property name="meta.media.width">1920</property>
  <property name="meta.media.height">1080</property>
  <property name="meta.media.top_field_first">0</property>
  <property name="meta.media.progressive">1</property>
  <property name="kdenlive:folderid">1</property>
 </producer>
 <producer title="Anonymous Submission" id="16" in="0" out="989">
  <property name="length">00:00:16:30</property>
  <property name="eof">pause</property>
  <property name="resource">/media/bordun/plagiat2/2019-12-07_Plagiat_ViktorHuguauEnFranceAfrik/MVI_0017.MP4</property>
  <property name="audio_index">1</property>
  <property name="video_index">0</property>
  <property name="mute_on_pause">1</property>
  <property name="mlt_service">avformat-novalidate</property>
  <property name="meta.media.nb_streams">3</property>
  <property name="meta.media.0.stream.type">video</property>
  <property name="meta.media.0.stream.frame_rate">59,9401</property>
  <property name="meta.media.0.stream.sample_aspect_ratio">0</property>
  <property name="meta.media.0.codec.width">1920</property>
  <property name="meta.media.0.codec.height">1080</property>
  <property name="meta.media.0.codec.rotate">0</property>
  <property name="meta.media.0.codec.frame_rate">60000</property>
  <property name="meta.media.0.codec.pix_fmt">yuv420p</property>
  <property name="meta.media.0.codec.sample_aspect_ratio">0</property>
  <property name="meta.media.0.codec.colorspace">709</property>
  <property name="meta.media.0.codec.color_trc">1</property>
  <property name="meta.media.0.codec.name">h264</property>
  <property name="meta.media.0.codec.long_name">H.264 / AVC / MPEG-4 AVC / MPEG-4 part 10</property>
  <property name="meta.media.0.codec.bit_rate">34495889</property>
  <property name="meta.attr.0.stream.creation_time.markup">2019-12-07T16:53:51.000000Z</property>
  <property name="meta.attr.0.stream.language.markup">eng</property>
  <property name="meta.media.1.stream.type">audio</property>
  <property name="meta.media.1.codec.sample_fmt">fltp</property>
  <property name="meta.media.1.codec.sample_rate">48000</property>
  <property name="meta.media.1.codec.channels">2</property>
  <property name="meta.media.1.codec.name">aac</property>
  <property name="meta.media.1.codec.long_name">AAC (Advanced Audio Coding)</property>
  <property name="meta.media.1.codec.bit_rate">254683</property>
  <property name="meta.attr.1.stream.creation_time.markup">2019-12-07T16:53:51.000000Z</property>
  <property name="meta.attr.1.stream.language.markup">eng</property>
  <property name="meta.attr.major_brand.markup">mp42</property>
  <property name="meta.attr.minor_version.markup">1</property>
  <property name="meta.attr.compatible_brands.markup">mp42avc1CAEP</property>
  <property name="meta.attr.creation_time.markup">2019-12-07T16:53:51.000000Z</property>
  <property name="meta.attr.timecode.markup">16:52:50;14</property>
  <property name="seekable">1</property>
  <property name="meta.media.sample_aspect_num">1</property>
  <property name="meta.media.sample_aspect_den">1</property>
  <property name="aspect_ratio">1</property>
  <property name="kdenlive:file_size">72019742</property>
  <property name="kdenlive:file_hash">c19a7dc308094306cb4f4590d919b69f</property>
  <property name="global_feed">1</property>
  <property name="meta.media.frame_rate_num">60000</property>
  <property name="meta.media.frame_rate_den">1001</property>
  <property name="meta.media.colorspace">709</property>
  <property name="meta.media.color_trc">1</property>
  <property name="meta.media.width">1920</property>
  <property name="meta.media.height">1080</property>
  <property name="meta.media.top_field_first">0</property>
  <property name="meta.media.progressive">1</property>
  <property name="kdenlive:folderid">1</property>
 </producer>
 <producer title="Anonymous Submission" id="17" in="0" out="4559">
  <property name="length">00:01:16:04</property>
  <property name="eof">pause</property>
  <property name="resource">/media/bordun/plagiat2/2019-12-07_Plagiat_ViktorHuguauEnFranceAfrik/MVI_0018.MP4</property>
  <property name="audio_index">1</property>
  <property name="video_index">0</property>
  <property name="mute_on_pause">1</property>
  <property name="mlt_service">avformat-novalidate</property>
  <property name="meta.media.nb_streams">3</property>
  <property name="meta.media.0.stream.type">video</property>
  <property name="meta.media.0.stream.frame_rate">59,9401</property>
  <property name="meta.media.0.stream.sample_aspect_ratio">0</property>
  <property name="meta.media.0.codec.width">1920</property>
  <property name="meta.media.0.codec.height">1080</property>
  <property name="meta.media.0.codec.rotate">0</property>
  <property name="meta.media.0.codec.frame_rate">60000</property>
  <property name="meta.media.0.codec.pix_fmt">yuv420p</property>
  <property name="meta.media.0.codec.sample_aspect_ratio">0</property>
  <property name="meta.media.0.codec.colorspace">709</property>
  <property name="meta.media.0.codec.color_trc">1</property>
  <property name="meta.media.0.codec.name">h264</property>
  <property name="meta.media.0.codec.long_name">H.264 / AVC / MPEG-4 AVC / MPEG-4 part 10</property>
  <property name="meta.media.0.codec.bit_rate">34400220</property>
  <property name="meta.attr.0.stream.creation_time.markup">2019-12-07T16:54:23.000000Z</property>
  <property name="meta.attr.0.stream.language.markup">eng</property>
  <property name="meta.media.1.stream.type">audio</property>
  <property name="meta.media.1.codec.sample_fmt">fltp</property>
  <property name="meta.media.1.codec.sample_rate">48000</property>
  <property name="meta.media.1.codec.channels">2</property>
  <property name="meta.media.1.codec.name">aac</property>
  <property name="meta.media.1.codec.long_name">AAC (Advanced Audio Coding)</property>
  <property name="meta.media.1.codec.bit_rate">254937</property>
  <property name="meta.attr.1.stream.creation_time.markup">2019-12-07T16:54:23.000000Z</property>
  <property name="meta.attr.1.stream.language.markup">eng</property>
  <property name="meta.attr.major_brand.markup">mp42</property>
  <property name="meta.attr.minor_version.markup">1</property>
  <property name="meta.attr.compatible_brands.markup">mp42avc1CAEP</property>
  <property name="meta.attr.creation_time.markup">2019-12-07T16:54:23.000000Z</property>
  <property name="meta.attr.timecode.markup">16:53:22;04</property>
  <property name="seekable">1</property>
  <property name="meta.media.sample_aspect_num">1</property>
  <property name="meta.media.sample_aspect_den">1</property>
  <property name="aspect_ratio">1</property>
  <property name="kdenlive:file_size">329875210</property>
  <property name="kdenlive:file_hash">dbcb736a6d2b7ae1de7ed7c4851c3f0b</property>
  <property name="global_feed">1</property>
  <property name="meta.media.frame_rate_num">60000</property>
  <property name="meta.media.frame_rate_den">1001</property>
  <property name="meta.media.colorspace">709</property>
  <property name="meta.media.color_trc">1</property>
  <property name="meta.media.width">1920</property>
  <property name="meta.media.height">1080</property>
  <property name="meta.media.top_field_first">0</property>
  <property name="meta.media.progressive">1</property>
  <property name="kdenlive:folderid">1</property>
 </producer>
 <producer title="Anonymous Submission" id="18" in="0" out="2609">
  <property name="length">00:00:43:32</property>
  <property name="eof">pause</property>
  <property name="resource">/media/bordun/plagiat2/2019-12-07_Plagiat_ViktorHuguauEnFranceAfrik/MVI_0019.MP4</property>
  <property name="audio_index">1</property>
  <property name="video_index">0</property>
  <property name="mute_on_pause">1</property>
  <property name="mlt_service">avformat-novalidate</property>
  <property name="meta.media.nb_streams">3</property>
  <property name="meta.media.0.stream.type">video</property>
  <property name="meta.media.0.stream.frame_rate">59,9401</property>
  <property name="meta.media.0.stream.sample_aspect_ratio">0</property>
  <property name="meta.media.0.codec.width">1920</property>
  <property name="meta.media.0.codec.height">1080</property>
  <property name="meta.media.0.codec.rotate">0</property>
  <property name="meta.media.0.codec.frame_rate">60000</property>
  <property name="meta.media.0.codec.pix_fmt">yuv420p</property>
  <property name="meta.media.0.codec.sample_aspect_ratio">0</property>
  <property name="meta.media.0.codec.colorspace">709</property>
  <property name="meta.media.0.codec.color_trc">1</property>
  <property name="meta.media.0.codec.name">h264</property>
  <property name="meta.media.0.codec.long_name">H.264 / AVC / MPEG-4 AVC / MPEG-4 part 10</property>
  <property name="meta.media.0.codec.bit_rate">34558792</property>
  <property name="meta.attr.0.stream.creation_time.markup">2019-12-07T16:55:41.000000Z</property>
  <property name="meta.attr.0.stream.language.markup">eng</property>
  <property name="meta.media.1.stream.type">audio</property>
  <property name="meta.media.1.codec.sample_fmt">fltp</property>
  <property name="meta.media.1.codec.sample_rate">48000</property>
  <property name="meta.media.1.codec.channels">2</property>
  <property name="meta.media.1.codec.name">aac</property>
  <property name="meta.media.1.codec.long_name">AAC (Advanced Audio Coding)</property>
  <property name="meta.media.1.codec.bit_rate">254908</property>
  <property name="meta.attr.1.stream.creation_time.markup">2019-12-07T16:55:41.000000Z</property>
  <property name="meta.attr.1.stream.language.markup">eng</property>
  <property name="meta.attr.major_brand.markup">mp42</property>
  <property name="meta.attr.minor_version.markup">1</property>
  <property name="meta.attr.compatible_brands.markup">mp42avc1CAEP</property>
  <property name="meta.attr.creation_time.markup">2019-12-07T16:55:41.000000Z</property>
  <property name="meta.attr.timecode.markup">16:54:40;16</property>
  <property name="seekable">1</property>
  <property name="meta.media.sample_aspect_num">1</property>
  <property name="meta.media.sample_aspect_den">1</property>
  <property name="aspect_ratio">1</property>
  <property name="kdenlive:file_size">189785150</property>
  <property name="kdenlive:file_hash">c40f60ad81317d8d9c786bd6fb1c4bb5</property>
  <property name="global_feed">1</property>
  <property name="meta.media.frame_rate_num">60000</property>
  <property name="meta.media.frame_rate_den">1001</property>
  <property name="meta.media.colorspace">709</property>
  <property name="meta.media.color_trc">1</property>
  <property name="meta.media.width">1920</property>
  <property name="meta.media.height">1080</property>
  <property name="meta.media.top_field_first">0</property>
  <property name="meta.media.progressive">1</property>
  <property name="kdenlive:folderid">1</property>
 </producer>
 <producer title="Anonymous Submission" id="19" in="0" out="1829">
  <property name="length">00:00:30:31</property>
  <property name="eof">pause</property>
  <property name="resource">/media/bordun/plagiat2/2019-12-07_Plagiat_ViktorHuguauEnFranceAfrik/MVI_0020.MP4</property>
  <property name="audio_index">1</property>
  <property name="video_index">0</property>
  <property name="mute_on_pause">1</property>
  <property name="mlt_service">avformat-novalidate</property>
  <property name="meta.media.nb_streams">3</property>
  <property name="meta.media.0.stream.type">video</property>
  <property name="meta.media.0.stream.frame_rate">59,9401</property>
  <property name="meta.media.0.stream.sample_aspect_ratio">0</property>
  <property name="meta.media.0.codec.width">1920</property>
  <property name="meta.media.0.codec.height">1080</property>
  <property name="meta.media.0.codec.rotate">0</property>
  <property name="meta.media.0.codec.frame_rate">60000</property>
  <property name="meta.media.0.codec.pix_fmt">yuv420p</property>
  <property name="meta.media.0.codec.sample_aspect_ratio">0</property>
  <property name="meta.media.0.codec.colorspace">709</property>
  <property name="meta.media.0.codec.color_trc">1</property>
  <property name="meta.media.0.codec.name">h264</property>
  <property name="meta.media.0.codec.long_name">H.264 / AVC / MPEG-4 AVC / MPEG-4 part 10</property>
  <property name="meta.media.0.codec.bit_rate">34578158</property>
  <property name="meta.attr.0.stream.creation_time.markup">2019-12-07T16:56:52.000000Z</property>
  <property name="meta.attr.0.stream.language.markup">eng</property>
  <property name="meta.media.1.stream.type">audio</property>
  <property name="meta.media.1.codec.sample_fmt">fltp</property>
  <property name="meta.media.1.codec.sample_rate">48000</property>
  <property name="meta.media.1.codec.channels">2</property>
  <property name="meta.media.1.codec.name">aac</property>
  <property name="meta.media.1.codec.long_name">AAC (Advanced Audio Coding)</property>
  <property name="meta.media.1.codec.bit_rate">254919</property>
  <property name="meta.attr.1.stream.creation_time.markup">2019-12-07T16:56:52.000000Z</property>
  <property name="meta.attr.1.stream.language.markup">eng</property>
  <property name="meta.attr.major_brand.markup">mp42</property>
  <property name="meta.attr.minor_version.markup">1</property>
  <property name="meta.attr.compatible_brands.markup">mp42avc1CAEP</property>
  <property name="meta.attr.creation_time.markup">2019-12-07T16:56:52.000000Z</property>
  <property name="meta.attr.timecode.markup">16:55:51;36</property>
  <property name="seekable">1</property>
  <property name="meta.media.sample_aspect_num">1</property>
  <property name="meta.media.sample_aspect_den">1</property>
  <property name="aspect_ratio">1</property>
  <property name="kdenlive:file_size">133220015</property>
  <property name="kdenlive:file_hash">5fd48263cde98b6751a3c3984afd3d80</property>
  <property name="global_feed">1</property>
  <property name="meta.media.frame_rate_num">60000</property>
  <property name="meta.media.frame_rate_den">1001</property>
  <property name="meta.media.colorspace">709</property>
  <property name="meta.media.color_trc">1</property>
  <property name="meta.media.width">1920</property>
  <property name="meta.media.height">1080</property>
  <property name="meta.media.top_field_first">0</property>
  <property name="meta.media.progressive">1</property>
  <property name="kdenlive:folderid">1</property>
 </producer>
 <producer title="Anonymous Submission" id="2" in="0" out="31319">
  <property name="length">00:08:42:31</property>
  <property name="eof">pause</property>
  <property name="resource">/media/bordun/plagiat2/2019-12-07_Plagiat_ViktorHuguauEnFranceAfrik/MVI_0003.MP4</property>
  <property name="audio_index">1</property>
  <property name="video_index">0</property>
  <property name="mute_on_pause">1</property>
  <property name="mlt_service">avformat-novalidate</property>
  <property name="meta.media.nb_streams">3</property>
  <property name="meta.media.0.stream.type">video</property>
  <property name="meta.media.0.stream.frame_rate">59,9401</property>
  <property name="meta.media.0.stream.sample_aspect_ratio">0</property>
  <property name="meta.media.0.codec.width">1920</property>
  <property name="meta.media.0.codec.height">1080</property>
  <property name="meta.media.0.codec.rotate">0</property>
  <property name="meta.media.0.codec.frame_rate">60000</property>
  <property name="meta.media.0.codec.pix_fmt">yuv420p</property>
  <property name="meta.media.0.codec.sample_aspect_ratio">0</property>
  <property name="meta.media.0.codec.colorspace">709</property>
  <property name="meta.media.0.codec.color_trc">1</property>
  <property name="meta.media.0.codec.name">h264</property>
  <property name="meta.media.0.codec.long_name">H.264 / AVC / MPEG-4 AVC / MPEG-4 part 10</property>
  <property name="meta.media.0.codec.bit_rate">34479282</property>
  <property name="meta.attr.0.stream.creation_time.markup">2019-12-07T12:41:51.000000Z</property>
  <property name="meta.attr.0.stream.language.markup">eng</property>
  <property name="meta.media.1.stream.type">audio</property>
  <property name="meta.media.1.codec.sample_fmt">fltp</property>
  <property name="meta.media.1.codec.sample_rate">48000</property>
  <property name="meta.media.1.codec.channels">2</property>
  <property name="meta.media.1.codec.name">aac</property>
  <property name="meta.media.1.codec.long_name">AAC (Advanced Audio Coding)</property>
  <property name="meta.media.1.codec.bit_rate">254874</property>
  <property name="meta.attr.1.stream.creation_time.markup">2019-12-07T12:41:51.000000Z</property>
  <property name="meta.attr.1.stream.language.markup">eng</property>
  <property name="meta.attr.major_brand.markup">mp42</property>
  <property name="meta.attr.minor_version.markup">1</property>
  <property name="meta.attr.compatible_brands.markup">mp42avc1CAEP</property>
  <property name="meta.attr.creation_time.markup">2019-12-07T12:41:51.000000Z</property>
  <property name="meta.attr.timecode.markup">00:01:48;34</property>
  <property name="seekable">1</property>
  <property name="meta.media.sample_aspect_num">1</property>
  <property name="meta.media.sample_aspect_den">1</property>
  <property name="aspect_ratio">1</property>
  <property name="kdenlive:file_size">2269736563</property>
  <property name="kdenlive:file_hash">4400b7a84cb5f5abdd419c8ae7e14005</property>
  <property name="global_feed">1</property>
  <property name="meta.media.frame_rate_num">60000</property>
  <property name="meta.media.frame_rate_den">1001</property>
  <property name="meta.media.colorspace">709</property>
  <property name="meta.media.color_trc">1</property>
  <property name="meta.media.width">1920</property>
  <property name="meta.media.height">1080</property>
  <property name="meta.media.top_field_first">0</property>
  <property name="meta.media.progressive">1</property>
  <property name="kdenlive:clipname">COUNTERCLOCKWISE</property>
  <property name="kdenlive:folderid">4</property>
 </producer>
 <producer title="Anonymous Submission" id="20" in="0" out="1229">
  <property name="length">00:00:20:31</property>
  <property name="eof">pause</property>
  <property name="resource">/media/bordun/plagiat2/2019-12-07_Plagiat_ViktorHuguauEnFranceAfrik/MVI_0021.MP4</property>
  <property name="audio_index">1</property>
  <property name="video_index">0</property>
  <property name="mute_on_pause">1</property>
  <property name="mlt_service">avformat-novalidate</property>
  <property name="meta.media.nb_streams">3</property>
  <property name="meta.media.0.stream.type">video</property>
  <property name="meta.media.0.stream.frame_rate">59,9401</property>
  <property name="meta.media.0.stream.sample_aspect_ratio">0</property>
  <property name="meta.media.0.codec.width">1920</property>
  <property name="meta.media.0.codec.height">1080</property>
  <property name="meta.media.0.codec.rotate">0</property>
  <property name="meta.media.0.codec.frame_rate">60000</property>
  <property name="meta.media.0.codec.pix_fmt">yuv420p</property>
  <property name="meta.media.0.codec.sample_aspect_ratio">0</property>
  <property name="meta.media.0.codec.colorspace">709</property>
  <property name="meta.media.0.codec.color_trc">1</property>
  <property name="meta.media.0.codec.name">h264</property>
  <property name="meta.media.0.codec.long_name">H.264 / AVC / MPEG-4 AVC / MPEG-4 part 10</property>
  <property name="meta.media.0.codec.bit_rate">33982958</property>
  <property name="meta.attr.0.stream.creation_time.markup">2019-12-07T16:57:40.000000Z</property>
  <property name="meta.attr.0.stream.language.markup">eng</property>
  <property name="meta.media.1.stream.type">audio</property>
  <property name="meta.media.1.codec.sample_fmt">fltp</property>
  <property name="meta.media.1.codec.sample_rate">48000</property>
  <property name="meta.media.1.codec.channels">2</property>
  <property name="meta.media.1.codec.name">aac</property>
  <property name="meta.media.1.codec.long_name">AAC (Advanced Audio Coding)</property>
  <property name="meta.media.1.codec.bit_rate">254904</property>
  <property name="meta.attr.1.stream.creation_time.markup">2019-12-07T16:57:40.000000Z</property>
  <property name="meta.attr.1.stream.language.markup">eng</property>
  <property name="meta.attr.major_brand.markup">mp42</property>
  <property name="meta.attr.minor_version.markup">1</property>
  <property name="meta.attr.compatible_brands.markup">mp42avc1CAEP</property>
  <property name="meta.attr.creation_time.markup">2019-12-07T16:57:40.000000Z</property>
  <property name="meta.attr.timecode.markup">16:56:38;52</property>
  <property name="seekable">1</property>
  <property name="meta.media.sample_aspect_num">1</property>
  <property name="meta.media.sample_aspect_den">1</property>
  <property name="aspect_ratio">1</property>
  <property name="kdenlive:file_size">88099952</property>
  <property name="kdenlive:file_hash">497ee9c88d13829159f6a9bdf6e344dd</property>
  <property name="global_feed">1</property>
  <property name="meta.media.frame_rate_num">60000</property>
  <property name="meta.media.frame_rate_den">1001</property>
  <property name="meta.media.colorspace">709</property>
  <property name="meta.media.color_trc">1</property>
  <property name="meta.media.width">1920</property>
  <property name="meta.media.height">1080</property>
  <property name="meta.media.top_field_first">0</property>
  <property name="meta.media.progressive">1</property>
  <property name="kdenlive:folderid">1</property>
 </producer>
 <producer title="Anonymous Submission" id="21" in="0" out="10589">
  <property name="length">00:02:56:41</property>
  <property name="eof">pause</property>
  <property name="resource">/media/bordun/plagiat2/2019-12-07_Plagiat_ViktorHuguauEnFranceAfrik/MVI_0022.MP4</property>
  <property name="audio_index">1</property>
  <property name="video_index">0</property>
  <property name="mute_on_pause">1</property>
  <property name="mlt_service">avformat-novalidate</property>
  <property name="meta.media.nb_streams">3</property>
  <property name="meta.media.0.stream.type">video</property>
  <property name="meta.media.0.stream.frame_rate">59,9401</property>
  <property name="meta.media.0.stream.sample_aspect_ratio">0</property>
  <property name="meta.media.0.codec.width">1920</property>
  <property name="meta.media.0.codec.height">1080</property>
  <property name="meta.media.0.codec.rotate">0</property>
  <property name="meta.media.0.codec.frame_rate">60000</property>
  <property name="meta.media.0.codec.pix_fmt">yuv420p</property>
  <property name="meta.media.0.codec.sample_aspect_ratio">0</property>
  <property name="meta.media.0.codec.colorspace">709</property>
  <property name="meta.media.0.codec.color_trc">1</property>
  <property name="meta.media.0.codec.name">h264</property>
  <property name="meta.media.0.codec.long_name">H.264 / AVC / MPEG-4 AVC / MPEG-4 part 10</property>
  <property name="meta.media.0.codec.bit_rate">34414522</property>
  <property name="meta.attr.0.stream.creation_time.markup">2019-12-07T16:58:53.000000Z</property>
  <property name="meta.attr.0.stream.language.markup">eng</property>
  <property name="meta.media.1.stream.type">audio</property>
  <property name="meta.media.1.codec.sample_fmt">fltp</property>
  <property name="meta.media.1.codec.sample_rate">48000</property>
  <property name="meta.media.1.codec.channels">2</property>
  <property name="meta.media.1.codec.name">aac</property>
  <property name="meta.media.1.codec.long_name">AAC (Advanced Audio Coding)</property>
  <property name="meta.media.1.codec.bit_rate">254989</property>
  <property name="meta.attr.1.stream.creation_time.markup">2019-12-07T16:58:53.000000Z</property>
  <property name="meta.attr.1.stream.language.markup">eng</property>
  <property name="meta.attr.major_brand.markup">mp42</property>
  <property name="meta.attr.minor_version.markup">1</property>
  <property name="meta.attr.compatible_brands.markup">mp42avc1CAEP</property>
  <property name="meta.attr.creation_time.markup">2019-12-07T16:58:53.000000Z</property>
  <property name="meta.attr.timecode.markup">16:57:52;38</property>
  <property name="seekable">1</property>
  <property name="meta.media.sample_aspect_num">1</property>
  <property name="meta.media.sample_aspect_den">1</property>
  <property name="aspect_ratio">1</property>
  <property name="kdenlive:file_size">766192783</property>
  <property name="kdenlive:file_hash">9e7c4e41d0375d8520bf16559991ead4</property>
  <property name="global_feed">1</property>
  <property name="meta.media.frame_rate_num">60000</property>
  <property name="meta.media.frame_rate_den">1001</property>
  <property name="meta.media.colorspace">709</property>
  <property name="meta.media.color_trc">1</property>
  <property name="meta.media.width">1920</property>
  <property name="meta.media.height">1080</property>
  <property name="meta.media.top_field_first">0</property>
  <property name="meta.media.progressive">1</property>
  <property name="kdenlive:folderid">1</property>
 </producer>
 <producer title="Anonymous Submission" id="22" in="0" out="4829">
  <property name="length">00:01:20:35</property>
  <property name="eof">pause</property>
  <property name="resource">/media/bordun/plagiat2/2019-12-07_Plagiat_ViktorHuguauEnFranceAfrik/MVI_0023.MP4</property>
  <property name="audio_index">1</property>
  <property name="video_index">0</property>
  <property name="mute_on_pause">1</property>
  <property name="mlt_service">avformat-novalidate</property>
  <property name="meta.media.nb_streams">3</property>
  <property name="meta.media.0.stream.type">video</property>
  <property name="meta.media.0.stream.frame_rate">59,9401</property>
  <property name="meta.media.0.stream.sample_aspect_ratio">0</property>
  <property name="meta.media.0.codec.width">1920</property>
  <property name="meta.media.0.codec.height">1080</property>
  <property name="meta.media.0.codec.rotate">0</property>
  <property name="meta.media.0.codec.frame_rate">60000</property>
  <property name="meta.media.0.codec.pix_fmt">yuv420p</property>
  <property name="meta.media.0.codec.sample_aspect_ratio">0</property>
  <property name="meta.media.0.codec.colorspace">709</property>
  <property name="meta.media.0.codec.color_trc">1</property>
  <property name="meta.media.0.codec.name">h264</property>
  <property name="meta.media.0.codec.long_name">H.264 / AVC / MPEG-4 AVC / MPEG-4 part 10</property>
  <property name="meta.media.0.codec.bit_rate">34381511</property>
  <property name="meta.attr.0.stream.creation_time.markup">2019-12-07T17:02:16.000000Z</property>
  <property name="meta.attr.0.stream.language.markup">eng</property>
  <property name="meta.media.1.stream.type">audio</property>
  <property name="meta.media.1.codec.sample_fmt">fltp</property>
  <property name="meta.media.1.codec.sample_rate">48000</property>
  <property name="meta.media.1.codec.channels">2</property>
  <property name="meta.media.1.codec.name">aac</property>
  <property name="meta.media.1.codec.long_name">AAC (Advanced Audio Coding)</property>
  <property name="meta.media.1.codec.bit_rate">254954</property>
  <property name="meta.attr.1.stream.creation_time.markup">2019-12-07T17:02:16.000000Z</property>
  <property name="meta.attr.1.stream.language.markup">eng</property>
  <property name="meta.attr.major_brand.markup">mp42</property>
  <property name="meta.attr.minor_version.markup">1</property>
  <property name="meta.attr.compatible_brands.markup">mp42avc1CAEP</property>
  <property name="meta.attr.creation_time.markup">2019-12-07T17:02:16.000000Z</property>
  <property name="meta.attr.timecode.markup">17:01:15;42</property>
  <property name="seekable">1</property>
  <property name="meta.media.sample_aspect_num">1</property>
  <property name="meta.media.sample_aspect_den">1</property>
  <property name="aspect_ratio">1</property>
  <property name="kdenlive:file_size">349203399</property>
  <property name="kdenlive:file_hash">cf0408e406df01f7b8e8f1793f42b886</property>
  <property name="global_feed">1</property>
  <property name="meta.media.frame_rate_num">60000</property>
  <property name="meta.media.frame_rate_den">1001</property>
  <property name="meta.media.colorspace">709</property>
  <property name="meta.media.color_trc">1</property>
  <property name="meta.media.width">1920</property>
  <property name="meta.media.height">1080</property>
  <property name="meta.media.top_field_first">0</property>
  <property name="meta.media.progressive">1</property>
  <property name="kdenlive:folderid">1</property>
  <property name="kdenlive:clipname">TRUMPET</property>
 </producer>
 <producer title="Anonymous Submission" id="23" in="0" out="7229">
  <property name="length">00:02:00:38</property>
  <property name="eof">pause</property>
  <property name="resource">/media/bordun/plagiat2/2019-12-07_Plagiat_ViktorHuguauEnFranceAfrik/MVI_0024.MP4</property>
  <property name="audio_index">1</property>
  <property name="video_index">0</property>
  <property name="mute_on_pause">1</property>
  <property name="mlt_service">avformat-novalidate</property>
  <property name="meta.media.nb_streams">3</property>
  <property name="meta.media.0.stream.type">video</property>
  <property name="meta.media.0.stream.frame_rate">59,9401</property>
  <property name="meta.media.0.stream.sample_aspect_ratio">0</property>
  <property name="meta.media.0.codec.width">1920</property>
  <property name="meta.media.0.codec.height">1080</property>
  <property name="meta.media.0.codec.rotate">0</property>
  <property name="meta.media.0.codec.frame_rate">60000</property>
  <property name="meta.media.0.codec.pix_fmt">yuv420p</property>
  <property name="meta.media.0.codec.sample_aspect_ratio">0</property>
  <property name="meta.media.0.codec.colorspace">709</property>
  <property name="meta.media.0.codec.color_trc">1</property>
  <property name="meta.media.0.codec.name">h264</property>
  <property name="meta.media.0.codec.long_name">H.264 / AVC / MPEG-4 AVC / MPEG-4 part 10</property>
  <property name="meta.media.0.codec.bit_rate">34450063</property>
  <property name="meta.attr.0.stream.creation_time.markup">2019-12-07T17:06:24.000000Z</property>
  <property name="meta.attr.0.stream.language.markup">eng</property>
  <property name="meta.media.1.stream.type">audio</property>
  <property name="meta.media.1.codec.sample_fmt">fltp</property>
  <property name="meta.media.1.codec.sample_rate">48000</property>
  <property name="meta.media.1.codec.channels">2</property>
  <property name="meta.media.1.codec.name">aac</property>
  <property name="meta.media.1.codec.long_name">AAC (Advanced Audio Coding)</property>
  <property name="meta.media.1.codec.bit_rate">254972</property>
  <property name="meta.attr.1.stream.creation_time.markup">2019-12-07T17:06:24.000000Z</property>
  <property name="meta.attr.1.stream.language.markup">eng</property>
  <property name="meta.attr.major_brand.markup">mp42</property>
  <property name="meta.attr.minor_version.markup">1</property>
  <property name="meta.attr.compatible_brands.markup">mp42avc1CAEP</property>
  <property name="meta.attr.creation_time.markup">2019-12-07T17:06:24.000000Z</property>
  <property name="meta.attr.timecode.markup">17:05:23;36</property>
  <property name="seekable">1</property>
  <property name="meta.media.sample_aspect_num">1</property>
  <property name="meta.media.sample_aspect_den">1</property>
  <property name="aspect_ratio">1</property>
  <property name="kdenlive:file_size">523624358</property>
  <property name="kdenlive:file_hash">3c05dbf69a29c2fae71c33f76e40ccc7</property>
  <property name="global_feed">1</property>
  <property name="meta.media.frame_rate_num">60000</property>
  <property name="meta.media.frame_rate_den">1001</property>
  <property name="meta.media.colorspace">709</property>
  <property name="meta.media.color_trc">1</property>
  <property name="meta.media.width">1920</property>
  <property name="meta.media.height">1080</property>
  <property name="meta.media.top_field_first">0</property>
  <property name="meta.media.progressive">1</property>
  <property name="kdenlive:folderid">1</property>
  <property name="kdenlive:clipname">GROOT</property>
 </producer>
 <producer title="Anonymous Submission" id="24" in="0" out="2159">
  <property name="length">00:00:36:02</property>
  <property name="eof">pause</property>
  <property name="resource">/media/bordun/plagiat2/2019-12-07_Plagiat_ViktorHuguauEnFranceAfrik/MVI_0025.MP4</property>
  <property name="audio_index">1</property>
  <property name="video_index">0</property>
  <property name="mute_on_pause">1</property>
  <property name="mlt_service">avformat-novalidate</property>
  <property name="meta.media.nb_streams">3</property>
  <property name="meta.media.0.stream.type">video</property>
  <property name="meta.media.0.stream.frame_rate">59,9401</property>
  <property name="meta.media.0.stream.sample_aspect_ratio">0</property>
  <property name="meta.media.0.codec.width">1920</property>
  <property name="meta.media.0.codec.height">1080</property>
  <property name="meta.media.0.codec.rotate">0</property>
  <property name="meta.media.0.codec.frame_rate">60000</property>
  <property name="meta.media.0.codec.pix_fmt">yuv420p</property>
  <property name="meta.media.0.codec.sample_aspect_ratio">0</property>
  <property name="meta.media.0.codec.colorspace">709</property>
  <property name="meta.media.0.codec.color_trc">1</property>
  <property name="meta.media.0.codec.name">h264</property>
  <property name="meta.media.0.codec.long_name">H.264 / AVC / MPEG-4 AVC / MPEG-4 part 10</property>
  <property name="meta.media.0.codec.bit_rate">34602862</property>
  <property name="meta.attr.0.stream.creation_time.markup">2019-12-07T17:10:29.000000Z</property>
  <property name="meta.attr.0.stream.language.markup">eng</property>
  <property name="meta.media.1.stream.type">audio</property>
  <property name="meta.media.1.codec.sample_fmt">fltp</property>
  <property name="meta.media.1.codec.sample_rate">48000</property>
  <property name="meta.media.1.codec.channels">2</property>
  <property name="meta.media.1.codec.name">aac</property>
  <property name="meta.media.1.codec.long_name">AAC (Advanced Audio Coding)</property>
  <property name="meta.media.1.codec.bit_rate">254841</property>
  <property name="meta.attr.1.stream.creation_time.markup">2019-12-07T17:10:29.000000Z</property>
  <property name="meta.attr.1.stream.language.markup">eng</property>
  <property name="meta.attr.major_brand.markup">mp42</property>
  <property name="meta.attr.minor_version.markup">1</property>
  <property name="meta.attr.compatible_brands.markup">mp42avc1CAEP</property>
  <property name="meta.attr.creation_time.markup">2019-12-07T17:10:29.000000Z</property>
  <property name="meta.attr.timecode.markup">17:09:28;52</property>
  <property name="seekable">1</property>
  <property name="meta.media.sample_aspect_num">1</property>
  <property name="meta.media.sample_aspect_den">1</property>
  <property name="aspect_ratio">1</property>
  <property name="kdenlive:file_size">157306918</property>
  <property name="kdenlive:file_hash">b9790af2d7e5f3c533bd9fae1e7f2cc2</property>
  <property name="global_feed">1</property>
  <property name="meta.media.frame_rate_num">60000</property>
  <property name="meta.media.frame_rate_den">1001</property>
  <property name="meta.media.colorspace">709</property>
  <property name="meta.media.color_trc">1</property>
  <property name="meta.media.width">1920</property>
  <property name="meta.media.height">1080</property>
  <property name="meta.media.top_field_first">0</property>
  <property name="meta.media.progressive">1</property>
  <property name="kdenlive:folderid">2</property>
 </producer>
 <producer title="Anonymous Submission" id="25" in="0" out="2579">
  <property name="length">00:00:43:02</property>
  <property name="eof">pause</property>
  <property name="resource">/media/bordun/plagiat2/2019-12-07_Plagiat_ViktorHuguauEnFranceAfrik/MVI_0026.MP4</property>
  <property name="audio_index">1</property>
  <property name="video_index">0</property>
  <property name="mute_on_pause">1</property>
  <property name="mlt_service">avformat-novalidate</property>
  <property name="meta.media.nb_streams">3</property>
  <property name="meta.media.0.stream.type">video</property>
  <property name="meta.media.0.stream.frame_rate">59,9401</property>
  <property name="meta.media.0.stream.sample_aspect_ratio">0</property>
  <property name="meta.media.0.codec.width">1920</property>
  <property name="meta.media.0.codec.height">1080</property>
  <property name="meta.media.0.codec.rotate">0</property>
  <property name="meta.media.0.codec.frame_rate">60000</property>
  <property name="meta.media.0.codec.pix_fmt">yuv420p</property>
  <property name="meta.media.0.codec.sample_aspect_ratio">0</property>
  <property name="meta.media.0.codec.colorspace">709</property>
  <property name="meta.media.0.codec.color_trc">1</property>
  <property name="meta.media.0.codec.name">h264</property>
  <property name="meta.media.0.codec.long_name">H.264 / AVC / MPEG-4 AVC / MPEG-4 part 10</property>
  <property name="meta.media.0.codec.bit_rate">34555864</property>
  <property name="meta.attr.0.stream.creation_time.markup">2019-12-07T17:11:19.000000Z</property>
  <property name="meta.attr.0.stream.language.markup">eng</property>
  <property name="meta.media.1.stream.type">audio</property>
  <property name="meta.media.1.codec.sample_fmt">fltp</property>
  <property name="meta.media.1.codec.sample_rate">48000</property>
  <property name="meta.media.1.codec.channels">2</property>
  <property name="meta.media.1.codec.name">aac</property>
  <property name="meta.media.1.codec.long_name">AAC (Advanced Audio Coding)</property>
  <property name="meta.media.1.codec.bit_rate">254911</property>
  <property name="meta.attr.1.stream.creation_time.markup">2019-12-07T17:11:19.000000Z</property>
  <property name="meta.attr.1.stream.language.markup">eng</property>
  <property name="meta.attr.major_brand.markup">mp42</property>
  <property name="meta.attr.minor_version.markup">1</property>
  <property name="meta.attr.compatible_brands.markup">mp42avc1CAEP</property>
  <property name="meta.attr.creation_time.markup">2019-12-07T17:11:19.000000Z</property>
  <property name="meta.attr.timecode.markup">17:10:18;08</property>
  <property name="seekable">1</property>
  <property name="meta.media.sample_aspect_num">1</property>
  <property name="meta.media.sample_aspect_den">1</property>
  <property name="aspect_ratio">1</property>
  <property name="kdenlive:file_size">187590621</property>
  <property name="kdenlive:file_hash">b55736681d164faae1f773a460a294ff</property>
  <property name="global_feed">1</property>
  <property name="meta.media.frame_rate_num">60000</property>
  <property name="meta.media.frame_rate_den">1001</property>
  <property name="meta.media.colorspace">709</property>
  <property name="meta.media.color_trc">1</property>
  <property name="meta.media.width">1920</property>
  <property name="meta.media.height">1080</property>
  <property name="meta.media.top_field_first">0</property>
  <property name="meta.media.progressive">1</property>
  <property name="kdenlive:folderid">2</property>
 </producer>
 <producer title="Anonymous Submission" id="26" in="0" out="2039">
  <property name="length">00:00:34:02</property>
  <property name="eof">pause</property>
  <property name="resource">/media/bordun/plagiat2/2019-12-07_Plagiat_ViktorHuguauEnFranceAfrik/MVI_0027.MP4</property>
  <property name="audio_index">1</property>
  <property name="video_index">0</property>
  <property name="mute_on_pause">1</property>
  <property name="mlt_service">avformat-novalidate</property>
  <property name="meta.media.nb_streams">3</property>
  <property name="meta.media.0.stream.type">video</property>
  <property name="meta.media.0.stream.frame_rate">59,9401</property>
  <property name="meta.media.0.stream.sample_aspect_ratio">0</property>
  <property name="meta.media.0.codec.width">1920</property>
  <property name="meta.media.0.codec.height">1080</property>
  <property name="meta.media.0.codec.rotate">0</property>
  <property name="meta.media.0.codec.frame_rate">60000</property>
  <property name="meta.media.0.codec.pix_fmt">yuv420p</property>
  <property name="meta.media.0.codec.sample_aspect_ratio">0</property>
  <property name="meta.media.0.codec.colorspace">709</property>
  <property name="meta.media.0.codec.color_trc">1</property>
  <property name="meta.media.0.codec.name">h264</property>
  <property name="meta.media.0.codec.long_name">H.264 / AVC / MPEG-4 AVC / MPEG-4 part 10</property>
  <property name="meta.media.0.codec.bit_rate">34564992</property>
  <property name="meta.attr.0.stream.creation_time.markup">2019-12-07T17:12:19.000000Z</property>
  <property name="meta.attr.0.stream.language.markup">eng</property>
  <property name="meta.media.1.stream.type">audio</property>
  <property name="meta.media.1.codec.sample_fmt">fltp</property>
  <property name="meta.media.1.codec.sample_rate">48000</property>
  <property name="meta.media.1.codec.channels">2</property>
  <property name="meta.media.1.codec.name">aac</property>
  <property name="meta.media.1.codec.long_name">AAC (Advanced Audio Coding)</property>
  <property name="meta.media.1.codec.bit_rate">254924</property>
  <property name="meta.attr.1.stream.creation_time.markup">2019-12-07T17:12:19.000000Z</property>
  <property name="meta.attr.1.stream.language.markup">eng</property>
  <property name="meta.attr.major_brand.markup">mp42</property>
  <property name="meta.attr.minor_version.markup">1</property>
  <property name="meta.attr.compatible_brands.markup">mp42avc1CAEP</property>
  <property name="meta.attr.creation_time.markup">2019-12-07T17:12:19.000000Z</property>
  <property name="meta.attr.timecode.markup">17:11:18;34</property>
  <property name="seekable">1</property>
  <property name="meta.media.sample_aspect_num">1</property>
  <property name="meta.media.sample_aspect_den">1</property>
  <property name="aspect_ratio">1</property>
  <property name="kdenlive:file_size">148421339</property>
  <property name="kdenlive:file_hash">242801507c70fb90c67589ba29ec6453</property>
  <property name="global_feed">1</property>
  <property name="meta.media.frame_rate_num">60000</property>
  <property name="meta.media.frame_rate_den">1001</property>
  <property name="meta.media.colorspace">709</property>
  <property name="meta.media.color_trc">1</property>
  <property name="meta.media.width">1920</property>
  <property name="meta.media.height">1080</property>
  <property name="meta.media.top_field_first">0</property>
  <property name="meta.media.progressive">1</property>
  <property name="kdenlive:folderid">2</property>
 </producer>
 <producer title="Anonymous Submission" id="27" in="0" out="3119">
  <property name="length">00:00:52:03</property>
  <property name="eof">pause</property>
  <property name="resource">/media/bordun/plagiat2/2019-12-07_Plagiat_ViktorHuguauEnFranceAfrik/MVI_0028.MP4</property>
  <property name="audio_index">1</property>
  <property name="video_index">0</property>
  <property name="mute_on_pause">1</property>
  <property name="mlt_service">avformat-novalidate</property>
  <property name="meta.media.nb_streams">3</property>
  <property name="meta.media.0.stream.type">video</property>
  <property name="meta.media.0.stream.frame_rate">59,9401</property>
  <property name="meta.media.0.stream.sample_aspect_ratio">0</property>
  <property name="meta.media.0.codec.width">1920</property>
  <property name="meta.media.0.codec.height">1080</property>
  <property name="meta.media.0.codec.rotate">0</property>
  <property name="meta.media.0.codec.frame_rate">60000</property>
  <property name="meta.media.0.codec.pix_fmt">yuv420p</property>
  <property name="meta.media.0.codec.sample_aspect_ratio">0</property>
  <property name="meta.media.0.codec.colorspace">709</property>
  <property name="meta.media.0.codec.color_trc">1</property>
  <property name="meta.media.0.codec.name">h264</property>
  <property name="meta.media.0.codec.long_name">H.264 / AVC / MPEG-4 AVC / MPEG-4 part 10</property>
  <property name="meta.media.0.codec.bit_rate">34531393</property>
  <property name="meta.attr.0.stream.creation_time.markup">2019-12-07T17:13:35.000000Z</property>
  <property name="meta.attr.0.stream.language.markup">eng</property>
  <property name="meta.media.1.stream.type">audio</property>
  <property name="meta.media.1.codec.sample_fmt">fltp</property>
  <property name="meta.media.1.codec.sample_rate">48000</property>
  <property name="meta.media.1.codec.channels">2</property>
  <property name="meta.media.1.codec.name">aac</property>
  <property name="meta.media.1.codec.long_name">AAC (Advanced Audio Coding)</property>
  <property name="meta.media.1.codec.bit_rate">254910</property>
  <property name="meta.attr.1.stream.creation_time.markup">2019-12-07T17:13:35.000000Z</property>
  <property name="meta.attr.1.stream.language.markup">eng</property>
  <property name="meta.attr.major_brand.markup">mp42</property>
  <property name="meta.attr.minor_version.markup">1</property>
  <property name="meta.attr.compatible_brands.markup">mp42avc1CAEP</property>
  <property name="meta.attr.creation_time.markup">2019-12-07T17:13:35.000000Z</property>
  <property name="meta.attr.timecode.markup">17:12:34;32</property>
  <property name="seekable">1</property>
  <property name="meta.media.sample_aspect_num">1</property>
  <property name="meta.media.sample_aspect_den">1</property>
  <property name="aspect_ratio">1</property>
  <property name="kdenlive:file_size">226639563</property>
  <property name="kdenlive:file_hash">79cab81e43fbde2c85bd74365949c2a2</property>
  <property name="global_feed">1</property>
  <property name="meta.media.frame_rate_num">60000</property>
  <property name="meta.media.frame_rate_den">1001</property>
  <property name="meta.media.colorspace">709</property>
  <property name="meta.media.color_trc">1</property>
  <property name="meta.media.width">1920</property>
  <property name="meta.media.height">1080</property>
  <property name="meta.media.top_field_first">0</property>
  <property name="meta.media.progressive">1</property>
  <property name="kdenlive:folderid">2</property>
 </producer>
 <producer title="Anonymous Submission" id="28" in="0" out="2579">
  <property name="length">00:00:43:02</property>
  <property name="eof">pause</property>
  <property name="resource">/media/bordun/plagiat2/2019-12-07_Plagiat_ViktorHuguauEnFranceAfrik/MVI_0029.MP4</property>
  <property name="audio_index">1</property>
  <property name="video_index">0</property>
  <property name="mute_on_pause">1</property>
  <property name="mlt_service">avformat-novalidate</property>
  <property name="meta.media.nb_streams">3</property>
  <property name="meta.media.0.stream.type">video</property>
  <property name="meta.media.0.stream.frame_rate">59,9401</property>
  <property name="meta.media.0.stream.sample_aspect_ratio">0</property>
  <property name="meta.media.0.codec.width">1920</property>
  <property name="meta.media.0.codec.height">1080</property>
  <property name="meta.media.0.codec.rotate">0</property>
  <property name="meta.media.0.codec.frame_rate">60000</property>
  <property name="meta.media.0.codec.pix_fmt">yuv420p</property>
  <property name="meta.media.0.codec.sample_aspect_ratio">0</property>
  <property name="meta.media.0.codec.colorspace">709</property>
  <property name="meta.media.0.codec.color_trc">1</property>
  <property name="meta.media.0.codec.name">h264</property>
  <property name="meta.media.0.codec.long_name">H.264 / AVC / MPEG-4 AVC / MPEG-4 part 10</property>
  <property name="meta.media.0.codec.bit_rate">34456380</property>
  <property name="meta.attr.0.stream.creation_time.markup">2019-12-07T17:14:41.000000Z</property>
  <property name="meta.attr.0.stream.language.markup">eng</property>
  <property name="meta.media.1.stream.type">audio</property>
  <property name="meta.media.1.codec.sample_fmt">fltp</property>
  <property name="meta.media.1.codec.sample_rate">48000</property>
  <property name="meta.media.1.codec.channels">2</property>
  <property name="meta.media.1.codec.name">aac</property>
  <property name="meta.media.1.codec.long_name">AAC (Advanced Audio Coding)</property>
  <property name="meta.media.1.codec.bit_rate">254915</property>
  <property name="meta.attr.1.stream.creation_time.markup">2019-12-07T17:14:41.000000Z</property>
  <property name="meta.attr.1.stream.language.markup">eng</property>
  <property name="meta.attr.major_brand.markup">mp42</property>
  <property name="meta.attr.minor_version.markup">1</property>
  <property name="meta.attr.compatible_brands.markup">mp42avc1CAEP</property>
  <property name="meta.attr.creation_time.markup">2019-12-07T17:14:41.000000Z</property>
  <property name="meta.attr.timecode.markup">17:13:40;38</property>
  <property name="seekable">1</property>
  <property name="meta.media.sample_aspect_num">1</property>
  <property name="meta.media.sample_aspect_den">1</property>
  <property name="aspect_ratio">1</property>
  <property name="kdenlive:file_size">187055381</property>
  <property name="kdenlive:file_hash">05be679d5dd271062989e88b7b836554</property>
  <property name="global_feed">1</property>
  <property name="meta.media.frame_rate_num">60000</property>
  <property name="meta.media.frame_rate_den">1001</property>
  <property name="meta.media.colorspace">709</property>
  <property name="meta.media.color_trc">1</property>
  <property name="meta.media.width">1920</property>
  <property name="meta.media.height">1080</property>
  <property name="meta.media.top_field_first">0</property>
  <property name="meta.media.progressive">1</property>
  <property name="kdenlive:folderid">2</property>
 </producer>
 <producer title="Anonymous Submission" id="29" in="0" out="32579">
  <property name="length">00:09:03:33</property>
  <property name="eof">pause</property>
  <property name="resource">/media/bordun/plagiat2/2019-12-07_Plagiat_ViktorHuguauEnFranceAfrik/MVI_0030.MP4</property>
  <property name="audio_index">1</property>
  <property name="video_index">0</property>
  <property name="mute_on_pause">1</property>
  <property name="mlt_service">avformat-novalidate</property>
  <property name="meta.media.nb_streams">3</property>
  <property name="meta.media.0.stream.type">video</property>
  <property name="meta.media.0.stream.frame_rate">59,9401</property>
  <property name="meta.media.0.stream.sample_aspect_ratio">0</property>
  <property name="meta.media.0.codec.width">1920</property>
  <property name="meta.media.0.codec.height">1080</property>
  <property name="meta.media.0.codec.rotate">0</property>
  <property name="meta.media.0.codec.frame_rate">60000</property>
  <property name="meta.media.0.codec.pix_fmt">yuv420p</property>
  <property name="meta.media.0.codec.sample_aspect_ratio">0</property>
  <property name="meta.media.0.codec.colorspace">709</property>
  <property name="meta.media.0.codec.color_trc">1</property>
  <property name="meta.media.0.codec.name">h264</property>
  <property name="meta.media.0.codec.long_name">H.264 / AVC / MPEG-4 AVC / MPEG-4 part 10</property>
  <property name="meta.media.0.codec.bit_rate">34484793</property>
  <property name="meta.attr.0.stream.creation_time.markup">2019-12-07T17:16:57.000000Z</property>
  <property name="meta.attr.0.stream.language.markup">eng</property>
  <property name="meta.media.1.stream.type">audio</property>
  <property name="meta.media.1.codec.sample_fmt">fltp</property>
  <property name="meta.media.1.codec.sample_rate">48000</property>
  <property name="meta.media.1.codec.channels">2</property>
  <property name="meta.media.1.codec.name">aac</property>
  <property name="meta.media.1.codec.long_name">AAC (Advanced Audio Coding)</property>
  <property name="meta.media.1.codec.bit_rate">254863</property>
  <property name="meta.attr.1.stream.creation_time.markup">2019-12-07T17:16:57.000000Z</property>
  <property name="meta.attr.1.stream.language.markup">eng</property>
  <property name="meta.attr.major_brand.markup">mp42</property>
  <property name="meta.attr.minor_version.markup">1</property>
  <property name="meta.attr.compatible_brands.markup">mp42avc1CAEP</property>
  <property name="meta.attr.creation_time.markup">2019-12-07T17:16:57.000000Z</property>
  <property name="meta.attr.timecode.markup">17:15:56;38</property>
  <property name="seekable">1</property>
  <property name="meta.media.sample_aspect_num">1</property>
  <property name="meta.media.sample_aspect_den">1</property>
  <property name="aspect_ratio">1</property>
  <property name="kdenlive:file_size">2361394871</property>
  <property name="kdenlive:file_hash">418df3676bf30cb26dab229b2803518c</property>
  <property name="global_feed">1</property>
  <property name="meta.media.frame_rate_num">60000</property>
  <property name="meta.media.frame_rate_den">1001</property>
  <property name="meta.media.colorspace">709</property>
  <property name="meta.media.color_trc">1</property>
  <property name="meta.media.width">1920</property>
  <property name="meta.media.height">1080</property>
  <property name="meta.media.top_field_first">0</property>
  <property name="meta.media.progressive">1</property>
  <property name="kdenlive:clipname">COUNTERCLOCKWISE 2</property>
  <property name="kdenlive:folderid">4</property>
 </producer>
 <producer title="Anonymous Submission" id="3" in="0" out="32519">
  <property name="length">00:09:02:33</property>
  <property name="eof">pause</property>
  <property name="resource">/media/bordun/plagiat2/2019-12-07_Plagiat_ViktorHuguauEnFranceAfrik/MVI_0004.MP4</property>
  <property name="audio_index">1</property>
  <property name="video_index">0</property>
  <property name="mute_on_pause">1</property>
  <property name="mlt_service">avformat-novalidate</property>
  <property name="meta.media.nb_streams">3</property>
  <property name="meta.media.0.stream.type">video</property>
  <property name="meta.media.0.stream.frame_rate">59,9401</property>
  <property name="meta.media.0.stream.sample_aspect_ratio">0</property>
  <property name="meta.media.0.codec.width">1920</property>
  <property name="meta.media.0.codec.height">1080</property>
  <property name="meta.media.0.codec.rotate">0</property>
  <property name="meta.media.0.codec.frame_rate">60000</property>
  <property name="meta.media.0.codec.pix_fmt">yuv420p</property>
  <property name="meta.media.0.codec.sample_aspect_ratio">0</property>
  <property name="meta.media.0.codec.colorspace">709</property>
  <property name="meta.media.0.codec.color_trc">1</property>
  <property name="meta.media.0.codec.name">h264</property>
  <property name="meta.media.0.codec.long_name">H.264 / AVC / MPEG-4 AVC / MPEG-4 part 10</property>
  <property name="meta.media.0.codec.bit_rate">34535706</property>
  <property name="meta.attr.0.stream.creation_time.markup">2019-12-07T15:11:12.000000Z</property>
  <property name="meta.attr.0.stream.language.markup">eng</property>
  <property name="meta.media.1.stream.type">audio</property>
  <property name="meta.media.1.codec.sample_fmt">fltp</property>
  <property name="meta.media.1.codec.sample_rate">48000</property>
  <property name="meta.media.1.codec.channels">2</property>
  <property name="meta.media.1.codec.name">aac</property>
  <property name="meta.media.1.codec.long_name">AAC (Advanced Audio Coding)</property>
  <property name="meta.media.1.codec.bit_rate">254870</property>
  <property name="meta.attr.1.stream.creation_time.markup">2019-12-07T15:11:12.000000Z</property>
  <property name="meta.attr.1.stream.language.markup">eng</property>
  <property name="meta.attr.major_brand.markup">mp42</property>
  <property name="meta.attr.minor_version.markup">1</property>
  <property name="meta.attr.compatible_brands.markup">mp42avc1CAEP</property>
  <property name="meta.attr.creation_time.markup">2019-12-07T15:11:12.000000Z</property>
  <property name="meta.attr.timecode.markup">15:10:11;34</property>
  <property name="seekable">1</property>
  <property name="meta.media.sample_aspect_num">1</property>
  <property name="meta.media.sample_aspect_den">1</property>
  <property name="aspect_ratio">1</property>
  <property name="kdenlive:file_size">2360500503</property>
  <property name="kdenlive:file_hash">5e7ce505f3b2122cec96cd3db10a9924</property>
  <property name="global_feed">1</property>
  <property name="meta.media.frame_rate_num">60000</property>
  <property name="meta.media.frame_rate_den">1001</property>
  <property name="meta.media.colorspace">709</property>
  <property name="meta.media.color_trc">1</property>
  <property name="meta.media.width">1920</property>
  <property name="meta.media.height">1080</property>
  <property name="meta.media.top_field_first">0</property>
  <property name="meta.media.progressive">1</property>
  <property name="kdenlive:clipname">NANO</property>
  <property name="kdenlive:folderid">4</property>
 </producer>
 <producer title="Anonymous Submission" id="30" in="0" out="32909">
  <property name="length">00:09:09:03</property>
  <property name="eof">pause</property>
  <property name="resource">/media/bordun/plagiat2/2019-12-07_Plagiat_ViktorHuguauEnFranceAfrik/MVI_0031.MP4</property>
  <property name="audio_index">1</property>
  <property name="video_index">0</property>
  <property name="mute_on_pause">1</property>
  <property name="mlt_service">avformat-novalidate</property>
  <property name="meta.media.nb_streams">3</property>
  <property name="meta.media.0.stream.type">video</property>
  <property name="meta.media.0.stream.frame_rate">59,9401</property>
  <property name="meta.media.0.stream.sample_aspect_ratio">0</property>
  <property name="meta.media.0.codec.width">1920</property>
  <property name="meta.media.0.codec.height">1080</property>
  <property name="meta.media.0.codec.rotate">0</property>
  <property name="meta.media.0.codec.frame_rate">60000</property>
  <property name="meta.media.0.codec.pix_fmt">yuv420p</property>
  <property name="meta.media.0.codec.sample_aspect_ratio">0</property>
  <property name="meta.media.0.codec.colorspace">709</property>
  <property name="meta.media.0.codec.color_trc">1</property>
  <property name="meta.media.0.codec.name">h264</property>
  <property name="meta.media.0.codec.long_name">H.264 / AVC / MPEG-4 AVC / MPEG-4 part 10</property>
  <property name="meta.media.0.codec.bit_rate">34499686</property>
  <property name="meta.attr.0.stream.creation_time.markup">2019-12-07T17:27:36.000000Z</property>
  <property name="meta.attr.0.stream.language.markup">eng</property>
  <property name="meta.media.1.stream.type">audio</property>
  <property name="meta.media.1.codec.sample_fmt">fltp</property>
  <property name="meta.media.1.codec.sample_rate">48000</property>
  <property name="meta.media.1.codec.channels">2</property>
  <property name="meta.media.1.codec.name">aac</property>
  <property name="meta.media.1.codec.long_name">AAC (Advanced Audio Coding)</property>
  <property name="meta.media.1.codec.bit_rate">254861</property>
  <property name="meta.attr.1.stream.creation_time.markup">2019-12-07T17:27:36.000000Z</property>
  <property name="meta.attr.1.stream.language.markup">eng</property>
  <property name="meta.attr.major_brand.markup">mp42</property>
  <property name="meta.attr.minor_version.markup">1</property>
  <property name="meta.attr.compatible_brands.markup">mp42avc1CAEP</property>
  <property name="meta.attr.creation_time.markup">2019-12-07T17:27:36.000000Z</property>
  <property name="meta.attr.timecode.markup">17:26:35;14</property>
  <property name="seekable">1</property>
  <property name="meta.media.sample_aspect_num">1</property>
  <property name="meta.media.sample_aspect_den">1</property>
  <property name="aspect_ratio">1</property>
  <property name="kdenlive:file_size">2386328540</property>
  <property name="kdenlive:file_hash">fc0e36a09083d7b5fd1ea0037bfee7c5</property>
  <property name="global_feed">1</property>
  <property name="meta.media.frame_rate_num">60000</property>
  <property name="meta.media.frame_rate_den">1001</property>
  <property name="meta.media.colorspace">709</property>
  <property name="meta.media.color_trc">1</property>
  <property name="meta.media.width">1920</property>
  <property name="meta.media.height">1080</property>
  <property name="meta.media.top_field_first">0</property>
  <property name="meta.media.progressive">1</property>
  <property name="kdenlive:clipname">CLOCKWISE</property>
  <property name="kdenlive:folderid">4</property>
  <property name="kdenlive:zone_in">2507</property>
  <property name="kdenlive:zone_out">2647</property>
 </producer>
 <producer title="Anonymous Submission" id="31" in="0" out="6900">
  <property name="length">00:01:55:08</property>
  <property name="eof">pause</property>
  <property name="resource">/media/bordun/plagiat2/2019-12-07_Plagiat_ViktorHuguauEnFranceAfrik/VID_20191207_170535.mp4</property>
  <property name="audio_index">1</property>
  <property name="video_index">0</property>
  <property name="mute_on_pause">1</property>
  <property name="mlt_service">avformat-novalidate</property>
  <property name="meta.media.nb_streams">2</property>
  <property name="meta.media.0.stream.type">video</property>
  <property name="meta.media.0.stream.frame_rate">30,045</property>
  <property name="meta.media.0.stream.sample_aspect_ratio">1</property>
  <property name="meta.media.0.codec.width">1920</property>
  <property name="meta.media.0.codec.height">1080</property>
  <property name="meta.media.0.codec.rotate">0</property>
  <property name="meta.media.0.codec.frame_rate">90000</property>
  <property name="meta.media.0.codec.pix_fmt">yuvj420p</property>
  <property name="meta.media.0.codec.sample_aspect_ratio">0</property>
  <property name="meta.media.0.codec.colorspace">601</property>
  <property name="meta.media.0.codec.color_trc">6</property>
  <property name="meta.media.0.codec.name">h264</property>
  <property name="meta.media.0.codec.long_name">H.264 / AVC / MPEG-4 AVC / MPEG-4 part 10</property>
  <property name="meta.media.0.codec.bit_rate">10507373</property>
  <property name="meta.attr.0.stream.creation_time.markup">2019-12-07T16:07:32.000000Z</property>
  <property name="meta.attr.0.stream.language.markup">eng</property>
  <property name="meta.attr.0.stream.handler_name.markup">VideoHandle</property>
  <property name="meta.media.1.stream.type">audio</property>
  <property name="meta.media.1.codec.sample_fmt">fltp</property>
  <property name="meta.media.1.codec.sample_rate">48000</property>
  <property name="meta.media.1.codec.channels">2</property>
  <property name="meta.media.1.codec.name">aac</property>
  <property name="meta.media.1.codec.long_name">AAC (Advanced Audio Coding)</property>
  <property name="meta.media.1.codec.bit_rate">96003</property>
  <property name="meta.attr.1.stream.creation_time.markup">2019-12-07T16:07:32.000000Z</property>
  <property name="meta.attr.1.stream.language.markup">eng</property>
  <property name="meta.attr.1.stream.handler_name.markup">SoundHandle</property>
  <property name="meta.attr.major_brand.markup">mp42</property>
  <property name="meta.attr.minor_version.markup">0</property>
  <property name="meta.attr.compatible_brands.markup">isommp42</property>
  <property name="meta.attr.creation_time.markup">2019-12-07T16:07:32.000000Z</property>
  <property name="meta.attr.location.markup">+00.0000+000.0000/</property>
  <property name="meta.attr.location-eng.markup">+00.0000+000.0000/</property>
  <property name="meta.attr.com.android.version.markup">7.1.1</property>
  <property name="seekable">1</property>
  <property name="meta.media.sample_aspect_num">1</property>
  <property name="meta.media.sample_aspect_den">1</property>
  <property name="aspect_ratio">1</property>
  <property name="kdenlive:file_size">153271659</property>
  <property name="kdenlive:file_hash">86afca315302a3dd251531c64a6dc078</property>
  <property name="global_feed">1</property>
  <property name="meta.media.frame_rate_num">77760000</property>
  <property name="meta.media.frame_rate_den">2588119</property>
  <property name="meta.media.colorspace">601</property>
  <property name="meta.media.color_trc">6</property>
  <property name="meta.media.width">1920</property>
  <property name="meta.media.height">1080</property>
  <property name="meta.media.variable_frame_rate">1</property>
  <property name="meta.media.top_field_first">0</property>
  <property name="meta.media.progressive">1</property>
  <property name="kdenlive:clipname">mk2 et nano</property>
  <property name="kdenlive:folderid">1</property>
 </producer>
 <producer title="Anonymous Submission" id="4" in="0" out="31379">
  <property name="length">00:08:43:31</property>
  <property name="eof">pause</property>
  <property name="resource">/media/bordun/plagiat2/2019-12-07_Plagiat_ViktorHuguauEnFranceAfrik/MVI_0005.MP4</property>
  <property name="audio_index">1</property>
  <property name="video_index">0</property>
  <property name="mute_on_pause">1</property>
  <property name="mlt_service">avformat-novalidate</property>
  <property name="meta.media.nb_streams">3</property>
  <property name="meta.media.0.stream.type">video</property>
  <property name="meta.media.0.stream.frame_rate">59,9401</property>
  <property name="meta.media.0.stream.sample_aspect_ratio">0</property>
  <property name="meta.media.0.codec.width">1920</property>
  <property name="meta.media.0.codec.height">1080</property>
  <property name="meta.media.0.codec.rotate">0</property>
  <property name="meta.media.0.codec.frame_rate">60000</property>
  <property name="meta.media.0.codec.pix_fmt">yuv420p</property>
  <property name="meta.media.0.codec.sample_aspect_ratio">0</property>
  <property name="meta.media.0.codec.colorspace">709</property>
  <property name="meta.media.0.codec.color_trc">1</property>
  <property name="meta.media.0.codec.name">h264</property>
  <property name="meta.media.0.codec.long_name">H.264 / AVC / MPEG-4 AVC / MPEG-4 part 10</property>
  <property name="meta.media.0.codec.bit_rate">34542459</property>
  <property name="meta.attr.0.stream.creation_time.markup">2019-12-07T15:24:18.000000Z</property>
  <property name="meta.attr.0.stream.language.markup">eng</property>
  <property name="meta.media.1.stream.type">audio</property>
  <property name="meta.media.1.codec.sample_fmt">fltp</property>
  <property name="meta.media.1.codec.sample_rate">48000</property>
  <property name="meta.media.1.codec.channels">2</property>
  <property name="meta.media.1.codec.name">aac</property>
  <property name="meta.media.1.codec.long_name">AAC (Advanced Audio Coding)</property>
  <property name="meta.media.1.codec.bit_rate">254873</property>
  <property name="meta.attr.1.stream.creation_time.markup">2019-12-07T15:24:18.000000Z</property>
  <property name="meta.attr.1.stream.language.markup">eng</property>
  <property name="meta.attr.major_brand.markup">mp42</property>
  <property name="meta.attr.minor_version.markup">1</property>
  <property name="meta.attr.compatible_brands.markup">mp42avc1CAEP</property>
  <property name="meta.attr.creation_time.markup">2019-12-07T15:24:18.000000Z</property>
  <property name="meta.attr.timecode.markup">15:23:17;02</property>
  <property name="seekable">1</property>
  <property name="meta.media.sample_aspect_num">1</property>
  <property name="meta.media.sample_aspect_den">1</property>
  <property name="aspect_ratio">1</property>
  <property name="kdenlive:file_size">2278217789</property>
  <property name="kdenlive:file_hash">3e6b32f51161f2e8787b9ca2d8acbabb</property>
  <property name="global_feed">1</property>
  <property name="meta.media.frame_rate_num">60000</property>
  <property name="meta.media.frame_rate_den">1001</property>
  <property name="meta.media.colorspace">709</property>
  <property name="meta.media.color_trc">1</property>
  <property name="meta.media.width">1920</property>
  <property name="meta.media.height">1080</property>
  <property name="meta.media.top_field_first">0</property>
  <property name="meta.media.progressive">1</property>
  <property name="kdenlive:clipname">MISSY</property>
  <property name="kdenlive:folderid">4</property>
  <property name="kdenlive:zone_in">650</property>
  <property name="kdenlive:zone_out">1167</property>
 </producer>
 <producer title="Anonymous Submission" id="5" in="0" out="32219">
  <property name="length">00:08:57:32</property>
  <property name="eof">pause</property>
  <property name="resource">/media/bordun/plagiat2/2019-12-07_Plagiat_ViktorHuguauEnFranceAfrik/MVI_0006.MP4</property>
  <property name="audio_index">1</property>
  <property name="video_index">0</property>
  <property name="mute_on_pause">1</property>
  <property name="mlt_service">avformat-novalidate</property>
  <property name="meta.media.nb_streams">3</property>
  <property name="meta.media.0.stream.type">video</property>
  <property name="meta.media.0.stream.frame_rate">59,9401</property>
  <property name="meta.media.0.stream.sample_aspect_ratio">0</property>
  <property name="meta.media.0.codec.width">1920</property>
  <property name="meta.media.0.codec.height">1080</property>
  <property name="meta.media.0.codec.rotate">0</property>
  <property name="meta.media.0.codec.frame_rate">60000</property>
  <property name="meta.media.0.codec.pix_fmt">yuv420p</property>
  <property name="meta.media.0.codec.sample_aspect_ratio">0</property>
  <property name="meta.media.0.codec.colorspace">709</property>
  <property name="meta.media.0.codec.color_trc">1</property>
  <property name="meta.media.0.codec.name">h264</property>
  <property name="meta.media.0.codec.long_name">H.264 / AVC / MPEG-4 AVC / MPEG-4 part 10</property>
  <property name="meta.media.0.codec.bit_rate">34503736</property>
  <property name="meta.attr.0.stream.creation_time.markup">2019-12-07T15:41:31.000000Z</property>
  <property name="meta.attr.0.stream.language.markup">eng</property>
  <property name="meta.media.1.stream.type">audio</property>
  <property name="meta.media.1.codec.sample_fmt">fltp</property>
  <property name="meta.media.1.codec.sample_rate">48000</property>
  <property name="meta.media.1.codec.channels">2</property>
  <property name="meta.media.1.codec.name">aac</property>
  <property name="meta.media.1.codec.long_name">AAC (Advanced Audio Coding)</property>
  <property name="meta.media.1.codec.bit_rate">254868</property>
  <property name="meta.attr.1.stream.creation_time.markup">2019-12-07T15:41:31.000000Z</property>
  <property name="meta.attr.1.stream.language.markup">eng</property>
  <property name="meta.attr.major_brand.markup">mp42</property>
  <property name="meta.attr.minor_version.markup">1</property>
  <property name="meta.attr.compatible_brands.markup">mp42avc1CAEP</property>
  <property name="meta.attr.creation_time.markup">2019-12-07T15:41:31.000000Z</property>
  <property name="meta.attr.timecode.markup">15:40:30;20</property>
  <property name="seekable">1</property>
  <property name="meta.media.sample_aspect_num">1</property>
  <property name="meta.media.sample_aspect_den">1</property>
  <property name="aspect_ratio">1</property>
  <property name="kdenlive:file_size">2336582847</property>
  <property name="kdenlive:file_hash">ea5ed975634d71aeac30997d1672cbef</property>
  <property name="global_feed">1</property>
  <property name="meta.media.frame_rate_num">60000</property>
  <property name="meta.media.frame_rate_den">1001</property>
  <property name="meta.media.colorspace">709</property>
  <property name="meta.media.color_trc">1</property>
  <property name="meta.media.width">1920</property>
  <property name="meta.media.height">1080</property>
  <property name="meta.media.top_field_first">0</property>
  <property name="meta.media.progressive">1</property>
  <property name="kdenlive:zone_in">0</property>
  <property name="kdenlive:zone_out">32172</property>
  <property name="kdenlive:clipname">PIGS</property>
  <property name="kdenlive:folderid">4</property>
 </producer>
 <producer title="Anonymous Submission" id="6" in="0" out="9659">
  <property name="length">00:02:41:10</property>
  <property name="eof">pause</property>
  <property name="resource">/media/bordun/plagiat2/2019-12-07_Plagiat_ViktorHuguauEnFranceAfrik/MVI_0007.MP4</property>
  <property name="audio_index">1</property>
  <property name="video_index">0</property>
  <property name="mute_on_pause">1</property>
  <property name="mlt_service">avformat-novalidate</property>
  <property name="meta.media.nb_streams">3</property>
  <property name="meta.media.0.stream.type">video</property>
  <property name="meta.media.0.stream.frame_rate">59,9401</property>
  <property name="meta.media.0.stream.sample_aspect_ratio">0</property>
  <property name="meta.media.0.codec.width">1920</property>
  <property name="meta.media.0.codec.height">1080</property>
  <property name="meta.media.0.codec.rotate">0</property>
  <property name="meta.media.0.codec.frame_rate">60000</property>
  <property name="meta.media.0.codec.pix_fmt">yuv420p</property>
  <property name="meta.media.0.codec.sample_aspect_ratio">0</property>
  <property name="meta.media.0.codec.colorspace">709</property>
  <property name="meta.media.0.codec.color_trc">1</property>
  <property name="meta.media.0.codec.name">h264</property>
  <property name="meta.media.0.codec.long_name">H.264 / AVC / MPEG-4 AVC / MPEG-4 part 10</property>
  <property name="meta.media.0.codec.bit_rate">34468646</property>
  <property name="meta.attr.0.stream.creation_time.markup">2019-12-07T15:54:23.000000Z</property>
  <property name="meta.attr.0.stream.language.markup">eng</property>
  <property name="meta.media.1.stream.type">audio</property>
  <property name="meta.media.1.codec.sample_fmt">fltp</property>
  <property name="meta.media.1.codec.sample_rate">48000</property>
  <property name="meta.media.1.codec.channels">2</property>
  <property name="meta.media.1.codec.name">aac</property>
  <property name="meta.media.1.codec.long_name">AAC (Advanced Audio Coding)</property>
  <property name="meta.media.1.codec.bit_rate">254986</property>
  <property name="meta.attr.1.stream.creation_time.markup">2019-12-07T15:54:23.000000Z</property>
  <property name="meta.attr.1.stream.language.markup">eng</property>
  <property name="meta.attr.major_brand.markup">mp42</property>
  <property name="meta.attr.minor_version.markup">1</property>
  <property name="meta.attr.compatible_brands.markup">mp42avc1CAEP</property>
  <property name="meta.attr.creation_time.markup">2019-12-07T15:54:23.000000Z</property>
  <property name="meta.attr.timecode.markup">15:53:22;02</property>
  <property name="seekable">1</property>
  <property name="meta.media.sample_aspect_num">1</property>
  <property name="meta.media.sample_aspect_den">1</property>
  <property name="aspect_ratio">1</property>
  <property name="kdenlive:file_size">700031689</property>
  <property name="kdenlive:file_hash">d81ae400436ae89d8d3d521890053515</property>
  <property name="global_feed">1</property>
  <property name="meta.media.frame_rate_num">60000</property>
  <property name="meta.media.frame_rate_den">1001</property>
  <property name="meta.media.colorspace">709</property>
  <property name="meta.media.color_trc">1</property>
  <property name="meta.media.width">1920</property>
  <property name="meta.media.height">1080</property>
  <property name="meta.media.top_field_first">0</property>
  <property name="meta.media.progressive">1</property>
  <property name="kdenlive:folderid">1</property>
 </producer>
 <producer title="Anonymous Submission" id="7" in="0" out="4499">
  <property name="length">00:01:15:04</property>
  <property name="eof">pause</property>
  <property name="resource">/media/bordun/plagiat2/2019-12-07_Plagiat_ViktorHuguauEnFranceAfrik/MVI_0008.MP4</property>
  <property name="audio_index">1</property>
  <property name="video_index">0</property>
  <property name="mute_on_pause">1</property>
  <property name="mlt_service">avformat-novalidate</property>
  <property name="meta.media.nb_streams">3</property>
  <property name="meta.media.0.stream.type">video</property>
  <property name="meta.media.0.stream.frame_rate">59,9401</property>
  <property name="meta.media.0.stream.sample_aspect_ratio">0</property>
  <property name="meta.media.0.codec.width">1920</property>
  <property name="meta.media.0.codec.height">1080</property>
  <property name="meta.media.0.codec.rotate">0</property>
  <property name="meta.media.0.codec.frame_rate">60000</property>
  <property name="meta.media.0.codec.pix_fmt">yuv420p</property>
  <property name="meta.media.0.codec.sample_aspect_ratio">0</property>
  <property name="meta.media.0.codec.colorspace">709</property>
  <property name="meta.media.0.codec.color_trc">1</property>
  <property name="meta.media.0.codec.name">h264</property>
  <property name="meta.media.0.codec.long_name">H.264 / AVC / MPEG-4 AVC / MPEG-4 part 10</property>
  <property name="meta.media.0.codec.bit_rate">34576133</property>
  <property name="meta.attr.0.stream.creation_time.markup">2019-12-07T15:59:57.000000Z</property>
  <property name="meta.attr.0.stream.language.markup">eng</property>
  <property name="meta.media.1.stream.type">audio</property>
  <property name="meta.media.1.codec.sample_fmt">fltp</property>
  <property name="meta.media.1.codec.sample_rate">48000</property>
  <property name="meta.media.1.codec.channels">2</property>
  <property name="meta.media.1.codec.name">aac</property>
  <property name="meta.media.1.codec.long_name">AAC (Advanced Audio Coding)</property>
  <property name="meta.media.1.codec.bit_rate">254978</property>
  <property name="meta.attr.1.stream.creation_time.markup">2019-12-07T15:59:57.000000Z</property>
  <property name="meta.attr.1.stream.language.markup">eng</property>
  <property name="meta.attr.major_brand.markup">mp42</property>
  <property name="meta.attr.minor_version.markup">1</property>
  <property name="meta.attr.compatible_brands.markup">mp42avc1CAEP</property>
  <property name="meta.attr.creation_time.markup">2019-12-07T15:59:57.000000Z</property>
  <property name="meta.attr.timecode.markup">15:58:56;14</property>
  <property name="seekable">1</property>
  <property name="meta.media.sample_aspect_num">1</property>
  <property name="meta.media.sample_aspect_den">1</property>
  <property name="aspect_ratio">1</property>
  <property name="kdenlive:file_size">327189359</property>
  <property name="kdenlive:file_hash">3f2896cb3d292e6f500b0074c2faa5bd</property>
  <property name="global_feed">1</property>
  <property name="meta.media.frame_rate_num">60000</property>
  <property name="meta.media.frame_rate_den">1001</property>
  <property name="meta.media.colorspace">709</property>
  <property name="meta.media.color_trc">1</property>
  <property name="meta.media.width">1920</property>
  <property name="meta.media.height">1080</property>
  <property name="meta.media.top_field_first">0</property>
  <property name="meta.media.progressive">1</property>
  <property name="kdenlive:folderid">1</property>
 </producer>
 <producer title="Anonymous Submission" id="8" in="0" out="9869">
  <property name="length">00:02:44:40</property>
  <property name="eof">pause</property>
  <property name="resource">/media/bordun/plagiat2/2019-12-07_Plagiat_ViktorHuguauEnFranceAfrik/MVI_0009.MP4</property>
  <property name="audio_index">1</property>
  <property name="video_index">0</property>
  <property name="mute_on_pause">1</property>
  <property name="mlt_service">avformat-novalidate</property>
  <property name="meta.media.nb_streams">3</property>
  <property name="meta.media.0.stream.type">video</property>
  <property name="meta.media.0.stream.frame_rate">59,9401</property>
  <property name="meta.media.0.stream.sample_aspect_ratio">0</property>
  <property name="meta.media.0.codec.width">1920</property>
  <property name="meta.media.0.codec.height">1080</property>
  <property name="meta.media.0.codec.rotate">0</property>
  <property name="meta.media.0.codec.frame_rate">60000</property>
  <property name="meta.media.0.codec.pix_fmt">yuv420p</property>
  <property name="meta.media.0.codec.sample_aspect_ratio">0</property>
  <property name="meta.media.0.codec.colorspace">709</property>
  <property name="meta.media.0.codec.color_trc">1</property>
  <property name="meta.media.0.codec.name">h264</property>
  <property name="meta.media.0.codec.long_name">H.264 / AVC / MPEG-4 AVC / MPEG-4 part 10</property>
  <property name="meta.media.0.codec.bit_rate">34524994</property>
  <property name="meta.attr.0.stream.creation_time.markup">2019-12-07T16:02:22.000000Z</property>
  <property name="meta.attr.0.stream.language.markup">eng</property>
  <property name="meta.media.1.stream.type">audio</property>
  <property name="meta.media.1.codec.sample_fmt">fltp</property>
  <property name="meta.media.1.codec.sample_rate">48000</property>
  <property name="meta.media.1.codec.channels">2</property>
  <property name="meta.media.1.codec.name">aac</property>
  <property name="meta.media.1.codec.long_name">AAC (Advanced Audio Coding)</property>
  <property name="meta.media.1.codec.bit_rate">254978</property>
  <property name="meta.attr.1.stream.creation_time.markup">2019-12-07T16:02:22.000000Z</property>
  <property name="meta.attr.1.stream.language.markup">eng</property>
  <property name="meta.attr.major_brand.markup">mp42</property>
  <property name="meta.attr.minor_version.markup">1</property>
  <property name="meta.attr.compatible_brands.markup">mp42avc1CAEP</property>
  <property name="meta.attr.creation_time.markup">2019-12-07T16:02:22.000000Z</property>
  <property name="meta.attr.timecode.markup">16:01:21;22</property>
  <property name="seekable">1</property>
  <property name="meta.media.sample_aspect_num">1</property>
  <property name="meta.media.sample_aspect_den">1</property>
  <property name="aspect_ratio">1</property>
  <property name="kdenlive:file_size">716400721</property>
  <property name="kdenlive:file_hash">7bf69abc13102bd52dd9373f5272227e</property>
  <property name="global_feed">1</property>
  <property name="meta.media.frame_rate_num">60000</property>
  <property name="meta.media.frame_rate_den">1001</property>
  <property name="meta.media.colorspace">709</property>
  <property name="meta.media.color_trc">1</property>
  <property name="meta.media.width">1920</property>
  <property name="meta.media.height">1080</property>
  <property name="meta.media.top_field_first">0</property>
  <property name="meta.media.progressive">1</property>
  <property name="kdenlive:folderid">1</property>
 </producer>
 <producer title="Anonymous Submission" id="9" in="0" out="5879">
  <property name="length">00:01:38:06</property>
  <property name="eof">pause</property>
  <property name="resource">/media/bordun/plagiat2/2019-12-07_Plagiat_ViktorHuguauEnFranceAfrik/MVI_0010.MP4</property>
  <property name="audio_index">1</property>
  <property name="video_index">0</property>
  <property name="mute_on_pause">1</property>
  <property name="mlt_service">avformat-novalidate</property>
  <property name="meta.media.nb_streams">3</property>
  <property name="meta.media.0.stream.type">video</property>
  <property name="meta.media.0.stream.frame_rate">59,9401</property>
  <property name="meta.media.0.stream.sample_aspect_ratio">0</property>
  <property name="meta.media.0.codec.width">1920</property>
  <property name="meta.media.0.codec.height">1080</property>
  <property name="meta.media.0.codec.rotate">0</property>
  <property name="meta.media.0.codec.frame_rate">60000</property>
  <property name="meta.media.0.codec.pix_fmt">yuv420p</property>
  <property name="meta.media.0.codec.sample_aspect_ratio">0</property>
  <property name="meta.media.0.codec.colorspace">709</property>
  <property name="meta.media.0.codec.color_trc">1</property>
  <property name="meta.media.0.codec.name">h264</property>
  <property name="meta.media.0.codec.long_name">H.264 / AVC / MPEG-4 AVC / MPEG-4 part 10</property>
  <property name="meta.media.0.codec.bit_rate">34566705</property>
  <property name="meta.attr.0.stream.creation_time.markup">2019-12-07T16:06:04.000000Z</property>
  <property name="meta.attr.0.stream.language.markup">eng</property>
  <property name="meta.media.1.stream.type">audio</property>
  <property name="meta.media.1.codec.sample_fmt">fltp</property>
  <property name="meta.media.1.codec.sample_rate">48000</property>
  <property name="meta.media.1.codec.channels">2</property>
  <property name="meta.media.1.codec.name">aac</property>
  <property name="meta.media.1.codec.long_name">AAC (Advanced Audio Coding)</property>
  <property name="meta.media.1.codec.bit_rate">254959</property>
  <property name="meta.attr.1.stream.creation_time.markup">2019-12-07T16:06:04.000000Z</property>
  <property name="meta.attr.1.stream.language.markup">eng</property>
  <property name="meta.attr.major_brand.markup">mp42</property>
  <property name="meta.attr.minor_version.markup">1</property>
  <property name="meta.attr.compatible_brands.markup">mp42avc1CAEP</property>
  <property name="meta.attr.creation_time.markup">2019-12-07T16:06:04.000000Z</property>
  <property name="meta.attr.timecode.markup">16:05:02;52</property>
  <property name="seekable">1</property>
  <property name="meta.media.sample_aspect_num">1</property>
  <property name="meta.media.sample_aspect_den">1</property>
  <property name="aspect_ratio">1</property>
  <property name="kdenlive:file_size">427331079</property>
  <property name="kdenlive:file_hash">aca8fd0a960799c252a0a025fbc6ae2b</property>
  <property name="global_feed">1</property>
  <property name="meta.media.frame_rate_num">60000</property>
  <property name="meta.media.frame_rate_den">1001</property>
  <property name="meta.media.colorspace">709</property>
  <property name="meta.media.color_trc">1</property>
  <property name="meta.media.width">1920</property>
  <property name="meta.media.height">1080</property>
  <property name="meta.media.top_field_first">0</property>
  <property name="meta.media.progressive">1</property>
  <property name="kdenlive:folderid">1</property>
 </producer>
 <producer title="Anonymous Submission" id="33" in="0" out="31379">
  <property name="length">00:08:43:31</property>
  <property name="eof">pause</property>
  <property name="resource">/media/bordun/plagiat2/2019-12-07_Plagiat_ViktorHuguauEnFranceAfrik/MVI_0005.MP4</property>
  <property name="audio_index">1</property>
  <property name="video_index">0</property>
  <property name="mute_on_pause">1</property>
  <property name="mlt_service">avformat-novalidate</property>
  <property name="meta.media.nb_streams">3</property>
  <property name="meta.media.0.stream.type">video</property>
  <property name="meta.media.0.stream.frame_rate">59,9401</property>
  <property name="meta.media.0.stream.sample_aspect_ratio">0</property>
  <property name="meta.media.0.codec.width">1920</property>
  <property name="meta.media.0.codec.height">1080</property>
  <property name="meta.media.0.codec.rotate">0</property>
  <property name="meta.media.0.codec.frame_rate">60000</property>
  <property name="meta.media.0.codec.pix_fmt">yuv420p</property>
  <property name="meta.media.0.codec.sample_aspect_ratio">0</property>
  <property name="meta.media.0.codec.colorspace">709</property>
  <property name="meta.media.0.codec.color_trc">1</property>
  <property name="meta.media.0.codec.name">h264</property>
  <property name="meta.media.0.codec.long_name">H.264 / AVC / MPEG-4 AVC / MPEG-4 part 10</property>
  <property name="meta.media.0.codec.bit_rate">34542459</property>
  <property name="meta.attr.0.stream.creation_time.markup">2019-12-07T15:24:18.000000Z</property>
  <property name="meta.attr.0.stream.language.markup">eng</property>
  <property name="meta.media.1.stream.type">audio</property>
  <property name="meta.media.1.codec.sample_fmt">fltp</property>
  <property name="meta.media.1.codec.sample_rate">48000</property>
  <property name="meta.media.1.codec.channels">2</property>
  <property name="meta.media.1.codec.name">aac</property>
  <property name="meta.media.1.codec.long_name">AAC (Advanced Audio Coding)</property>
  <property name="meta.media.1.codec.bit_rate">254873</property>
  <property name="meta.attr.1.stream.creation_time.markup">2019-12-07T15:24:18.000000Z</property>
  <property name="meta.attr.1.stream.language.markup">eng</property>
  <property name="meta.attr.major_brand.markup">mp42</property>
  <property name="meta.attr.minor_version.markup">1</property>
  <property name="meta.attr.compatible_brands.markup">mp42avc1CAEP</property>
  <property name="meta.attr.creation_time.markup">2019-12-07T15:24:18.000000Z</property>
  <property name="meta.attr.timecode.markup">15:23:17;02</property>
  <property name="seekable">1</property>
  <property name="meta.media.sample_aspect_num">1</property>
  <property name="meta.media.sample_aspect_den">1</property>
  <property name="aspect_ratio">1</property>
  <property name="kdenlive:file_size">2278217789</property>
  <property name="kdenlive:file_hash">3e6b32f51161f2e8787b9ca2d8acbabb</property>
  <property name="global_feed">1</property>
  <property name="kdenlive:clipname">MISSY (bug balance des blancs)</property>
  <property name="kdenlive:folderid">4</property>
  <property name="meta.media.frame_rate_num">60000</property>
  <property name="meta.media.frame_rate_den">1001</property>
  <property name="meta.media.colorspace">709</property>
  <property name="meta.media.color_trc">1</property>
  <property name="meta.media.width">1920</property>
  <property name="meta.media.height">1080</property>
  <property name="meta.media.top_field_first">0</property>
  <property name="meta.media.progressive">1</property>
  <filter id="frei0r.colgate">
   <property name="version">0,1</property>
   <property name="mlt_service">frei0r.colgate</property>
   <property name="kdenlive_id">frei0r.colgate</property>
   <property name="tag">frei0r.colgate</property>
   <property name="kdenlive_ix">1</property>
   <property name="kdenlive_info"/>
   <property name="Neutral Color">0x7f7f7fff</property>
   <property name="Color Temperature">0=0,366667</property>
  </filter>
 </producer>
 <producer title="Anonymous Submission" id="38" in="0" out="31360">
  <property name="length">00:08:43:12</property>
  <property name="eof">pause</property>
  <property name="resource">/media/bordun/plagiat/Clip03_ViktorHuguauEnFranceAfrik/Audio/2019-12-07_ViktorHuguauEnFranceAfrik_Master_r7.wav</property>
  <property name="audio_index">0</property>
  <property name="video_index">-1</property>
  <property name="mute_on_pause">1</property>
  <property name="mlt_service">avformat-novalidate</property>
  <property name="meta.media.nb_streams">1</property>
  <property name="meta.media.0.stream.type">audio</property>
  <property name="meta.media.0.codec.sample_fmt">s32</property>
  <property name="meta.media.0.codec.sample_rate">48000</property>
  <property name="meta.media.0.codec.channels">2</property>
  <property name="meta.media.0.codec.name">pcm_s24le</property>
  <property name="meta.media.0.codec.long_name">PCM signed 24-bit little-endian</property>
  <property name="meta.media.0.codec.bit_rate">2304000</property>
  <property name="seekable">1</property>
  <property name="kdenlive:file_size">150681644</property>
  <property name="kdenlive:file_hash">92ea87469fb30ce842c30f5e402c8fdb</property>
  <property name="global_feed">1</property>
 </producer>
 <playlist id="main bin">
  <property name="kdenlive:docproperties.audiotargettrack">4</property>
  <property name="kdenlive:docproperties.decimalPoint">,</property>
  <property name="kdenlive:docproperties.dirtypreviewchunks"/>
  <property name="kdenlive:docproperties.disablepreview">0</property>
  <property name="kdenlive:docproperties.documentid">1575755254466</property>
  <property name="kdenlive:docproperties.enableproxy">0</property>
  <property name="kdenlive:docproperties.generateimageproxy">0</property>
  <property name="kdenlive:docproperties.generateproxy">0</property>
  <property name="kdenlive:docproperties.kdenliveversion">18.12.1</property>
  <property name="kdenlive:docproperties.position">0</property>
  <property name="kdenlive:docproperties.previewchunks"/>
  <property name="kdenlive:docproperties.previewextension"/>
  <property name="kdenlive:docproperties.previewparameters"/>
  <property name="kdenlive:docproperties.profile">atsc_1080p_5994</property>
  <property name="kdenlive:docproperties.proxyextension">mkv</property>
  <property name="kdenlive:docproperties.proxyimageminsize">2000</property>
  <property name="kdenlive:docproperties.proxyminsize">1000</property>
  <property name="kdenlive:docproperties.proxyparams">-vf yadif,scale=960:-2 -qscale 3 -vcodec mjpeg -acodec pcm_s16le</property>
  <property name="kdenlive:docproperties.version">0.96</property>
  <property name="kdenlive:docproperties.verticalzoom">1</property>
  <property name="kdenlive:docproperties.videotargettrack">5</property>
  <property name="kdenlive:docproperties.zonein">6158</property>
  <property name="kdenlive:docproperties.zoneout">38332</property>
  <property name="kdenlive:docproperties.zoom">12</property>
  <property name="kdenlive:documentnotes"/>
  <property name="kdenlive:clipgroups"/>
  <property name="kdenlive:docproperties.renderaudioquality">192</property>
  <property name="kdenlive:docproperties.rendercategory">Sans perte / Haute qualité</property>
  <property name="kdenlive:docproperties.renderendguide">0</property>
  <property name="kdenlive:docproperties.renderexportaudio">0</property>
  <property name="kdenlive:docproperties.renderguide">0</property>
  <property name="kdenlive:docproperties.renderplay">0</property>
  <property name="kdenlive:docproperties.renderprofile">FFV1 (ffv1+flac)</property>
  <property name="kdenlive:docproperties.renderquality">5</property>
  <property name="kdenlive:docproperties.renderratio">1</property>
  <property name="kdenlive:docproperties.renderrescale">0</property>
  <property name="kdenlive:docproperties.renderrescaleheight">720</property>
  <property name="kdenlive:docproperties.renderrescalewidth">1280</property>
  <property name="kdenlive:docproperties.renderscanning">0</property>
  <property name="kdenlive:docproperties.renderspeed">1</property>
  <property name="kdenlive:docproperties.renderstartguide">0</property>
  <property name="kdenlive:docproperties.rendertcoverlay">0</property>
  <property name="kdenlive:docproperties.rendertctype">0</property>
  <property name="kdenlive:docproperties.rendertwopass">0</property>
  <property name="kdenlive:docproperties.renderurl">/media/bordun/plagiat/Clip03_ViktorHuguauEnFranceAfrik/Rendu/2020-03-09-PreMaster.mkv</property>
  <property name="kdenlive:docproperties.renderzone">1</property>
  <property name="kdenlive:folder.-1.1">TECH</property>
  <property name="kdenlive:folder.-1.2">DOMINO</property>
  <property name="kdenlive:folder.-1.3">MAKINKOF</property>
  <property name="kdenlive:folder.-1.4">FULLTAKE</property>
  <property name="kdenlive:guide.430,914">00:07:10,57</property>
  <property name="kdenlive:guide.268,418">00:04:28,25</property>
  <property name="xml_retain">1</property>
  <entry producer="1" in="0" out="6509"/>
  <entry producer="10" in="0" out="31649"/>
  <entry producer="11" in="0" out="1649"/>
  <entry producer="12" in="0" out="2999"/>
  <entry producer="13" in="0" out="2579"/>
  <entry producer="14" in="0" out="2219"/>
  <entry producer="15" in="0" out="2879"/>
  <entry producer="16" in="0" out="989"/>
  <entry producer="17" in="0" out="4559"/>
  <entry producer="18" in="0" out="2609"/>
  <entry producer="19" in="0" out="1829"/>
  <entry producer="2" in="0" out="31319"/>
  <entry producer="20" in="0" out="1229"/>
  <entry producer="21" in="0" out="10589"/>
  <entry producer="22" in="0" out="4829"/>
  <entry producer="23" in="0" out="7229"/>
  <entry producer="24" in="0" out="2159"/>
  <entry producer="25" in="0" out="2579"/>
  <entry producer="26" in="0" out="2039"/>
  <entry producer="27" in="0" out="3119"/>
  <entry producer="28" in="0" out="2579"/>
  <entry producer="29" in="0" out="32579"/>
  <entry producer="3" in="0" out="32519"/>
  <entry producer="30" in="0" out="32909"/>
  <entry producer="31" in="0" out="6900"/>
  <entry producer="4" in="0" out="31379"/>
  <entry producer="5" in="0" out="32219"/>
  <entry producer="6" in="0" out="9659"/>
  <entry producer="7" in="0" out="4499"/>
  <entry producer="8" in="0" out="9869"/>
  <entry producer="9" in="0" out="5879"/>
  <entry producer="33" in="0" out="31379"/>
  <entry producer="38" in="0" out="31360"/>
 </playlist>
 <producer id="black" in="0" out="130167">
  <property name="length">130168</property>
  <property name="eof">pause</property>
  <property name="resource">black</property>
  <property name="aspect_ratio">0</property>
  <property name="mlt_service">colour</property>
  <property name="set.test_audio">0</property>
 </producer>
 <playlist id="black_track">
  <entry producer="black" in="0" out="96567"/>
 </playlist>
 <playlist id="playlist13">
  <property name="kdenlive:track_name">Video 12</property>
 </playlist>
 <producer title="Anonymous Submission" id="38_playlist1" in="0" out="31360">
  <property name="length">00:08:43:12</property>
  <property name="eof">pause</property>
  <property name="resource">/media/bordun/plagiat/Clip03_ViktorHuguauEnFranceAfrik/Audio/2019-12-07_ViktorHuguauEnFranceAfrik_Master_r7.wav</property>
  <property name="audio_index">0</property>
  <property name="video_index">-1</property>
  <property name="mute_on_pause">1</property>
  <property name="mlt_service">avformat-novalidate</property>
  <property name="seekable">1</property>
  <property name="kdenlive:file_size">150681644</property>
  <property name="kdenlive:file_hash">92ea87469fb30ce842c30f5e402c8fdb</property>
  <property name="global_feed">1</property>
  <property name="xml">was here</property>
  <property name="meta.media.nb_streams">1</property>
  <property name="meta.media.0.stream.type">audio</property>
  <property name="meta.media.0.codec.sample_fmt">s32</property>
  <property name="meta.media.0.codec.sample_rate">48000</property>
  <property name="meta.media.0.codec.channels">2</property>
  <property name="meta.media.0.codec.name">pcm_s24le</property>
  <property name="meta.media.0.codec.long_name">PCM signed 24-bit little-endian</property>
  <property name="meta.media.0.codec.bit_rate">2304000</property>
 </producer>
 <playlist id="playlist1">
  <property name="kdenlive:audio_track">1</property>
  <property name="kdenlive:track_name">Audio 2</property>
  <blank length="6465"/>
  <entry producer="38_playlist1" in="0" out="31360"/>
 </playlist>
 <producer title="Anonymous Submission" id="5_playlist15_audio" in="0" out="32219">
  <property name="length">00:08:57:32</property>
  <property name="eof">pause</property>
  <property name="resource">/media/bordun/plagiat2/2019-12-07_Plagiat_ViktorHuguauEnFranceAfrik/MVI_0006.MP4</property>
  <property name="audio_index">1</property>
  <property name="video_index">-1</property>
  <property name="mute_on_pause">1</property>
  <property name="mlt_service">avformat-novalidate</property>
  <property name="seekable">1</property>
  <property name="aspect_ratio">1</property>
  <property name="kdenlive:file_size">2336582847</property>
  <property name="kdenlive:file_hash">ea5ed975634d71aeac30997d1672cbef</property>
  <property name="global_feed">1</property>
  <property name="kdenlive:zone_in">0</property>
  <property name="kdenlive:zone_out">32172</property>
  <property name="kdenlive:clipname">PIGS</property>
  <property name="kdenlive:folderid">4</property>
  <property name="xml">was here</property>
  <property name="meta.media.nb_streams">3</property>
  <property name="meta.media.0.stream.type">video</property>
  <property name="meta.media.0.stream.frame_rate">59,9401</property>
  <property name="meta.media.0.stream.sample_aspect_ratio">0</property>
  <property name="meta.media.0.codec.width">1920</property>
  <property name="meta.media.0.codec.height">1080</property>
  <property name="meta.media.0.codec.rotate">0</property>
  <property name="meta.media.0.codec.frame_rate">60000</property>
  <property name="meta.media.0.codec.pix_fmt">yuv420p</property>
  <property name="meta.media.0.codec.sample_aspect_ratio">0</property>
  <property name="meta.media.0.codec.colorspace">709</property>
  <property name="meta.media.0.codec.color_trc">1</property>
  <property name="meta.media.0.codec.name">h264</property>
  <property name="meta.media.0.codec.long_name">H.264 / AVC / MPEG-4 AVC / MPEG-4 part 10</property>
  <property name="meta.media.0.codec.bit_rate">34503736</property>
  <property name="meta.attr.0.stream.creation_time.markup">2019-12-07T15:41:31.000000Z</property>
  <property name="meta.attr.0.stream.language.markup">eng</property>
  <property name="meta.media.1.stream.type">audio</property>
  <property name="meta.media.1.codec.sample_fmt">fltp</property>
  <property name="meta.media.1.codec.sample_rate">48000</property>
  <property name="meta.media.1.codec.channels">2</property>
  <property name="meta.media.1.codec.name">aac</property>
  <property name="meta.media.1.codec.long_name">AAC (Advanced Audio Coding)</property>
  <property name="meta.media.1.codec.bit_rate">254868</property>
  <property name="meta.attr.1.stream.creation_time.markup">2019-12-07T15:41:31.000000Z</property>
  <property name="meta.attr.1.stream.language.markup">eng</property>
  <property name="meta.attr.major_brand.markup">mp42</property>
  <property name="meta.attr.minor_version.markup">1</property>
  <property name="meta.attr.compatible_brands.markup">mp42avc1CAEP</property>
  <property name="meta.attr.creation_time.markup">2019-12-07T15:41:31.000000Z</property>
  <property name="meta.attr.timecode.markup">15:40:30;20</property>
  <property name="meta.media.sample_aspect_num">1</property>
  <property name="meta.media.sample_aspect_den">1</property>
 </producer>
 <playlist id="playlist15">
  <property name="kdenlive:track_name">Video 14</property>
  <property name="kdenlive:audio_track">1</property>
  <blank length="6158"/>
  <entry producer="5_playlist15_audio" in="0" out="441">
   <filter id="fadeout" in="416" out="441">
    <property name="window">75</property>
    <property name="max_gain">20dB</property>
    <property name="mlt_service">volume</property>
    <property name="kdenlive_id">fadeout</property>
    <property name="tag">volume</property>
    <property name="kdenlive_ix">1</property>
    <property name="gain">1</property>
    <property name="end">0</property>
   </filter>
  </entry>
  <blank length="30904"/>
  <entry producer="5_playlist15_audio" in="31346" out="32171">
   <filter id="fadein" in="31346" out="31378">
    <property name="window">75</property>
    <property name="max_gain">20dB</property>
    <property name="mlt_service">volume</property>
    <property name="kdenlive_id">fadein</property>
    <property name="tag">volume</property>
    <property name="kdenlive_ix">1</property>
    <property name="gain">0</property>
    <property name="end">1</property>
    <property name="kdenlive_info"/>
   </filter>
  </entry>
 </playlist>
 <playlist id="playlist2">
  <property name="kdenlive:audio_track">1</property>
  <property name="kdenlive:track_name">Audio 1</property>
 </playlist>
 <producer title="Anonymous Submission" id="5_video" in="0" out="32219">
  <property name="length">00:08:57:32</property>
  <property name="eof">pause</property>
  <property name="resource">/media/bordun/plagiat2/2019-12-07_Plagiat_ViktorHuguauEnFranceAfrik/MVI_0006.MP4</property>
  <property name="audio_index">-1</property>
  <property name="video_index">0</property>
  <property name="mute_on_pause">1</property>
  <property name="mlt_service">avformat-novalidate</property>
  <property name="seekable">1</property>
  <property name="aspect_ratio">1</property>
  <property name="kdenlive:file_size">2336582847</property>
  <property name="kdenlive:file_hash">ea5ed975634d71aeac30997d1672cbef</property>
  <property name="global_feed">1</property>
  <property name="kdenlive:zone_in">0</property>
  <property name="kdenlive:zone_out">32172</property>
  <property name="kdenlive:clipname">PIGS</property>
  <property name="kdenlive:folderid">4</property>
  <property name="xml">was here</property>
  <property name="meta.media.nb_streams">3</property>
  <property name="meta.media.0.stream.type">video</property>
  <property name="meta.media.0.stream.frame_rate">59,9401</property>
  <property name="meta.media.0.stream.sample_aspect_ratio">0</property>
  <property name="meta.media.0.codec.width">1920</property>
  <property name="meta.media.0.codec.height">1080</property>
  <property name="meta.media.0.codec.rotate">0</property>
  <property name="meta.media.0.codec.frame_rate">60000</property>
  <property name="meta.media.0.codec.pix_fmt">yuv420p</property>
  <property name="meta.media.0.codec.sample_aspect_ratio">0</property>
  <property name="meta.media.0.codec.colorspace">709</property>
  <property name="meta.media.0.codec.color_trc">1</property>
  <property name="meta.media.0.codec.name">h264</property>
  <property name="meta.media.0.codec.long_name">H.264 / AVC / MPEG-4 AVC / MPEG-4 part 10</property>
  <property name="meta.media.0.codec.bit_rate">34503736</property>
  <property name="meta.attr.0.stream.creation_time.markup">2019-12-07T15:41:31.000000Z</property>
  <property name="meta.attr.0.stream.language.markup">eng</property>
  <property name="meta.media.1.stream.type">audio</property>
  <property name="meta.media.1.codec.sample_fmt">fltp</property>
  <property name="meta.media.1.codec.sample_rate">48000</property>
  <property name="meta.media.1.codec.channels">2</property>
  <property name="meta.media.1.codec.name">aac</property>
  <property name="meta.media.1.codec.long_name">AAC (Advanced Audio Coding)</property>
  <property name="meta.media.1.codec.bit_rate">254868</property>
  <property name="meta.attr.1.stream.creation_time.markup">2019-12-07T15:41:31.000000Z</property>
  <property name="meta.attr.1.stream.language.markup">eng</property>
  <property name="meta.attr.major_brand.markup">mp42</property>
  <property name="meta.attr.minor_version.markup">1</property>
  <property name="meta.attr.compatible_brands.markup">mp42avc1CAEP</property>
  <property name="meta.attr.creation_time.markup">2019-12-07T15:41:31.000000Z</property>
  <property name="meta.attr.timecode.markup">15:40:30;20</property>
  <property name="meta.media.sample_aspect_num">1</property>
  <property name="meta.media.sample_aspect_den">1</property>
  <property name="meta.media.frame_rate_num">60000</property>
  <property name="meta.media.frame_rate_den">1001</property>
  <property name="meta.media.colorspace">709</property>
  <property name="meta.media.color_trc">1</property>
  <property name="meta.media.width">1920</property>
  <property name="meta.media.height">1080</property>
  <property name="meta.media.top_field_first">0</property>
  <property name="meta.media.progressive">1</property>
 </producer>
 <producer title="Anonymous Submission" id="5_playlist3" in="0" out="32219">
  <property name="length">00:08:57:32</property>
  <property name="eof">pause</property>
  <property name="resource">/media/bordun/plagiat2/2019-12-07_Plagiat_ViktorHuguauEnFranceAfrik/MVI_0006.MP4</property>
  <property name="audio_index">1</property>
  <property name="video_index">0</property>
  <property name="mute_on_pause">1</property>
  <property name="mlt_service">avformat-novalidate</property>
  <property name="seekable">1</property>
  <property name="aspect_ratio">1</property>
  <property name="kdenlive:file_size">2336582847</property>
  <property name="kdenlive:file_hash">ea5ed975634d71aeac30997d1672cbef</property>
  <property name="global_feed">1</property>
  <property name="kdenlive:zone_in">0</property>
  <property name="kdenlive:zone_out">32220</property>
  <property name="kdenlive:clipname">PIGS</property>
  <property name="kdenlive:folderid">4</property>
  <property name="xml">was here</property>
  <property name="meta.media.nb_streams">3</property>
  <property name="meta.media.0.stream.type">video</property>
  <property name="meta.media.0.stream.frame_rate">59,9401</property>
  <property name="meta.media.0.stream.sample_aspect_ratio">0</property>
  <property name="meta.media.0.codec.width">1920</property>
  <property name="meta.media.0.codec.height">1080</property>
  <property name="meta.media.0.codec.rotate">0</property>
  <property name="meta.media.0.codec.frame_rate">60000</property>
  <property name="meta.media.0.codec.pix_fmt">yuv420p</property>
  <property name="meta.media.0.codec.sample_aspect_ratio">0</property>
  <property name="meta.media.0.codec.colorspace">709</property>
  <property name="meta.media.0.codec.color_trc">1</property>
  <property name="meta.media.0.codec.name">h264</property>
  <property name="meta.media.0.codec.long_name">H.264 / AVC / MPEG-4 AVC / MPEG-4 part 10</property>
  <property name="meta.media.0.codec.bit_rate">34503736</property>
  <property name="meta.attr.0.stream.creation_time.markup">2019-12-07T15:41:31.000000Z</property>
  <property name="meta.attr.0.stream.language.markup">eng</property>
  <property name="meta.media.1.stream.type">audio</property>
  <property name="meta.media.1.codec.sample_fmt">fltp</property>
  <property name="meta.media.1.codec.sample_rate">48000</property>
  <property name="meta.media.1.codec.channels">2</property>
  <property name="meta.media.1.codec.name">aac</property>
  <property name="meta.media.1.codec.long_name">AAC (Advanced Audio Coding)</property>
  <property name="meta.media.1.codec.bit_rate">254868</property>
  <property name="meta.attr.1.stream.creation_time.markup">2019-12-07T15:41:31.000000Z</property>
  <property name="meta.attr.1.stream.language.markup">eng</property>
  <property name="meta.attr.major_brand.markup">mp42</property>
  <property name="meta.attr.minor_version.markup">1</property>
  <property name="meta.attr.compatible_brands.markup">mp42avc1CAEP</property>
  <property name="meta.attr.creation_time.markup">2019-12-07T15:41:31.000000Z</property>
  <property name="meta.attr.timecode.markup">15:40:30;20</property>
  <property name="meta.media.sample_aspect_num">1</property>
  <property name="meta.media.sample_aspect_den">1</property>
  <property name="meta.media.frame_rate_num">60000</property>
  <property name="meta.media.frame_rate_den">1001</property>
  <property name="meta.media.colorspace">709</property>
  <property name="meta.media.color_trc">1</property>
  <property name="meta.media.width">1920</property>
  <property name="meta.media.height">1080</property>
  <property name="meta.media.top_field_first">0</property>
  <property name="meta.media.progressive">1</property>
 </producer>
 <playlist id="playlist3">
  <property name="kdenlive:track_name">Video 1</property>
  <blank length="6158"/>
  <entry producer="5_video" in="0" out="3408"/>
  <entry producer="5_video" in="3409" out="6511"/>
  <entry producer="5_playlist3" in="6512" out="7002">
   <filter id="pan_zoom" in="6512" out="7002">
    <property name="background">colour:0x00000000</property>
    <property name="mlt_service">affine</property>
    <property name="kdenlive_id">pan_zoom</property>
    <property name="tag">affine</property>
    <property name="kdenlive_ix">1</property>
    <property name="transition.geometry">-192/0:2112x1188:100</property>
    <property name="transition.distort">0</property>
    <property name="kdenlive:sync_in_out">1</property>
    <property name="kdenlive_info"/>
   </filter>
  </entry>
  <entry producer="5_playlist3" in="7003" out="7463"/>
  <blank length="24"/>
  <entry producer="5_playlist3" in="7488" out="7844"/>
  <blank length="25"/>
  <entry producer="5_playlist3" in="7870" out="9168"/>
  <entry producer="5_playlist3" in="9167" out="10327"/>
  <entry producer="5_video" in="10330" out="32171"/>
  <filter id="volume">
   <property name="window">75</property>
   <property name="max_gain">20dB</property>
   <property name="level">0=-12</property>
   <property name="mlt_service">volume</property>
   <property name="kdenlive_id">volume</property>
   <property name="tag">volume</property>
   <property name="kdenlive_ix">1</property>
   <property name="kdenlive_info"/>
   <property name="disable">0</property>
  </filter>
  <filter id="frei0r.saturat0r">
   <property name="version">0,3</property>
   <property name="mlt_service">frei0r.saturat0r</property>
   <property name="kdenlive_id">frei0r.saturat0r</property>
   <property name="tag">frei0r.saturat0r</property>
   <property name="kdenlive_ix">2</property>
   <property name="kdenlive_info">1/0/Effect Group</property>
   <property name="Saturation">0=0,001</property>
   <property name="disable">1</property>
  </filter>
  <filter id="filter0">
   <property name="version">0,3</property>
   <property name="mlt_service">frei0r.levels</property>
   <property name="kdenlive_id">frei0r.levels</property>
   <property name="tag">frei0r.levels</property>
   <property name="kdenlive_ix">3</property>
   <property name="kdenlive_info">0/0/Effect Group</property>
   <property name="Channel">0,3</property>
   <property name="Input black level">0=0,14</property>
   <property name="Input white level">0=0,849</property>
   <property name="Gamma">0=0,25</property>
   <property name="Black output">0=0</property>
   <property name="White output">0=0,925</property>
   <property name="Show histogram">0</property>
   <property name="Histogram position">0,3</property>
   <property name="disable">1</property>
  </filter>
 </playlist>
 <producer title="Anonymous Submission" id="4_playlist4" in="0" out="31379">
  <property name="length">00:08:43:31</property>
  <property name="eof">pause</property>
  <property name="resource">/media/bordun/plagiat2/2019-12-07_Plagiat_ViktorHuguauEnFranceAfrik/MVI_0005.MP4</property>
  <property name="audio_index">1</property>
  <property name="video_index">0</property>
  <property name="mute_on_pause">1</property>
  <property name="mlt_service">avformat-novalidate</property>
  <property name="seekable">1</property>
  <property name="aspect_ratio">1</property>
  <property name="kdenlive:file_size">2278217789</property>
  <property name="kdenlive:file_hash">3e6b32f51161f2e8787b9ca2d8acbabb</property>
  <property name="global_feed">1</property>
  <property name="kdenlive:clipname">MISSY</property>
  <property name="kdenlive:folderid">4</property>
  <property name="kdenlive:zone_in">650</property>
  <property name="kdenlive:zone_out">1167</property>
  <property name="xml">was here</property>
  <property name="meta.media.nb_streams">3</property>
  <property name="meta.media.0.stream.type">video</property>
  <property name="meta.media.0.stream.frame_rate">59,9401</property>
  <property name="meta.media.0.stream.sample_aspect_ratio">0</property>
  <property name="meta.media.0.codec.width">1920</property>
  <property name="meta.media.0.codec.height">1080</property>
  <property name="meta.media.0.codec.rotate">0</property>
  <property name="meta.media.0.codec.frame_rate">60000</property>
  <property name="meta.media.0.codec.pix_fmt">yuv420p</property>
  <property name="meta.media.0.codec.sample_aspect_ratio">0</property>
  <property name="meta.media.0.codec.colorspace">709</property>
  <property name="meta.media.0.codec.color_trc">1</property>
  <property name="meta.media.0.codec.name">h264</property>
  <property name="meta.media.0.codec.long_name">H.264 / AVC / MPEG-4 AVC / MPEG-4 part 10</property>
  <property name="meta.media.0.codec.bit_rate">34542459</property>
  <property name="meta.attr.0.stream.creation_time.markup">2019-12-07T15:24:18.000000Z</property>
  <property name="meta.attr.0.stream.language.markup">eng</property>
  <property name="meta.media.1.stream.type">audio</property>
  <property name="meta.media.1.codec.sample_fmt">fltp</property>
  <property name="meta.media.1.codec.sample_rate">48000</property>
  <property name="meta.media.1.codec.channels">2</property>
  <property name="meta.media.1.codec.name">aac</property>
  <property name="meta.media.1.codec.long_name">AAC (Advanced Audio Coding)</property>
  <property name="meta.media.1.codec.bit_rate">254873</property>
  <property name="meta.attr.1.stream.creation_time.markup">2019-12-07T15:24:18.000000Z</property>
  <property name="meta.attr.1.stream.language.markup">eng</property>
  <property name="meta.attr.major_brand.markup">mp42</property>
  <property name="meta.attr.minor_version.markup">1</property>
  <property name="meta.attr.compatible_brands.markup">mp42avc1CAEP</property>
  <property name="meta.attr.creation_time.markup">2019-12-07T15:24:18.000000Z</property>
  <property name="meta.attr.timecode.markup">15:23:17;02</property>
  <property name="meta.media.sample_aspect_num">1</property>
  <property name="meta.media.sample_aspect_den">1</property>
  <property name="meta.media.frame_rate_num">60000</property>
  <property name="meta.media.frame_rate_den">1001</property>
  <property name="meta.media.colorspace">709</property>
  <property name="meta.media.color_trc">1</property>
  <property name="meta.media.width">1920</property>
  <property name="meta.media.height">1080</property>
  <property name="meta.media.top_field_first">0</property>
  <property name="meta.media.progressive">1</property>
 </producer>
 <producer title="Anonymous Submission" id="producer0" in="0" out="31379">
  <property name="length">00:08:43:31</property>
  <property name="eof">pause</property>
  <property name="resource">/media/bordun/plagiat2/2019-12-07_Plagiat_ViktorHuguauEnFranceAfrik/MVI_0005.MP4</property>
  <property name="audio_index">-1</property>
  <property name="video_index">-1</property>
  <property name="mute_on_pause">1</property>
  <property name="mlt_service">avformat-novalidate</property>
  <property name="seekable">1</property>
  <property name="aspect_ratio">1</property>
  <property name="kdenlive:file_size">2278217789</property>
  <property name="kdenlive:file_hash">3e6b32f51161f2e8787b9ca2d8acbabb</property>
  <property name="global_feed">1</property>
  <property name="kdenlive:clipname">MISSY</property>
  <property name="kdenlive:folderid">4</property>
  <property name="kdenlive:zone_in">650</property>
  <property name="kdenlive:zone_out">1167</property>
  <property name="xml">was here</property>
  <property name="kdenlive:binid">4</property>
  <property name="kdenlive:clipstate">0</property>
 </producer>
 <producer title="Anonymous Submission" id="33_playlist4" in="0" out="31379">
  <property name="length">00:08:43:31</property>
  <property name="eof">pause</property>
  <property name="resource">/media/bordun/plagiat2/2019-12-07_Plagiat_ViktorHuguauEnFranceAfrik/MVI_0005.MP4</property>
  <property name="audio_index">1</property>
  <property name="video_index">0</property>
  <property name="mute_on_pause">1</property>
  <property name="mlt_service">avformat-novalidate</property>
  <property name="seekable">1</property>
  <property name="aspect_ratio">1</property>
  <property name="kdenlive:file_size">2278217789</property>
  <property name="kdenlive:file_hash">3e6b32f51161f2e8787b9ca2d8acbabb</property>
  <property name="global_feed">1</property>
  <property name="kdenlive:clipname">MISSY (bug balance des blancs)</property>
  <property name="kdenlive:folderid">4</property>
  <property name="xml">was here</property>
  <property name="meta.media.nb_streams">3</property>
  <property name="meta.media.0.stream.type">video</property>
  <property name="meta.media.0.stream.frame_rate">59,9401</property>
  <property name="meta.media.0.stream.sample_aspect_ratio">0</property>
  <property name="meta.media.0.codec.width">1920</property>
  <property name="meta.media.0.codec.height">1080</property>
  <property name="meta.media.0.codec.rotate">0</property>
  <property name="meta.media.0.codec.frame_rate">60000</property>
  <property name="meta.media.0.codec.pix_fmt">yuv420p</property>
  <property name="meta.media.0.codec.sample_aspect_ratio">0</property>
  <property name="meta.media.0.codec.colorspace">709</property>
  <property name="meta.media.0.codec.color_trc">1</property>
  <property name="meta.media.0.codec.name">h264</property>
  <property name="meta.media.0.codec.long_name">H.264 / AVC / MPEG-4 AVC / MPEG-4 part 10</property>
  <property name="meta.media.0.codec.bit_rate">34542459</property>
  <property name="meta.attr.0.stream.creation_time.markup">2019-12-07T15:24:18.000000Z</property>
  <property name="meta.attr.0.stream.language.markup">eng</property>
  <property name="meta.media.1.stream.type">audio</property>
  <property name="meta.media.1.codec.sample_fmt">fltp</property>
  <property name="meta.media.1.codec.sample_rate">48000</property>
  <property name="meta.media.1.codec.channels">2</property>
  <property name="meta.media.1.codec.name">aac</property>
  <property name="meta.media.1.codec.long_name">AAC (Advanced Audio Coding)</property>
  <property name="meta.media.1.codec.bit_rate">254873</property>
  <property name="meta.attr.1.stream.creation_time.markup">2019-12-07T15:24:18.000000Z</property>
  <property name="meta.attr.1.stream.language.markup">eng</property>
  <property name="meta.attr.major_brand.markup">mp42</property>
  <property name="meta.attr.minor_version.markup">1</property>
  <property name="meta.attr.compatible_brands.markup">mp42avc1CAEP</property>
  <property name="meta.attr.creation_time.markup">2019-12-07T15:24:18.000000Z</property>
  <property name="meta.attr.timecode.markup">15:23:17;02</property>
  <property name="meta.media.sample_aspect_num">1</property>
  <property name="meta.media.sample_aspect_den">1</property>
  <property name="meta.media.frame_rate_num">60000</property>
  <property name="meta.media.frame_rate_den">1001</property>
  <property name="meta.media.colorspace">709</property>
  <property name="meta.media.color_trc">1</property>
  <property name="meta.media.width">1920</property>
  <property name="meta.media.height">1080</property>
  <property name="meta.media.top_field_first">0</property>
  <property name="meta.media.progressive">1</property>
  <filter id="filter1">
   <property name="version">0,1</property>
   <property name="mlt_service">frei0r.colgate</property>
   <property name="kdenlive_id">frei0r.colgate</property>
   <property name="tag">frei0r.colgate</property>
   <property name="kdenlive_ix">1</property>
   <property name="kdenlive_info"/>
   <property name="Neutral Color">0x7f7f7fff</property>
   <property name="Color Temperature">0=0,366667</property>
  </filter>
 </producer>
 <playlist id="playlist4">
  <property name="kdenlive:track_name">Video 2</property>
  <blank length="7541"/>
  <entry producer="4_playlist4" in="650" out="926"/>
  <blank length="1974"/>
  <entry producer="4_playlist4" in="2901" out="3755"/>
  <blank length="153"/>
  <entry producer="4_playlist4" in="3909" out="4405"/>
  <blank length="177"/>
  <entry producer="4_playlist4" in="4583" out="4927"/>
  <blank length="413"/>
  <entry producer="4_playlist4" in="5341" out="5791"/>
  <blank length="3562"/>
  <entry producer="4_playlist4" in="9354" out="10588"/>
  <blank length="186"/>
  <entry producer="4_playlist4" in="10775" out="11753"/>
  <blank length="55"/>
  <entry producer="4_playlist4" in="11809" out="13527"/>
  <blank length="156"/>
  <entry producer="4_playlist4" in="13684" out="13882"/>
  <blank length="1372"/>
  <entry producer="producer0" in="15255" out="15456"/>
  <blank length="1703"/>
  <entry producer="4_playlist4" in="17160" out="18682"/>
  <blank length="768"/>
  <entry producer="4_playlist4" in="19451" out="20067"/>
  <blank length="236"/>
  <entry producer="4_playlist4" in="20304" out="20448"/>
  <blank length="103"/>
  <entry producer="4_playlist4" in="20552" out="20822"/>
  <entry producer="33_playlist4" in="20823" out="21146"/>
  <blank length="167"/>
  <entry producer="33_playlist4" in="21314" out="21489"/>
  <blank length="50"/>
  <entry producer="33_playlist4" in="21540" out="25162"/>
  <blank length="200"/>
  <entry producer="33_playlist4" in="25363" out="26011"/>
  <blank length="218"/>
  <entry producer="33_playlist4" in="26230" out="26630"/>
  <blank length="3398"/>
  <entry producer="33_playlist4" in="30029" out="31062"/>
 </playlist>
 <producer title="Anonymous Submission" id="10_playlist5" in="0" out="31649">
  <property name="length">00:08:48:01</property>
  <property name="eof">pause</property>
  <property name="resource">/media/bordun/plagiat2/2019-12-07_Plagiat_ViktorHuguauEnFranceAfrik/MVI_0011.MP4</property>
  <property name="audio_index">1</property>
  <property name="video_index">0</property>
  <property name="mute_on_pause">1</property>
  <property name="mlt_service">avformat-novalidate</property>
  <property name="seekable">1</property>
  <property name="aspect_ratio">1</property>
  <property name="kdenlive:file_size">2297907807</property>
  <property name="kdenlive:file_hash">9e6cb727583e14be47b42509c32c0c06</property>
  <property name="global_feed">1</property>
  <property name="kdenlive:clipname">MISSY 2</property>
  <property name="kdenlive:folderid">4</property>
  <property name="xml">was here</property>
  <property name="meta.media.nb_streams">3</property>
  <property name="meta.media.0.stream.type">video</property>
  <property name="meta.media.0.stream.frame_rate">59,9401</property>
  <property name="meta.media.0.stream.sample_aspect_ratio">0</property>
  <property name="meta.media.0.codec.width">1920</property>
  <property name="meta.media.0.codec.height">1080</property>
  <property name="meta.media.0.codec.rotate">0</property>
  <property name="meta.media.0.codec.frame_rate">60000</property>
  <property name="meta.media.0.codec.pix_fmt">yuv420p</property>
  <property name="meta.media.0.codec.sample_aspect_ratio">0</property>
  <property name="meta.media.0.codec.colorspace">709</property>
  <property name="meta.media.0.codec.color_trc">1</property>
  <property name="meta.media.0.codec.name">h264</property>
  <property name="meta.media.0.codec.long_name">H.264 / AVC / MPEG-4 AVC / MPEG-4 part 10</property>
  <property name="meta.media.0.codec.bit_rate">34543878</property>
  <property name="meta.attr.0.stream.creation_time.markup">2019-12-07T16:10:30.000000Z</property>
  <property name="meta.attr.0.stream.language.markup">eng</property>
  <property name="meta.media.1.stream.type">audio</property>
  <property name="meta.media.1.codec.sample_fmt">fltp</property>
  <property name="meta.media.1.codec.sample_rate">48000</property>
  <property name="meta.media.1.codec.channels">2</property>
  <property name="meta.media.1.codec.name">aac</property>
  <property name="meta.media.1.codec.long_name">AAC (Advanced Audio Coding)</property>
  <property name="meta.media.1.codec.bit_rate">254871</property>
  <property name="meta.attr.1.stream.creation_time.markup">2019-12-07T16:10:30.000000Z</property>
  <property name="meta.attr.1.stream.language.markup">eng</property>
  <property name="meta.attr.major_brand.markup">mp42</property>
  <property name="meta.attr.minor_version.markup">1</property>
  <property name="meta.attr.compatible_brands.markup">mp42avc1CAEP</property>
  <property name="meta.attr.creation_time.markup">2019-12-07T16:10:30.000000Z</property>
  <property name="meta.attr.timecode.markup">16:09:29;38</property>
  <property name="meta.media.sample_aspect_num">1</property>
  <property name="meta.media.sample_aspect_den">1</property>
  <property name="meta.media.frame_rate_num">60000</property>
  <property name="meta.media.frame_rate_den">1001</property>
  <property name="meta.media.colorspace">709</property>
  <property name="meta.media.color_trc">1</property>
  <property name="meta.media.width">1920</property>
  <property name="meta.media.height">1080</property>
  <property name="meta.media.top_field_first">0</property>
  <property name="meta.media.progressive">1</property>
 </producer>
 <producer id="slowmotion:10:1,5:1:0" in="0" out="21099">
  <property name="length">21100</property>
  <property name="eof">pause</property>
  <property name="resource">1,5:/media/bordun/plagiat2/2019-12-07_Plagiat_ViktorHuguauEnFranceAfrik/MVI_0011.MP4</property>
  <property name="aspect_ratio">1</property>
  <property name="meta.media.nb_streams">3</property>
  <property name="meta.media.0.stream.type">video</property>
  <property name="meta.media.0.stream.frame_rate">59,9401</property>
  <property name="meta.media.0.stream.sample_aspect_ratio">0</property>
  <property name="meta.media.0.codec.width">1920</property>
  <property name="meta.media.0.codec.height">1080</property>
  <property name="meta.media.0.codec.rotate">0</property>
  <property name="meta.media.0.codec.frame_rate">60000</property>
  <property name="meta.media.0.codec.pix_fmt">yuv420p</property>
  <property name="meta.media.0.codec.sample_aspect_ratio">0</property>
  <property name="meta.media.0.codec.colorspace">709</property>
  <property name="meta.media.0.codec.color_trc">1</property>
  <property name="meta.media.0.codec.name">h264</property>
  <property name="meta.media.0.codec.long_name">H.264 / AVC / MPEG-4 AVC / MPEG-4 part 10</property>
  <property name="meta.media.0.codec.bit_rate">34543878</property>
  <property name="meta.attr.0.stream.creation_time.markup">2019-12-07T16:10:30.000000Z</property>
  <property name="meta.attr.0.stream.language.markup">eng</property>
  <property name="meta.media.1.stream.type">audio</property>
  <property name="meta.media.1.codec.sample_fmt">fltp</property>
  <property name="meta.media.1.codec.sample_rate">48000</property>
  <property name="meta.media.1.codec.channels">2</property>
  <property name="meta.media.1.codec.name">aac</property>
  <property name="meta.media.1.codec.long_name">AAC (Advanced Audio Coding)</property>
  <property name="meta.media.1.codec.bit_rate">254871</property>
  <property name="meta.attr.1.stream.creation_time.markup">2019-12-07T16:10:30.000000Z</property>
  <property name="meta.attr.1.stream.language.markup">eng</property>
  <property name="meta.attr.major_brand.markup">mp42</property>
  <property name="meta.attr.minor_version.markup">1</property>
  <property name="meta.attr.compatible_brands.markup">mp42avc1CAEP</property>
  <property name="meta.attr.creation_time.markup">2019-12-07T16:10:30.000000Z</property>
  <property name="meta.attr.timecode.markup">16:09:29;38</property>
  <property name="seekable">1</property>
  <property name="meta.media.sample_aspect_num">1</property>
  <property name="meta.media.sample_aspect_den">1</property>
  <property name="audio_index">1</property>
  <property name="video_index">0</property>
  <property name="mute_on_pause">1</property>
  <property name="warp_speed">1,5</property>
  <property name="warp_resource">/media/bordun/plagiat2/2019-12-07_Plagiat_ViktorHuguauEnFranceAfrik/MVI_0011.MP4</property>
  <property name="mlt_service">timewarp</property>
  <property name="meta.media.frame_rate_num">60000</property>
  <property name="meta.media.frame_rate_den">1001</property>
  <property name="meta.media.colorspace">709</property>
  <property name="meta.media.color_trc">1</property>
  <property name="meta.media.width">1920</property>
  <property name="meta.media.height">1080</property>
  <property name="meta.media.top_field_first">0</property>
  <property name="meta.media.progressive">1</property>
 </producer>
 <producer id="slowmotion:3:0,84:1:0" in="0" out="38713">
  <property name="length">38714</property>
  <property name="eof">pause</property>
  <property name="resource">0,84:/media/bordun/plagiat2/2019-12-07_Plagiat_ViktorHuguauEnFranceAfrik/MVI_0004.MP4</property>
  <property name="aspect_ratio">1</property>
  <property name="meta.media.nb_streams">3</property>
  <property name="meta.media.0.stream.type">video</property>
  <property name="meta.media.0.stream.frame_rate">59,9401</property>
  <property name="meta.media.0.stream.sample_aspect_ratio">0</property>
  <property name="meta.media.0.codec.width">1920</property>
  <property name="meta.media.0.codec.height">1080</property>
  <property name="meta.media.0.codec.rotate">0</property>
  <property name="meta.media.0.codec.frame_rate">60000</property>
  <property name="meta.media.0.codec.pix_fmt">yuv420p</property>
  <property name="meta.media.0.codec.sample_aspect_ratio">0</property>
  <property name="meta.media.0.codec.colorspace">709</property>
  <property name="meta.media.0.codec.color_trc">1</property>
  <property name="meta.media.0.codec.name">h264</property>
  <property name="meta.media.0.codec.long_name">H.264 / AVC / MPEG-4 AVC / MPEG-4 part 10</property>
  <property name="meta.media.0.codec.bit_rate">34535706</property>
  <property name="meta.attr.0.stream.creation_time.markup">2019-12-07T15:11:12.000000Z</property>
  <property name="meta.attr.0.stream.language.markup">eng</property>
  <property name="meta.media.1.stream.type">audio</property>
  <property name="meta.media.1.codec.sample_fmt">fltp</property>
  <property name="meta.media.1.codec.sample_rate">48000</property>
  <property name="meta.media.1.codec.channels">2</property>
  <property name="meta.media.1.codec.name">aac</property>
  <property name="meta.media.1.codec.long_name">AAC (Advanced Audio Coding)</property>
  <property name="meta.media.1.codec.bit_rate">254870</property>
  <property name="meta.attr.1.stream.creation_time.markup">2019-12-07T15:11:12.000000Z</property>
  <property name="meta.attr.1.stream.language.markup">eng</property>
  <property name="meta.attr.major_brand.markup">mp42</property>
  <property name="meta.attr.minor_version.markup">1</property>
  <property name="meta.attr.compatible_brands.markup">mp42avc1CAEP</property>
  <property name="meta.attr.creation_time.markup">2019-12-07T15:11:12.000000Z</property>
  <property name="meta.attr.timecode.markup">15:10:11;34</property>
  <property name="seekable">1</property>
  <property name="meta.media.sample_aspect_num">1</property>
  <property name="meta.media.sample_aspect_den">1</property>
  <property name="audio_index">1</property>
  <property name="video_index">0</property>
  <property name="mute_on_pause">1</property>
  <property name="warp_speed">0,84</property>
  <property name="warp_resource">/media/bordun/plagiat2/2019-12-07_Plagiat_ViktorHuguauEnFranceAfrik/MVI_0004.MP4</property>
  <property name="mlt_service">timewarp</property>
  <property name="meta.media.frame_rate_num">60000</property>
  <property name="meta.media.frame_rate_den">1001</property>
  <property name="meta.media.colorspace">709</property>
  <property name="meta.media.color_trc">1</property>
  <property name="meta.media.width">1920</property>
  <property name="meta.media.height">1080</property>
  <property name="meta.media.top_field_first">0</property>
  <property name="meta.media.progressive">1</property>
 </producer>
 <playlist id="playlist5">
  <property name="kdenlive:track_name">Video 3</property>
  <blank length="7937"/>
  <entry producer="10_playlist5" in="1046" out="1456"/>
  <blank length="53"/>
  <entry producer="10_playlist5" in="1510" out="1634"/>
  <blank length="92"/>
  <entry producer="10_playlist5" in="1727" out="1983"/>
  <blank length="1292"/>
  <entry producer="10_playlist5" in="3276" out="3509"/>
  <blank length="534"/>
  <entry producer="10_playlist5" in="4044" out="4405"/>
  <entry producer="10_playlist5" in="4406" out="4811"/>
  <blank length="2716"/>
  <entry producer="10_playlist5" in="7528" out="8488"/>
  <blank length="653"/>
  <entry producer="10_playlist5" in="9142" out="9391"/>
  <blank length="291"/>
  <entry producer="10_playlist5" in="9683" out="9985"/>
  <blank length="1147"/>
  <entry producer="10_playlist5" in="11136" out="11525"/>
  <entry producer="slowmotion:10:1,5:1:0" in="7684" out="7701"/>
  <blank length="209"/>
  <entry producer="10_playlist5" in="11750" out="11869"/>
  <blank length="1765"/>
  <entry producer="10_playlist5" in="13635" out="13882"/>
  <blank length="4206"/>
  <entry producer="10_playlist5" in="18089" out="18837"/>
  <blank length="322"/>
  <entry producer="10_playlist5" in="19160" out="19388"/>
  <blank length="859"/>
  <entry producer="10_playlist5" in="20248" out="20479"/>
  <blank length="3009"/>
  <entry producer="10_playlist5" in="23489" out="23875"/>
  <blank length="865"/>
  <entry producer="10_playlist5" in="24741" out="25265"/>
  <blank length="97"/>
  <entry producer="10_playlist5" in="25363" out="25740"/>
  <blank length="2419"/>
  <entry producer="10_playlist5" in="28160" out="29148"/>
  <blank length="3"/>
  <entry producer="10_playlist5" in="29177" out="29327"/>
  <blank length="308"/>
  <entry producer="slowmotion:3:0,84:1:0" in="36395" out="36489"/>
  <blank length="1018"/>
  <entry producer="10_playlist5" in="30683" out="31133"/>
 </playlist>
 <producer title="Anonymous Submission" id="11_playlist0" in="0" out="1649">
  <property name="length">00:00:27:31</property>
  <property name="eof">pause</property>
  <property name="resource">/media/bordun/plagiat2/2019-12-07_Plagiat_ViktorHuguauEnFranceAfrik/MVI_0012.MP4</property>
  <property name="audio_index">1</property>
  <property name="video_index">0</property>
  <property name="mute_on_pause">1</property>
  <property name="mlt_service">avformat-novalidate</property>
  <property name="seekable">1</property>
  <property name="aspect_ratio">1</property>
  <property name="kdenlive:file_size">119186092</property>
  <property name="kdenlive:file_hash">7589488cf8bf60e78d189ae4fc0de213</property>
  <property name="global_feed">1</property>
  <property name="kdenlive:folderid">1</property>
  <property name="xml">was here</property>
  <property name="meta.media.nb_streams">3</property>
  <property name="meta.media.0.stream.type">video</property>
  <property name="meta.media.0.stream.frame_rate">59,9401</property>
  <property name="meta.media.0.stream.sample_aspect_ratio">0</property>
  <property name="meta.media.0.codec.width">1920</property>
  <property name="meta.media.0.codec.height">1080</property>
  <property name="meta.media.0.codec.rotate">0</property>
  <property name="meta.media.0.codec.frame_rate">60000</property>
  <property name="meta.media.0.codec.pix_fmt">yuv420p</property>
  <property name="meta.media.0.codec.sample_aspect_ratio">0</property>
  <property name="meta.media.0.codec.colorspace">709</property>
  <property name="meta.media.0.codec.color_trc">1</property>
  <property name="meta.media.0.codec.name">h264</property>
  <property name="meta.media.0.codec.long_name">H.264 / AVC / MPEG-4 AVC / MPEG-4 part 10</property>
  <property name="meta.media.0.codec.bit_rate">34300395</property>
  <property name="meta.attr.0.stream.creation_time.markup">2019-12-07T16:49:30.000000Z</property>
  <property name="meta.attr.0.stream.language.markup">eng</property>
  <property name="meta.media.1.stream.type">audio</property>
  <property name="meta.media.1.codec.sample_fmt">fltp</property>
  <property name="meta.media.1.codec.sample_rate">48000</property>
  <property name="meta.media.1.codec.channels">2</property>
  <property name="meta.media.1.codec.name">aac</property>
  <property name="meta.media.1.codec.long_name">AAC (Advanced Audio Coding)</property>
  <property name="meta.media.1.codec.bit_rate">254870</property>
  <property name="meta.attr.1.stream.creation_time.markup">2019-12-07T16:49:30.000000Z</property>
  <property name="meta.attr.1.stream.language.markup">eng</property>
  <property name="meta.attr.major_brand.markup">mp42</property>
  <property name="meta.attr.minor_version.markup">1</property>
  <property name="meta.attr.compatible_brands.markup">mp42avc1CAEP</property>
  <property name="meta.attr.creation_time.markup">2019-12-07T16:49:30.000000Z</property>
  <property name="meta.attr.timecode.markup">16:48:29;24</property>
  <property name="meta.media.sample_aspect_num">1</property>
  <property name="meta.media.sample_aspect_den">1</property>
  <property name="meta.media.frame_rate_num">60000</property>
  <property name="meta.media.frame_rate_den">1001</property>
  <property name="meta.media.colorspace">709</property>
  <property name="meta.media.color_trc">1</property>
  <property name="meta.media.width">1920</property>
  <property name="meta.media.height">1080</property>
  <property name="meta.media.top_field_first">0</property>
  <property name="meta.media.progressive">1</property>
  <filter id="filter2">
   <property name="version">0,3</property>
   <property name="mlt_service">frei0r.levels</property>
   <property name="kdenlive_id">frei0r.levels</property>
   <property name="tag">frei0r.levels</property>
   <property name="kdenlive_ix">1</property>
   <property name="kdenlive_info"/>
   <property name="Channel">0,3</property>
   <property name="Input black level">0=0,043</property>
   <property name="Input white level">0=0,615</property>
   <property name="Gamma">0=0,25</property>
   <property name="Black output">0=0</property>
   <property name="White output">0=1</property>
   <property name="Show histogram">0</property>
   <property name="Histogram position">0,3</property>
  </filter>
 </producer>
 <producer title="Anonymous Submission" id="3_playlist0" in="0" out="32519">
  <property name="length">00:09:02:33</property>
  <property name="eof">pause</property>
  <property name="resource">/media/bordun/plagiat2/2019-12-07_Plagiat_ViktorHuguauEnFranceAfrik/MVI_0004.MP4</property>
  <property name="audio_index">1</property>
  <property name="video_index">0</property>
  <property name="mute_on_pause">1</property>
  <property name="mlt_service">avformat-novalidate</property>
  <property name="seekable">1</property>
  <property name="aspect_ratio">1</property>
  <property name="kdenlive:file_size">2360500503</property>
  <property name="kdenlive:file_hash">5e7ce505f3b2122cec96cd3db10a9924</property>
  <property name="global_feed">1</property>
  <property name="kdenlive:clipname">NANO</property>
  <property name="kdenlive:folderid">4</property>
  <property name="xml">was here</property>
  <property name="meta.media.nb_streams">3</property>
  <property name="meta.media.0.stream.type">video</property>
  <property name="meta.media.0.stream.frame_rate">59,9401</property>
  <property name="meta.media.0.stream.sample_aspect_ratio">0</property>
  <property name="meta.media.0.codec.width">1920</property>
  <property name="meta.media.0.codec.height">1080</property>
  <property name="meta.media.0.codec.rotate">0</property>
  <property name="meta.media.0.codec.frame_rate">60000</property>
  <property name="meta.media.0.codec.pix_fmt">yuv420p</property>
  <property name="meta.media.0.codec.sample_aspect_ratio">0</property>
  <property name="meta.media.0.codec.colorspace">709</property>
  <property name="meta.media.0.codec.color_trc">1</property>
  <property name="meta.media.0.codec.name">h264</property>
  <property name="meta.media.0.codec.long_name">H.264 / AVC / MPEG-4 AVC / MPEG-4 part 10</property>
  <property name="meta.media.0.codec.bit_rate">34535706</property>
  <property name="meta.attr.0.stream.creation_time.markup">2019-12-07T15:11:12.000000Z</property>
  <property name="meta.attr.0.stream.language.markup">eng</property>
  <property name="meta.media.1.stream.type">audio</property>
  <property name="meta.media.1.codec.sample_fmt">fltp</property>
  <property name="meta.media.1.codec.sample_rate">48000</property>
  <property name="meta.media.1.codec.channels">2</property>
  <property name="meta.media.1.codec.name">aac</property>
  <property name="meta.media.1.codec.long_name">AAC (Advanced Audio Coding)</property>
  <property name="meta.media.1.codec.bit_rate">254870</property>
  <property name="meta.attr.1.stream.creation_time.markup">2019-12-07T15:11:12.000000Z</property>
  <property name="meta.attr.1.stream.language.markup">eng</property>
  <property name="meta.attr.major_brand.markup">mp42</property>
  <property name="meta.attr.minor_version.markup">1</property>
  <property name="meta.attr.compatible_brands.markup">mp42avc1CAEP</property>
  <property name="meta.attr.creation_time.markup">2019-12-07T15:11:12.000000Z</property>
  <property name="meta.attr.timecode.markup">15:10:11;34</property>
  <property name="meta.media.sample_aspect_num">1</property>
  <property name="meta.media.sample_aspect_den">1</property>
  <property name="meta.media.frame_rate_num">60000</property>
  <property name="meta.media.frame_rate_den">1001</property>
  <property name="meta.media.colorspace">709</property>
  <property name="meta.media.color_trc">1</property>
  <property name="meta.media.width">1920</property>
  <property name="meta.media.height">1080</property>
  <property name="meta.media.top_field_first">0</property>
  <property name="meta.media.progressive">1</property>
 </producer>
 <producer id="slowmotion:10:0,5:1:0" in="0" out="63299">
  <property name="length">63300</property>
  <property name="eof">pause</property>
  <property name="resource">0,5:/media/bordun/plagiat2/2019-12-07_Plagiat_ViktorHuguauEnFranceAfrik/MVI_0011.MP4</property>
  <property name="aspect_ratio">1</property>
  <property name="meta.media.nb_streams">3</property>
  <property name="meta.media.0.stream.type">video</property>
  <property name="meta.media.0.stream.frame_rate">59,9401</property>
  <property name="meta.media.0.stream.sample_aspect_ratio">0</property>
  <property name="meta.media.0.codec.width">1920</property>
  <property name="meta.media.0.codec.height">1080</property>
  <property name="meta.media.0.codec.rotate">0</property>
  <property name="meta.media.0.codec.frame_rate">60000</property>
  <property name="meta.media.0.codec.pix_fmt">yuv420p</property>
  <property name="meta.media.0.codec.sample_aspect_ratio">0</property>
  <property name="meta.media.0.codec.colorspace">709</property>
  <property name="meta.media.0.codec.color_trc">1</property>
  <property name="meta.media.0.codec.name">h264</property>
  <property name="meta.media.0.codec.long_name">H.264 / AVC / MPEG-4 AVC / MPEG-4 part 10</property>
  <property name="meta.media.0.codec.bit_rate">34543878</property>
  <property name="meta.attr.0.stream.creation_time.markup">2019-12-07T16:10:30.000000Z</property>
  <property name="meta.attr.0.stream.language.markup">eng</property>
  <property name="meta.media.1.stream.type">audio</property>
  <property name="meta.media.1.codec.sample_fmt">fltp</property>
  <property name="meta.media.1.codec.sample_rate">48000</property>
  <property name="meta.media.1.codec.channels">2</property>
  <property name="meta.media.1.codec.name">aac</property>
  <property name="meta.media.1.codec.long_name">AAC (Advanced Audio Coding)</property>
  <property name="meta.media.1.codec.bit_rate">254871</property>
  <property name="meta.attr.1.stream.creation_time.markup">2019-12-07T16:10:30.000000Z</property>
  <property name="meta.attr.1.stream.language.markup">eng</property>
  <property name="meta.attr.major_brand.markup">mp42</property>
  <property name="meta.attr.minor_version.markup">1</property>
  <property name="meta.attr.compatible_brands.markup">mp42avc1CAEP</property>
  <property name="meta.attr.creation_time.markup">2019-12-07T16:10:30.000000Z</property>
  <property name="meta.attr.timecode.markup">16:09:29;38</property>
  <property name="seekable">1</property>
  <property name="meta.media.sample_aspect_num">1</property>
  <property name="meta.media.sample_aspect_den">1</property>
  <property name="audio_index">1</property>
  <property name="video_index">0</property>
  <property name="mute_on_pause">1</property>
  <property name="warp_speed">0,5</property>
  <property name="warp_resource">/media/bordun/plagiat2/2019-12-07_Plagiat_ViktorHuguauEnFranceAfrik/MVI_0011.MP4</property>
  <property name="mlt_service">timewarp</property>
  <property name="meta.media.frame_rate_num">60000</property>
  <property name="meta.media.frame_rate_den">1001</property>
  <property name="meta.media.colorspace">709</property>
  <property name="meta.media.color_trc">1</property>
  <property name="meta.media.width">1920</property>
  <property name="meta.media.height">1080</property>
  <property name="meta.media.top_field_first">0</property>
  <property name="meta.media.progressive">1</property>
 </producer>
 <playlist id="playlist0">
  <property name="kdenlive:track_name">Video 4</property>
  <blank length="6600"/>
  <entry producer="11_playlist0" in="865" out="1039"/>
  <blank length="6299"/>
  <entry producer="3_playlist0" in="7129" out="7719"/>
  <blank length="3404"/>
  <entry producer="3_playlist0" in="11124" out="11174"/>
  <blank length="44"/>
  <entry producer="3_playlist0" in="11219" out="11262"/>
  <blank length="1492"/>
  <entry producer="3_playlist0" in="12755" out="13029"/>
  <blank length="392"/>
  <entry producer="3_playlist0" in="13422" out="13540"/>
  <blank length="125"/>
  <entry producer="3_playlist0" in="13666" out="13959"/>
  <blank length="621"/>
  <entry producer="slowmotion:10:0,5:1:0" in="27270" out="27568"/>
  <blank length="426"/>
  <entry producer="3_playlist0" in="15306" out="15545"/>
  <blank length="521"/>
  <entry producer="3_playlist0" in="16067" out="16308"/>
  <blank length="888"/>
  <entry producer="3_playlist0" in="17203" out="17489"/>
  <blank length="1971"/>
  <entry producer="3_playlist0" in="19455" out="19655"/>
  <blank length="336"/>
  <entry producer="3_playlist0" in="19992" out="20137"/>
  <blank length="1816"/>
  <entry producer="3_playlist0" in="21954" out="22259"/>
  <blank length="149"/>
  <entry producer="3_playlist0" in="22409" out="22485"/>
  <blank length="675"/>
  <entry producer="3_playlist0" in="23161" out="23537"/>
  <blank length="1284"/>
  <entry producer="3_playlist0" in="24822" out="24979"/>
  <blank length="352"/>
  <entry producer="3_playlist0" in="25332" out="25544"/>
  <blank length="764"/>
  <entry producer="3_playlist0" in="26309" out="26487"/>
  <blank length="199"/>
  <entry producer="3_playlist0" in="26687" out="26828"/>
  <blank length="1430"/>
  <entry producer="3_playlist0" in="28261" out="28679"/>
  <blank length="1818"/>
  <entry producer="3_playlist0" in="30511" out="30571"/>
  <blank length="95"/>
  <entry producer="3_playlist0" in="30652" out="30974"/>
  <blank length="126"/>
  <entry producer="3_playlist0" in="31101" out="31744"/>
 </playlist>
 <producer title="Anonymous Submission" id="3_playlist6" in="0" out="32519">
  <property name="length">00:09:02:33</property>
  <property name="eof">pause</property>
  <property name="resource">/media/bordun/plagiat2/2019-12-07_Plagiat_ViktorHuguauEnFranceAfrik/MVI_0004.MP4</property>
  <property name="audio_index">1</property>
  <property name="video_index">0</property>
  <property name="mute_on_pause">1</property>
  <property name="mlt_service">avformat-novalidate</property>
  <property name="seekable">1</property>
  <property name="aspect_ratio">1</property>
  <property name="kdenlive:file_size">2360500503</property>
  <property name="kdenlive:file_hash">5e7ce505f3b2122cec96cd3db10a9924</property>
  <property name="global_feed">1</property>
  <property name="kdenlive:clipname">NANO</property>
  <property name="kdenlive:folderid">4</property>
  <property name="xml">was here</property>
  <property name="meta.media.nb_streams">3</property>
  <property name="meta.media.0.stream.type">video</property>
  <property name="meta.media.0.stream.frame_rate">59,9401</property>
  <property name="meta.media.0.stream.sample_aspect_ratio">0</property>
  <property name="meta.media.0.codec.width">1920</property>
  <property name="meta.media.0.codec.height">1080</property>
  <property name="meta.media.0.codec.rotate">0</property>
  <property name="meta.media.0.codec.frame_rate">60000</property>
  <property name="meta.media.0.codec.pix_fmt">yuv420p</property>
  <property name="meta.media.0.codec.sample_aspect_ratio">0</property>
  <property name="meta.media.0.codec.colorspace">709</property>
  <property name="meta.media.0.codec.color_trc">1</property>
  <property name="meta.media.0.codec.name">h264</property>
  <property name="meta.media.0.codec.long_name">H.264 / AVC / MPEG-4 AVC / MPEG-4 part 10</property>
  <property name="meta.media.0.codec.bit_rate">34535706</property>
  <property name="meta.attr.0.stream.creation_time.markup">2019-12-07T15:11:12.000000Z</property>
  <property name="meta.attr.0.stream.language.markup">eng</property>
  <property name="meta.media.1.stream.type">audio</property>
  <property name="meta.media.1.codec.sample_fmt">fltp</property>
  <property name="meta.media.1.codec.sample_rate">48000</property>
  <property name="meta.media.1.codec.channels">2</property>
  <property name="meta.media.1.codec.name">aac</property>
  <property name="meta.media.1.codec.long_name">AAC (Advanced Audio Coding)</property>
  <property name="meta.media.1.codec.bit_rate">254870</property>
  <property name="meta.attr.1.stream.creation_time.markup">2019-12-07T15:11:12.000000Z</property>
  <property name="meta.attr.1.stream.language.markup">eng</property>
  <property name="meta.attr.major_brand.markup">mp42</property>
  <property name="meta.attr.minor_version.markup">1</property>
  <property name="meta.attr.compatible_brands.markup">mp42avc1CAEP</property>
  <property name="meta.attr.creation_time.markup">2019-12-07T15:11:12.000000Z</property>
  <property name="meta.attr.timecode.markup">15:10:11;34</property>
  <property name="meta.media.sample_aspect_num">1</property>
  <property name="meta.media.sample_aspect_den">1</property>
  <property name="meta.media.frame_rate_num">60000</property>
  <property name="meta.media.frame_rate_den">1001</property>
  <property name="meta.media.colorspace">709</property>
  <property name="meta.media.color_trc">1</property>
  <property name="meta.media.width">1920</property>
  <property name="meta.media.height">1080</property>
  <property name="meta.media.top_field_first">0</property>
  <property name="meta.media.progressive">1</property>
 </producer>
 <playlist id="playlist6">
  <property name="kdenlive:track_name">Video 5</property>
  <blank length="6769"/>
  <entry producer="3_playlist6" in="532" out="768"/>
  <blank length="10671"/>
  <entry producer="3_playlist6" in="11700" out="11828"/>
  <blank length="3453"/>
  <entry producer="3_playlist6" in="14934" out="15175"/>
  <blank length="1694"/>
  <entry producer="3_playlist6" in="17256" out="17264">
   <filter id="filter3" in="17256" out="17264">
    <property name="background">colour:0x00000000</property>
    <property name="mlt_service">affine</property>
    <property name="kdenlive_id">pan_zoom</property>
    <property name="tag">affine</property>
    <property name="kdenlive_ix">1</property>
    <property name="transition.geometry">-192/0:2304x1296:100</property>
    <property name="transition.distort">0</property>
    <property name="kdenlive:sync_in_out">1</property>
    <property name="kdenlive_info"/>
   </filter>
  </entry>
  <entry producer="3_playlist6" in="17265" out="17271">
   <filter id="filter4" in="17265" out="17274">
    <property name="background">colour:0x00000000</property>
    <property name="mlt_service">affine</property>
    <property name="kdenlive_id">pan_zoom</property>
    <property name="tag">affine</property>
    <property name="kdenlive_ix">1</property>
    <property name="transition.geometry">-639/-6:3072x1728:100</property>
    <property name="transition.distort">0</property>
    <property name="kdenlive:sync_in_out">1</property>
    <property name="kdenlive_info"/>
    <property name="disable"/>
   </filter>
  </entry>
  <entry producer="3_playlist6" in="17272" out="17454">
   <filter id="filter5" in="17272" out="17454">
    <property name="background">colour:0x00000000</property>
    <property name="mlt_service">affine</property>
    <property name="kdenlive_id">pan_zoom</property>
    <property name="tag">affine</property>
    <property name="kdenlive_ix">1</property>
    <property name="transition.geometry">-1106/-21:3840x2160:100</property>
    <property name="transition.distort">0</property>
    <property name="kdenlive:sync_in_out">1</property>
    <property name="kdenlive_info"/>
   </filter>
  </entry>
  <blank length="7218"/>
  <entry producer="3_playlist6" in="24667" out="24764"/>
 </playlist>
 <producer title="Anonymous Submission" id="30_playlist7" in="0" out="32909">
  <property name="length">00:09:09:03</property>
  <property name="eof">pause</property>
  <property name="resource">/media/bordun/plagiat2/2019-12-07_Plagiat_ViktorHuguauEnFranceAfrik/MVI_0031.MP4</property>
  <property name="audio_index">1</property>
  <property name="video_index">0</property>
  <property name="mute_on_pause">1</property>
  <property name="mlt_service">avformat-novalidate</property>
  <property name="seekable">1</property>
  <property name="aspect_ratio">1</property>
  <property name="kdenlive:file_size">2386328540</property>
  <property name="kdenlive:file_hash">fc0e36a09083d7b5fd1ea0037bfee7c5</property>
  <property name="global_feed">1</property>
  <property name="kdenlive:clipname">CLOCKWISE</property>
  <property name="kdenlive:folderid">4</property>
  <property name="xml">was here</property>
  <property name="meta.media.nb_streams">3</property>
  <property name="meta.media.0.stream.type">video</property>
  <property name="meta.media.0.stream.frame_rate">59,9401</property>
  <property name="meta.media.0.stream.sample_aspect_ratio">0</property>
  <property name="meta.media.0.codec.width">1920</property>
  <property name="meta.media.0.codec.height">1080</property>
  <property name="meta.media.0.codec.rotate">0</property>
  <property name="meta.media.0.codec.frame_rate">60000</property>
  <property name="meta.media.0.codec.pix_fmt">yuv420p</property>
  <property name="meta.media.0.codec.sample_aspect_ratio">0</property>
  <property name="meta.media.0.codec.colorspace">709</property>
  <property name="meta.media.0.codec.color_trc">1</property>
  <property name="meta.media.0.codec.name">h264</property>
  <property name="meta.media.0.codec.long_name">H.264 / AVC / MPEG-4 AVC / MPEG-4 part 10</property>
  <property name="meta.media.0.codec.bit_rate">34499686</property>
  <property name="meta.attr.0.stream.creation_time.markup">2019-12-07T17:27:36.000000Z</property>
  <property name="meta.attr.0.stream.language.markup">eng</property>
  <property name="meta.media.1.stream.type">audio</property>
  <property name="meta.media.1.codec.sample_fmt">fltp</property>
  <property name="meta.media.1.codec.sample_rate">48000</property>
  <property name="meta.media.1.codec.channels">2</property>
  <property name="meta.media.1.codec.name">aac</property>
  <property name="meta.media.1.codec.long_name">AAC (Advanced Audio Coding)</property>
  <property name="meta.media.1.codec.bit_rate">254861</property>
  <property name="meta.attr.1.stream.creation_time.markup">2019-12-07T17:27:36.000000Z</property>
  <property name="meta.attr.1.stream.language.markup">eng</property>
  <property name="meta.attr.major_brand.markup">mp42</property>
  <property name="meta.attr.minor_version.markup">1</property>
  <property name="meta.attr.compatible_brands.markup">mp42avc1CAEP</property>
  <property name="meta.attr.creation_time.markup">2019-12-07T17:27:36.000000Z</property>
  <property name="meta.attr.timecode.markup">17:26:35;14</property>
  <property name="meta.media.sample_aspect_num">1</property>
  <property name="meta.media.sample_aspect_den">1</property>
  <property name="meta.media.frame_rate_num">60000</property>
  <property name="meta.media.frame_rate_den">1001</property>
  <property name="meta.media.colorspace">709</property>
  <property name="meta.media.color_trc">1</property>
  <property name="meta.media.width">1920</property>
  <property name="meta.media.height">1080</property>
  <property name="meta.media.top_field_first">0</property>
  <property name="meta.media.progressive">1</property>
 </producer>
 <producer title="Anonymous Submission" id="producer1" in="0" out="32909">
  <property name="length">00:09:09:03</property>
  <property name="eof">pause</property>
  <property name="resource">/media/bordun/plagiat2/2019-12-07_Plagiat_ViktorHuguauEnFranceAfrik/MVI_0031.MP4</property>
  <property name="audio_index">-1</property>
  <property name="video_index">-1</property>
  <property name="mute_on_pause">1</property>
  <property name="mlt_service">avformat-novalidate</property>
  <property name="seekable">1</property>
  <property name="aspect_ratio">1</property>
  <property name="kdenlive:file_size">2386328540</property>
  <property name="kdenlive:file_hash">fc0e36a09083d7b5fd1ea0037bfee7c5</property>
  <property name="global_feed">1</property>
  <property name="kdenlive:clipname">CLOCKWISE</property>
  <property name="kdenlive:folderid">4</property>
  <property name="kdenlive:zone_in">2507</property>
  <property name="kdenlive:zone_out">2647</property>
  <property name="xml">was here</property>
  <property name="kdenlive:binid">30</property>
  <property name="kdenlive:clipstate">0</property>
 </producer>
 <producer title="Anonymous Submission" id="producer2" in="0" out="32909">
  <property name="length">00:09:09:03</property>
  <property name="eof">pause</property>
  <property name="resource">/media/bordun/plagiat2/2019-12-07_Plagiat_ViktorHuguauEnFranceAfrik/MVI_0031.MP4</property>
  <property name="audio_index">-1</property>
  <property name="video_index">-1</property>
  <property name="mute_on_pause">1</property>
  <property name="mlt_service">avformat-novalidate</property>
  <property name="seekable">1</property>
  <property name="aspect_ratio">1</property>
  <property name="kdenlive:file_size">2386328540</property>
  <property name="kdenlive:file_hash">fc0e36a09083d7b5fd1ea0037bfee7c5</property>
  <property name="global_feed">1</property>
  <property name="kdenlive:clipname">CLOCKWISE</property>
  <property name="kdenlive:folderid">4</property>
  <property name="kdenlive:zone_in">2507</property>
  <property name="kdenlive:zone_out">2647</property>
  <property name="xml">was here</property>
  <property name="kdenlive:binid">30</property>
  <property name="kdenlive:clipstate">0</property>
 </producer>
 <producer id="slowmotion:30:0,5:1:0" in="0" out="65819">
  <property name="length">65820</property>
  <property name="eof">pause</property>
  <property name="resource">0,5:/media/bordun/plagiat2/2019-12-07_Plagiat_ViktorHuguauEnFranceAfrik/MVI_0031.MP4</property>
  <property name="aspect_ratio">1</property>
  <property name="meta.media.nb_streams">3</property>
  <property name="meta.media.0.stream.type">video</property>
  <property name="meta.media.0.stream.frame_rate">59,9401</property>
  <property name="meta.media.0.stream.sample_aspect_ratio">0</property>
  <property name="meta.media.0.codec.width">1920</property>
  <property name="meta.media.0.codec.height">1080</property>
  <property name="meta.media.0.codec.rotate">0</property>
  <property name="meta.media.0.codec.frame_rate">60000</property>
  <property name="meta.media.0.codec.pix_fmt">yuv420p</property>
  <property name="meta.media.0.codec.sample_aspect_ratio">0</property>
  <property name="meta.media.0.codec.colorspace">709</property>
  <property name="meta.media.0.codec.color_trc">1</property>
  <property name="meta.media.0.codec.name">h264</property>
  <property name="meta.media.0.codec.long_name">H.264 / AVC / MPEG-4 AVC / MPEG-4 part 10</property>
  <property name="meta.media.0.codec.bit_rate">34499686</property>
  <property name="meta.attr.0.stream.creation_time.markup">2019-12-07T17:27:36.000000Z</property>
  <property name="meta.attr.0.stream.language.markup">eng</property>
  <property name="meta.media.1.stream.type">audio</property>
  <property name="meta.media.1.codec.sample_fmt">fltp</property>
  <property name="meta.media.1.codec.sample_rate">48000</property>
  <property name="meta.media.1.codec.channels">2</property>
  <property name="meta.media.1.codec.name">aac</property>
  <property name="meta.media.1.codec.long_name">AAC (Advanced Audio Coding)</property>
  <property name="meta.media.1.codec.bit_rate">254861</property>
  <property name="meta.attr.1.stream.creation_time.markup">2019-12-07T17:27:36.000000Z</property>
  <property name="meta.attr.1.stream.language.markup">eng</property>
  <property name="meta.attr.major_brand.markup">mp42</property>
  <property name="meta.attr.minor_version.markup">1</property>
  <property name="meta.attr.compatible_brands.markup">mp42avc1CAEP</property>
  <property name="meta.attr.creation_time.markup">2019-12-07T17:27:36.000000Z</property>
  <property name="meta.attr.timecode.markup">17:26:35;14</property>
  <property name="seekable">1</property>
  <property name="meta.media.sample_aspect_num">1</property>
  <property name="meta.media.sample_aspect_den">1</property>
  <property name="audio_index">1</property>
  <property name="video_index">0</property>
  <property name="mute_on_pause">1</property>
  <property name="warp_speed">0,5</property>
  <property name="warp_resource">/media/bordun/plagiat2/2019-12-07_Plagiat_ViktorHuguauEnFranceAfrik/MVI_0031.MP4</property>
  <property name="mlt_service">timewarp</property>
  <property name="meta.media.frame_rate_num">60000</property>
  <property name="meta.media.frame_rate_den">1001</property>
  <property name="meta.media.colorspace">709</property>
  <property name="meta.media.color_trc">1</property>
  <property name="meta.media.width">1920</property>
  <property name="meta.media.height">1080</property>
  <property name="meta.media.top_field_first">0</property>
  <property name="meta.media.progressive">1</property>
 </producer>
 <producer title="Anonymous Submission" id="producer3" in="0" out="32909">
  <property name="length">00:09:09:03</property>
  <property name="eof">pause</property>
  <property name="resource">/media/bordun/plagiat2/2019-12-07_Plagiat_ViktorHuguauEnFranceAfrik/MVI_0031.MP4</property>
  <property name="audio_index">-1</property>
  <property name="video_index">-1</property>
  <property name="mute_on_pause">1</property>
  <property name="mlt_service">avformat-novalidate</property>
  <property name="seekable">1</property>
  <property name="aspect_ratio">1</property>
  <property name="kdenlive:file_size">2386328540</property>
  <property name="kdenlive:file_hash">fc0e36a09083d7b5fd1ea0037bfee7c5</property>
  <property name="global_feed">1</property>
  <property name="kdenlive:clipname">CLOCKWISE</property>
  <property name="kdenlive:folderid">4</property>
  <property name="xml">was here</property>
  <property name="kdenlive:binid">30</property>
 </producer>
 <producer title="Anonymous Submission" id="producer4" in="0" out="32909">
  <property name="length">00:09:09:03</property>
  <property name="eof">pause</property>
  <property name="resource">/media/bordun/plagiat2/2019-12-07_Plagiat_ViktorHuguauEnFranceAfrik/MVI_0031.MP4</property>
  <property name="audio_index">-1</property>
  <property name="video_index">-1</property>
  <property name="mute_on_pause">1</property>
  <property name="mlt_service">avformat-novalidate</property>
  <property name="seekable">1</property>
  <property name="aspect_ratio">1</property>
  <property name="kdenlive:file_size">2386328540</property>
  <property name="kdenlive:file_hash">fc0e36a09083d7b5fd1ea0037bfee7c5</property>
  <property name="global_feed">1</property>
  <property name="kdenlive:clipname">CLOCKWISE</property>
  <property name="kdenlive:folderid">4</property>
  <property name="xml">was here</property>
  <property name="kdenlive:binid">30</property>
 </producer>
 <producer title="Anonymous Submission" id="28_playlist7" in="0" out="2579">
  <property name="length">00:00:43:02</property>
  <property name="eof">pause</property>
  <property name="resource">/media/bordun/plagiat2/2019-12-07_Plagiat_ViktorHuguauEnFranceAfrik/MVI_0029.MP4</property>
  <property name="audio_index">1</property>
  <property name="video_index">0</property>
  <property name="mute_on_pause">1</property>
  <property name="mlt_service">avformat-novalidate</property>
  <property name="seekable">1</property>
  <property name="aspect_ratio">1</property>
  <property name="kdenlive:file_size">187055381</property>
  <property name="kdenlive:file_hash">05be679d5dd271062989e88b7b836554</property>
  <property name="global_feed">1</property>
  <property name="kdenlive:folderid">2</property>
  <property name="xml">was here</property>
  <property name="meta.media.nb_streams">3</property>
  <property name="meta.media.0.stream.type">video</property>
  <property name="meta.media.0.stream.frame_rate">59,9401</property>
  <property name="meta.media.0.stream.sample_aspect_ratio">0</property>
  <property name="meta.media.0.codec.width">1920</property>
  <property name="meta.media.0.codec.height">1080</property>
  <property name="meta.media.0.codec.rotate">0</property>
  <property name="meta.media.0.codec.frame_rate">60000</property>
  <property name="meta.media.0.codec.pix_fmt">yuv420p</property>
  <property name="meta.media.0.codec.sample_aspect_ratio">0</property>
  <property name="meta.media.0.codec.colorspace">709</property>
  <property name="meta.media.0.codec.color_trc">1</property>
  <property name="meta.media.0.codec.name">h264</property>
  <property name="meta.media.0.codec.long_name">H.264 / AVC / MPEG-4 AVC / MPEG-4 part 10</property>
  <property name="meta.media.0.codec.bit_rate">34456380</property>
  <property name="meta.attr.0.stream.creation_time.markup">2019-12-07T17:14:41.000000Z</property>
  <property name="meta.attr.0.stream.language.markup">eng</property>
  <property name="meta.media.1.stream.type">audio</property>
  <property name="meta.media.1.codec.sample_fmt">fltp</property>
  <property name="meta.media.1.codec.sample_rate">48000</property>
  <property name="meta.media.1.codec.channels">2</property>
  <property name="meta.media.1.codec.name">aac</property>
  <property name="meta.media.1.codec.long_name">AAC (Advanced Audio Coding)</property>
  <property name="meta.media.1.codec.bit_rate">254915</property>
  <property name="meta.attr.1.stream.creation_time.markup">2019-12-07T17:14:41.000000Z</property>
  <property name="meta.attr.1.stream.language.markup">eng</property>
  <property name="meta.attr.major_brand.markup">mp42</property>
  <property name="meta.attr.minor_version.markup">1</property>
  <property name="meta.attr.compatible_brands.markup">mp42avc1CAEP</property>
  <property name="meta.attr.creation_time.markup">2019-12-07T17:14:41.000000Z</property>
  <property name="meta.attr.timecode.markup">17:13:40;38</property>
  <property name="meta.media.sample_aspect_num">1</property>
  <property name="meta.media.sample_aspect_den">1</property>
  <property name="meta.media.frame_rate_num">60000</property>
  <property name="meta.media.frame_rate_den">1001</property>
  <property name="meta.media.colorspace">709</property>
  <property name="meta.media.color_trc">1</property>
  <property name="meta.media.width">1920</property>
  <property name="meta.media.height">1080</property>
  <property name="meta.media.top_field_first">0</property>
  <property name="meta.media.progressive">1</property>
 </producer>
 <producer title="Anonymous Submission" id="21_playlist7" in="0" out="10589">
  <property name="length">00:02:56:41</property>
  <property name="eof">pause</property>
  <property name="resource">/media/bordun/plagiat2/2019-12-07_Plagiat_ViktorHuguauEnFranceAfrik/MVI_0022.MP4</property>
  <property name="audio_index">1</property>
  <property name="video_index">0</property>
  <property name="mute_on_pause">1</property>
  <property name="mlt_service">avformat-novalidate</property>
  <property name="seekable">1</property>
  <property name="aspect_ratio">1</property>
  <property name="kdenlive:file_size">766192783</property>
  <property name="kdenlive:file_hash">9e7c4e41d0375d8520bf16559991ead4</property>
  <property name="global_feed">1</property>
  <property name="kdenlive:folderid">1</property>
  <property name="xml">was here</property>
  <property name="meta.media.nb_streams">3</property>
  <property name="meta.media.0.stream.type">video</property>
  <property name="meta.media.0.stream.frame_rate">59,9401</property>
  <property name="meta.media.0.stream.sample_aspect_ratio">0</property>
  <property name="meta.media.0.codec.width">1920</property>
  <property name="meta.media.0.codec.height">1080</property>
  <property name="meta.media.0.codec.rotate">0</property>
  <property name="meta.media.0.codec.frame_rate">60000</property>
  <property name="meta.media.0.codec.pix_fmt">yuv420p</property>
  <property name="meta.media.0.codec.sample_aspect_ratio">0</property>
  <property name="meta.media.0.codec.colorspace">709</property>
  <property name="meta.media.0.codec.color_trc">1</property>
  <property name="meta.media.0.codec.name">h264</property>
  <property name="meta.media.0.codec.long_name">H.264 / AVC / MPEG-4 AVC / MPEG-4 part 10</property>
  <property name="meta.media.0.codec.bit_rate">34414522</property>
  <property name="meta.attr.0.stream.creation_time.markup">2019-12-07T16:58:53.000000Z</property>
  <property name="meta.attr.0.stream.language.markup">eng</property>
  <property name="meta.media.1.stream.type">audio</property>
  <property name="meta.media.1.codec.sample_fmt">fltp</property>
  <property name="meta.media.1.codec.sample_rate">48000</property>
  <property name="meta.media.1.codec.channels">2</property>
  <property name="meta.media.1.codec.name">aac</property>
  <property name="meta.media.1.codec.long_name">AAC (Advanced Audio Coding)</property>
  <property name="meta.media.1.codec.bit_rate">254989</property>
  <property name="meta.attr.1.stream.creation_time.markup">2019-12-07T16:58:53.000000Z</property>
  <property name="meta.attr.1.stream.language.markup">eng</property>
  <property name="meta.attr.major_brand.markup">mp42</property>
  <property name="meta.attr.minor_version.markup">1</property>
  <property name="meta.attr.compatible_brands.markup">mp42avc1CAEP</property>
  <property name="meta.attr.creation_time.markup">2019-12-07T16:58:53.000000Z</property>
  <property name="meta.attr.timecode.markup">16:57:52;38</property>
  <property name="meta.media.sample_aspect_num">1</property>
  <property name="meta.media.sample_aspect_den">1</property>
  <property name="meta.media.frame_rate_num">60000</property>
  <property name="meta.media.frame_rate_den">1001</property>
  <property name="meta.media.colorspace">709</property>
  <property name="meta.media.color_trc">1</property>
  <property name="meta.media.width">1920</property>
  <property name="meta.media.height">1080</property>
  <property name="meta.media.top_field_first">0</property>
  <property name="meta.media.progressive">1</property>
 </producer>
 <playlist id="playlist7">
  <property name="kdenlive:track_name">Video 6</property>
  <blank length="7417"/>
  <entry producer="30_playlist7" in="1671" out="1857"/>
  <blank length="201"/>
  <entry producer="30_playlist7" in="2028" out="2170"/>
  <blank length="313"/>
  <entry producer="producer1" in="2507" out="2646"/>
  <blank length="8377"/>
  <entry producer="30_playlist7" in="11024" out="11122"/>
  <blank length="1326"/>
  <entry producer="30_playlist7" in="12449" out="12537"/>
  <blank length="502"/>
  <entry producer="30_playlist7" in="13040" out="13220">
   <filter id="filter6" in="13040" out="13220">
    <property name="background">colour:0x00000000</property>
    <property name="mlt_service">affine</property>
    <property name="kdenlive_id">pan_zoom</property>
    <property name="tag">affine</property>
    <property name="kdenlive_ix">1</property>
    <property name="transition.geometry">0/0:2880x1620:100</property>
    <property name="transition.distort">0</property>
    <property name="kdenlive:sync_in_out">1</property>
    <property name="kdenlive_info"/>
   </filter>
  </entry>
  <blank length="337"/>
  <entry producer="producer2" in="13558" out="13703"/>
  <blank length="1025"/>
  <entry producer="slowmotion:30:0,5:1:0" in="29482" out="29549">
   <filter id="filter7" in="29482" out="29561">
    <property name="background">colour:0x00000000</property>
    <property name="mlt_service">affine</property>
    <property name="kdenlive_id">pan_zoom</property>
    <property name="tag">affine</property>
    <property name="kdenlive_info"/>
    <property name="kdenlive_ix">2</property>
    <property name="disable"/>
    <property name="transition.geometry">-137/-87:2496x1404:100</property>
    <property name="transition.distort">0</property>
    <property name="kdenlive:sync_in_out">1</property>
   </filter>
  </entry>
  <blank length="223"/>
  <entry producer="30_playlist7" in="15020" out="15143"/>
  <blank length="3892"/>
  <entry producer="30_playlist7" in="19036" out="19225"/>
  <blank length="594"/>
  <entry producer="30_playlist7" in="19820" out="20064"/>
  <blank length="592"/>
  <entry producer="30_playlist7" in="20657" out="20838"/>
  <blank length="1676"/>
  <entry producer="30_playlist7" in="22515" out="22599"/>
  <blank length="604"/>
  <entry producer="30_playlist7" in="23204" out="23375"/>
  <blank length="2018"/>
  <entry producer="30_playlist7" in="25394" out="25476"/>
  <blank length="780"/>
  <entry producer="30_playlist7" in="26257" out="26640"/>
  <blank length="2202"/>
  <entry producer="producer3" in="28843" out="29051"/>
  <blank length="633"/>
  <entry producer="30_playlist7" in="29685" out="29874"/>
  <blank length="281"/>
  <entry producer="30_playlist7" in="30113" out="30270"/>
  <blank length="1547"/>
  <entry producer="producer4" in="31861" out="32199"/>
  <blank length="7529"/>
  <entry producer="28_playlist7" in="2026" out="2212"/>
  <blank length="49920"/>
  <entry producer="21_playlist7" in="6197" out="7173"/>
 </playlist>
 <producer title="Anonymous Submission" id="29_playlist8" in="0" out="32579">
  <property name="length">00:09:03:33</property>
  <property name="eof">pause</property>
  <property name="resource">/media/bordun/plagiat2/2019-12-07_Plagiat_ViktorHuguauEnFranceAfrik/MVI_0030.MP4</property>
  <property name="audio_index">1</property>
  <property name="video_index">0</property>
  <property name="mute_on_pause">1</property>
  <property name="mlt_service">avformat-novalidate</property>
  <property name="seekable">1</property>
  <property name="aspect_ratio">1</property>
  <property name="kdenlive:file_size">2361394871</property>
  <property name="kdenlive:file_hash">418df3676bf30cb26dab229b2803518c</property>
  <property name="global_feed">1</property>
  <property name="kdenlive:clipname">COUNTERCLOCKWISE 2</property>
  <property name="kdenlive:folderid">4</property>
  <property name="xml">was here</property>
  <property name="meta.media.nb_streams">3</property>
  <property name="meta.media.0.stream.type">video</property>
  <property name="meta.media.0.stream.frame_rate">59,9401</property>
  <property name="meta.media.0.stream.sample_aspect_ratio">0</property>
  <property name="meta.media.0.codec.width">1920</property>
  <property name="meta.media.0.codec.height">1080</property>
  <property name="meta.media.0.codec.rotate">0</property>
  <property name="meta.media.0.codec.frame_rate">60000</property>
  <property name="meta.media.0.codec.pix_fmt">yuv420p</property>
  <property name="meta.media.0.codec.sample_aspect_ratio">0</property>
  <property name="meta.media.0.codec.colorspace">709</property>
  <property name="meta.media.0.codec.color_trc">1</property>
  <property name="meta.media.0.codec.name">h264</property>
  <property name="meta.media.0.codec.long_name">H.264 / AVC / MPEG-4 AVC / MPEG-4 part 10</property>
  <property name="meta.media.0.codec.bit_rate">34484793</property>
  <property name="meta.attr.0.stream.creation_time.markup">2019-12-07T17:16:57.000000Z</property>
  <property name="meta.attr.0.stream.language.markup">eng</property>
  <property name="meta.media.1.stream.type">audio</property>
  <property name="meta.media.1.codec.sample_fmt">fltp</property>
  <property name="meta.media.1.codec.sample_rate">48000</property>
  <property name="meta.media.1.codec.channels">2</property>
  <property name="meta.media.1.codec.name">aac</property>
  <property name="meta.media.1.codec.long_name">AAC (Advanced Audio Coding)</property>
  <property name="meta.media.1.codec.bit_rate">254863</property>
  <property name="meta.attr.1.stream.creation_time.markup">2019-12-07T17:16:57.000000Z</property>
  <property name="meta.attr.1.stream.language.markup">eng</property>
  <property name="meta.attr.major_brand.markup">mp42</property>
  <property name="meta.attr.minor_version.markup">1</property>
  <property name="meta.attr.compatible_brands.markup">mp42avc1CAEP</property>
  <property name="meta.attr.creation_time.markup">2019-12-07T17:16:57.000000Z</property>
  <property name="meta.attr.timecode.markup">17:15:56;38</property>
  <property name="meta.media.sample_aspect_num">1</property>
  <property name="meta.media.sample_aspect_den">1</property>
  <property name="meta.media.frame_rate_num">60000</property>
  <property name="meta.media.frame_rate_den">1001</property>
  <property name="meta.media.colorspace">709</property>
  <property name="meta.media.color_trc">1</property>
  <property name="meta.media.width">1920</property>
  <property name="meta.media.height">1080</property>
  <property name="meta.media.top_field_first">0</property>
  <property name="meta.media.progressive">1</property>
 </producer>
 <producer title="Anonymous Submission" id="producer5" in="0" out="32579">
  <property name="length">00:09:03:33</property>
  <property name="eof">pause</property>
  <property name="resource">/media/bordun/plagiat2/2019-12-07_Plagiat_ViktorHuguauEnFranceAfrik/MVI_0030.MP4</property>
  <property name="audio_index">-1</property>
  <property name="video_index">-1</property>
  <property name="mute_on_pause">1</property>
  <property name="mlt_service">avformat-novalidate</property>
  <property name="seekable">1</property>
  <property name="aspect_ratio">1</property>
  <property name="kdenlive:file_size">2361394871</property>
  <property name="kdenlive:file_hash">418df3676bf30cb26dab229b2803518c</property>
  <property name="global_feed">1</property>
  <property name="kdenlive:clipname">COUNTERCLOCKWISE 2</property>
  <property name="kdenlive:folderid">4</property>
  <property name="xml">was here</property>
  <property name="kdenlive:binid">29</property>
  <property name="kdenlive:clipstate">0</property>
 </producer>
 <producer title="Anonymous Submission" id="producer6" in="0" out="32579">
  <property name="length">00:09:03:33</property>
  <property name="eof">pause</property>
  <property name="resource">/media/bordun/plagiat2/2019-12-07_Plagiat_ViktorHuguauEnFranceAfrik/MVI_0030.MP4</property>
  <property name="audio_index">-1</property>
  <property name="video_index">-1</property>
  <property name="mute_on_pause">1</property>
  <property name="mlt_service">avformat-novalidate</property>
  <property name="seekable">1</property>
  <property name="aspect_ratio">1</property>
  <property name="kdenlive:file_size">2361394871</property>
  <property name="kdenlive:file_hash">418df3676bf30cb26dab229b2803518c</property>
  <property name="global_feed">1</property>
  <property name="kdenlive:clipname">COUNTERCLOCKWISE 2</property>
  <property name="kdenlive:folderid">4</property>
  <property name="xml">was here</property>
  <property name="kdenlive:binid">29</property>
  <property name="kdenlive:clipstate">0</property>
 </producer>
 <producer title="Anonymous Submission" id="30_playlist8" in="0" out="32909">
  <property name="length">00:09:09:03</property>
  <property name="eof">pause</property>
  <property name="resource">/media/bordun/plagiat2/2019-12-07_Plagiat_ViktorHuguauEnFranceAfrik/MVI_0031.MP4</property>
  <property name="audio_index">1</property>
  <property name="video_index">0</property>
  <property name="mute_on_pause">1</property>
  <property name="mlt_service">avformat-novalidate</property>
  <property name="seekable">1</property>
  <property name="aspect_ratio">1</property>
  <property name="kdenlive:file_size">2386328540</property>
  <property name="kdenlive:file_hash">fc0e36a09083d7b5fd1ea0037bfee7c5</property>
  <property name="global_feed">1</property>
  <property name="kdenlive:clipname">CLOCKWISE</property>
  <property name="kdenlive:folderid">4</property>
  <property name="kdenlive:zone_in">2507</property>
  <property name="kdenlive:zone_out">2647</property>
  <property name="xml">was here</property>
  <property name="meta.media.nb_streams">3</property>
  <property name="meta.media.0.stream.type">video</property>
  <property name="meta.media.0.stream.frame_rate">59,9401</property>
  <property name="meta.media.0.stream.sample_aspect_ratio">0</property>
  <property name="meta.media.0.codec.width">1920</property>
  <property name="meta.media.0.codec.height">1080</property>
  <property name="meta.media.0.codec.rotate">0</property>
  <property name="meta.media.0.codec.frame_rate">60000</property>
  <property name="meta.media.0.codec.pix_fmt">yuv420p</property>
  <property name="meta.media.0.codec.sample_aspect_ratio">0</property>
  <property name="meta.media.0.codec.colorspace">709</property>
  <property name="meta.media.0.codec.color_trc">1</property>
  <property name="meta.media.0.codec.name">h264</property>
  <property name="meta.media.0.codec.long_name">H.264 / AVC / MPEG-4 AVC / MPEG-4 part 10</property>
  <property name="meta.media.0.codec.bit_rate">34499686</property>
  <property name="meta.attr.0.stream.creation_time.markup">2019-12-07T17:27:36.000000Z</property>
  <property name="meta.attr.0.stream.language.markup">eng</property>
  <property name="meta.media.1.stream.type">audio</property>
  <property name="meta.media.1.codec.sample_fmt">fltp</property>
  <property name="meta.media.1.codec.sample_rate">48000</property>
  <property name="meta.media.1.codec.channels">2</property>
  <property name="meta.media.1.codec.name">aac</property>
  <property name="meta.media.1.codec.long_name">AAC (Advanced Audio Coding)</property>
  <property name="meta.media.1.codec.bit_rate">254861</property>
  <property name="meta.attr.1.stream.creation_time.markup">2019-12-07T17:27:36.000000Z</property>
  <property name="meta.attr.1.stream.language.markup">eng</property>
  <property name="meta.attr.major_brand.markup">mp42</property>
  <property name="meta.attr.minor_version.markup">1</property>
  <property name="meta.attr.compatible_brands.markup">mp42avc1CAEP</property>
  <property name="meta.attr.creation_time.markup">2019-12-07T17:27:36.000000Z</property>
  <property name="meta.attr.timecode.markup">17:26:35;14</property>
  <property name="meta.media.sample_aspect_num">1</property>
  <property name="meta.media.sample_aspect_den">1</property>
  <property name="meta.media.frame_rate_num">60000</property>
  <property name="meta.media.frame_rate_den">1001</property>
  <property name="meta.media.colorspace">709</property>
  <property name="meta.media.color_trc">1</property>
  <property name="meta.media.width">1920</property>
  <property name="meta.media.height">1080</property>
  <property name="meta.media.top_field_first">0</property>
  <property name="meta.media.progressive">1</property>
 </producer>
 <producer title="Anonymous Submission" id="producer7" in="0" out="32579">
  <property name="length">00:09:03:33</property>
  <property name="eof">pause</property>
  <property name="resource">/media/bordun/plagiat2/2019-12-07_Plagiat_ViktorHuguauEnFranceAfrik/MVI_0030.MP4</property>
  <property name="audio_index">-1</property>
  <property name="video_index">-1</property>
  <property name="mute_on_pause">1</property>
  <property name="mlt_service">avformat-novalidate</property>
  <property name="seekable">1</property>
  <property name="aspect_ratio">1</property>
  <property name="kdenlive:file_size">2361394871</property>
  <property name="kdenlive:file_hash">418df3676bf30cb26dab229b2803518c</property>
  <property name="global_feed">1</property>
  <property name="kdenlive:clipname">COUNTERCLOCKWISE 2</property>
  <property name="kdenlive:folderid">4</property>
  <property name="xml">was here</property>
  <property name="kdenlive:binid">29</property>
  <property name="kdenlive:clipstate">0</property>
 </producer>
 <producer title="Anonymous Submission" id="producer8" in="0" out="32579">
  <property name="length">00:09:03:33</property>
  <property name="eof">pause</property>
  <property name="resource">/media/bordun/plagiat2/2019-12-07_Plagiat_ViktorHuguauEnFranceAfrik/MVI_0030.MP4</property>
  <property name="audio_index">-1</property>
  <property name="video_index">-1</property>
  <property name="mute_on_pause">1</property>
  <property name="mlt_service">avformat-novalidate</property>
  <property name="seekable">1</property>
  <property name="aspect_ratio">1</property>
  <property name="kdenlive:file_size">2361394871</property>
  <property name="kdenlive:file_hash">418df3676bf30cb26dab229b2803518c</property>
  <property name="global_feed">1</property>
  <property name="kdenlive:clipname">COUNTERCLOCKWISE 2</property>
  <property name="kdenlive:folderid">4</property>
  <property name="xml">was here</property>
  <property name="kdenlive:binid">29</property>
  <property name="kdenlive:clipstate">0</property>
 </producer>
 <producer title="Anonymous Submission" id="3_playlist8" in="0" out="32519">
  <property name="length">00:09:02:33</property>
  <property name="eof">pause</property>
  <property name="resource">/media/bordun/plagiat2/2019-12-07_Plagiat_ViktorHuguauEnFranceAfrik/MVI_0004.MP4</property>
  <property name="audio_index">1</property>
  <property name="video_index">0</property>
  <property name="mute_on_pause">1</property>
  <property name="mlt_service">avformat-novalidate</property>
  <property name="seekable">1</property>
  <property name="aspect_ratio">1</property>
  <property name="kdenlive:file_size">2360500503</property>
  <property name="kdenlive:file_hash">5e7ce505f3b2122cec96cd3db10a9924</property>
  <property name="global_feed">1</property>
  <property name="kdenlive:clipname">NANO</property>
  <property name="kdenlive:folderid">4</property>
  <property name="xml">was here</property>
  <property name="meta.media.nb_streams">3</property>
  <property name="meta.media.0.stream.type">video</property>
  <property name="meta.media.0.stream.frame_rate">59,9401</property>
  <property name="meta.media.0.stream.sample_aspect_ratio">0</property>
  <property name="meta.media.0.codec.width">1920</property>
  <property name="meta.media.0.codec.height">1080</property>
  <property name="meta.media.0.codec.rotate">0</property>
  <property name="meta.media.0.codec.frame_rate">60000</property>
  <property name="meta.media.0.codec.pix_fmt">yuv420p</property>
  <property name="meta.media.0.codec.sample_aspect_ratio">0</property>
  <property name="meta.media.0.codec.colorspace">709</property>
  <property name="meta.media.0.codec.color_trc">1</property>
  <property name="meta.media.0.codec.name">h264</property>
  <property name="meta.media.0.codec.long_name">H.264 / AVC / MPEG-4 AVC / MPEG-4 part 10</property>
  <property name="meta.media.0.codec.bit_rate">34535706</property>
  <property name="meta.attr.0.stream.creation_time.markup">2019-12-07T15:11:12.000000Z</property>
  <property name="meta.attr.0.stream.language.markup">eng</property>
  <property name="meta.media.1.stream.type">audio</property>
  <property name="meta.media.1.codec.sample_fmt">fltp</property>
  <property name="meta.media.1.codec.sample_rate">48000</property>
  <property name="meta.media.1.codec.channels">2</property>
  <property name="meta.media.1.codec.name">aac</property>
  <property name="meta.media.1.codec.long_name">AAC (Advanced Audio Coding)</property>
  <property name="meta.media.1.codec.bit_rate">254870</property>
  <property name="meta.attr.1.stream.creation_time.markup">2019-12-07T15:11:12.000000Z</property>
  <property name="meta.attr.1.stream.language.markup">eng</property>
  <property name="meta.attr.major_brand.markup">mp42</property>
  <property name="meta.attr.minor_version.markup">1</property>
  <property name="meta.attr.compatible_brands.markup">mp42avc1CAEP</property>
  <property name="meta.attr.creation_time.markup">2019-12-07T15:11:12.000000Z</property>
  <property name="meta.attr.timecode.markup">15:10:11;34</property>
  <property name="meta.media.sample_aspect_num">1</property>
  <property name="meta.media.sample_aspect_den">1</property>
  <property name="meta.media.frame_rate_num">60000</property>
  <property name="meta.media.frame_rate_den">1001</property>
  <property name="meta.media.colorspace">709</property>
  <property name="meta.media.color_trc">1</property>
  <property name="meta.media.width">1920</property>
  <property name="meta.media.height">1080</property>
  <property name="meta.media.top_field_first">0</property>
  <property name="meta.media.progressive">1</property>
 </producer>
 <producer title="Anonymous Submission" id="producer9" in="0" out="32579">
  <property name="length">00:09:03:33</property>
  <property name="eof">pause</property>
  <property name="resource">/media/bordun/plagiat2/2019-12-07_Plagiat_ViktorHuguauEnFranceAfrik/MVI_0030.MP4</property>
  <property name="audio_index">-1</property>
  <property name="video_index">-1</property>
  <property name="mute_on_pause">1</property>
  <property name="mlt_service">avformat-novalidate</property>
  <property name="seekable">1</property>
  <property name="aspect_ratio">1</property>
  <property name="kdenlive:file_size">2361394871</property>
  <property name="kdenlive:file_hash">418df3676bf30cb26dab229b2803518c</property>
  <property name="global_feed">1</property>
  <property name="kdenlive:clipname">COUNTERCLOCKWISE 2</property>
  <property name="kdenlive:folderid">4</property>
  <property name="xml">was here</property>
  <property name="kdenlive:binid">29</property>
  <property name="kdenlive:clipstate">0</property>
 </producer>
 <producer title="Anonymous Submission" id="producer12" in="0" out="32579">
  <property name="length">00:09:03:33</property>
  <property name="eof">pause</property>
  <property name="resource">/media/bordun/plagiat2/2019-12-07_Plagiat_ViktorHuguauEnFranceAfrik/MVI_0030.MP4</property>
  <property name="audio_index">-1</property>
  <property name="video_index">-1</property>
  <property name="mute_on_pause">1</property>
  <property name="mlt_service">avformat-novalidate</property>
  <property name="seekable">1</property>
  <property name="aspect_ratio">1</property>
  <property name="kdenlive:file_size">2361394871</property>
  <property name="kdenlive:file_hash">418df3676bf30cb26dab229b2803518c</property>
  <property name="global_feed">1</property>
  <property name="kdenlive:clipname">COUNTERCLOCKWISE 2</property>
  <property name="kdenlive:folderid">4</property>
  <property name="xml">was here</property>
  <property name="kdenlive:binid">29</property>
  <property name="kdenlive:clipstate">0</property>
 </producer>
 <producer title="Anonymous Submission" id="producer13" in="0" out="32579">
  <property name="length">00:09:03:33</property>
  <property name="eof">pause</property>
  <property name="resource">/media/bordun/plagiat2/2019-12-07_Plagiat_ViktorHuguauEnFranceAfrik/MVI_0030.MP4</property>
  <property name="audio_index">-1</property>
  <property name="video_index">-1</property>
  <property name="mute_on_pause">1</property>
  <property name="mlt_service">avformat-novalidate</property>
  <property name="seekable">1</property>
  <property name="aspect_ratio">1</property>
  <property name="kdenlive:file_size">2361394871</property>
  <property name="kdenlive:file_hash">418df3676bf30cb26dab229b2803518c</property>
  <property name="global_feed">1</property>
  <property name="kdenlive:clipname">COUNTERCLOCKWISE 2</property>
  <property name="kdenlive:folderid">4</property>
  <property name="xml">was here</property>
  <property name="kdenlive:binid">29</property>
  <property name="kdenlive:clipstate">0</property>
 </producer>
 <playlist id="playlist8">
  <property name="kdenlive:track_name">Video 7</property>
  <blank length="8990"/>
  <entry producer="29_playlist8" in="2860" out="2976"/>
  <blank length="1828"/>
  <entry producer="29_playlist8" in="4783" out="4939"/>
  <blank length="446"/>
  <entry producer="29_playlist8" in="5386" out="5569"/>
  <blank length="1213"/>
  <entry producer="producer5" in="6783" out="6921"/>
  <blank length="296"/>
  <entry producer="29_playlist8" in="7218" out="7395"/>
  <blank length="442"/>
  <entry producer="29_playlist8" in="7838" out="7958"/>
  <blank length="239"/>
  <entry producer="29_playlist8" in="8198" out="8266"/>
  <blank length="191"/>
  <entry producer="29_playlist8" in="8458" out="8663">
   <filter id="filter8" in="8458" out="8663">
    <property name="background">colour:0x00000000</property>
    <property name="mlt_service">affine</property>
    <property name="kdenlive_id">pan_zoom</property>
    <property name="tag">affine</property>
    <property name="kdenlive_ix">1</property>
    <property name="transition.geometry">0=0/0:1920x1080:100;69=0/0:1920x1080:100;79=-192/-108:2304x1296:100</property>
    <property name="transition.distort">0</property>
    <property name="kdenlive:sync_in_out">1</property>
    <property name="kdenlive_info"/>
   </filter>
  </entry>
  <blank length="411"/>
  <entry producer="producer6" in="9075" out="9227"/>
  <blank length="1289"/>
  <entry producer="29_playlist8" in="10517" out="10628"/>
  <blank length="217"/>
  <entry producer="29_playlist8" in="10846" out="10916"/>
  <blank length="597"/>
  <entry producer="30_playlist8" in="11912" out="11972"/>
  <blank length="779"/>
  <entry producer="producer7" in="12354" out="12422"/>
  <blank length="186"/>
  <entry producer="producer8" in="12609" out="12769"/>
  <blank length="1497"/>
  <entry producer="3_playlist8" in="14474" out="14551"/>
  <blank length="401"/>
  <entry producer="producer9" in="14746" out="14780"/>
  <blank length="1537"/>
  <entry producer="29_playlist8" in="16318" out="16415"/>
  <blank length="2"/>
  <entry producer="29_playlist8" in="16416" out="16417"/>
  <blank length="2"/>
  <entry producer="29_playlist8" in="16418" out="16419"/>
  <blank length="2"/>
  <entry producer="29_playlist8" in="16420" out="16421"/>
  <blank length="2"/>
  <entry producer="29_playlist8" in="16423" out="16424"/>
  <blank length="786"/>
  <entry producer="29_playlist8" in="17218" out="17527">
   <filter id="filter9" in="17218" out="17527">
    <property name="background">colour:0x00000000</property>
    <property name="mlt_service">affine</property>
    <property name="kdenlive_id">pan_zoom</property>
    <property name="tag">affine</property>
    <property name="kdenlive_ix">1</property>
    <property name="transition.geometry">-4/-84:2304x1296:100</property>
    <property name="transition.distort">0</property>
    <property name="kdenlive:sync_in_out">1</property>
    <property name="kdenlive_info"/>
   </filter>
  </entry>
  <blank length="158"/>
  <entry producer="29_playlist8" in="17686" out="17823"/>
  <blank length="736"/>
  <entry producer="29_playlist8" in="18560" out="18689"/>
  <blank length="1172"/>
  <entry producer="29_playlist8" in="19862" out="19930"/>
  <blank length="45"/>
  <entry producer="29_playlist8" in="19976" out="20060"/>
  <blank length="261"/>
  <entry producer="29_playlist8" in="20322" out="20414"/>
  <blank length="529"/>
  <entry producer="29_playlist8" in="20944" out="20986"/>
  <blank length="448"/>
  <entry producer="29_playlist8" in="21437" out="21491"/>
  <blank length="1766"/>
  <entry producer="29_playlist8" in="23256" out="23489"/>
  <blank length="670"/>
  <entry producer="29_playlist8" in="24160" out="24292"/>
  <blank length="234"/>
  <entry producer="29_playlist8" in="24527" out="24614"/>
  <blank length="158"/>
  <entry producer="29_playlist8" in="24773" out="24911"/>
  <blank length="516"/>
  <entry producer="29_playlist8" in="25428" out="25535"/>
  <blank length="805"/>
  <entry producer="29_playlist8" in="26341" out="26411"/>
  <blank length="1190"/>
  <entry producer="29_playlist8" in="27602" out="27774"/>
  <blank length="131"/>
  <entry producer="producer12" in="27906" out="28133"/>
  <blank length="2820"/>
  <entry producer="producer13" in="30954" out="31012"/>
  <blank length="881"/>
  <entry producer="29_playlist8" in="31986" out="32134"/>
 </playlist>
 <producer title="Anonymous Submission" id="17_playlist9" in="0" out="4559">
  <property name="length">00:01:16:04</property>
  <property name="eof">pause</property>
  <property name="resource">/media/bordun/plagiat2/2019-12-07_Plagiat_ViktorHuguauEnFranceAfrik/MVI_0018.MP4</property>
  <property name="audio_index">1</property>
  <property name="video_index">0</property>
  <property name="mute_on_pause">1</property>
  <property name="mlt_service">avformat-novalidate</property>
  <property name="seekable">1</property>
  <property name="aspect_ratio">1</property>
  <property name="kdenlive:file_size">329875210</property>
  <property name="kdenlive:file_hash">dbcb736a6d2b7ae1de7ed7c4851c3f0b</property>
  <property name="global_feed">1</property>
  <property name="kdenlive:folderid">1</property>
  <property name="xml">was here</property>
  <property name="meta.media.nb_streams">3</property>
  <property name="meta.media.0.stream.type">video</property>
  <property name="meta.media.0.stream.frame_rate">59,9401</property>
  <property name="meta.media.0.stream.sample_aspect_ratio">0</property>
  <property name="meta.media.0.codec.width">1920</property>
  <property name="meta.media.0.codec.height">1080</property>
  <property name="meta.media.0.codec.rotate">0</property>
  <property name="meta.media.0.codec.frame_rate">60000</property>
  <property name="meta.media.0.codec.pix_fmt">yuv420p</property>
  <property name="meta.media.0.codec.sample_aspect_ratio">0</property>
  <property name="meta.media.0.codec.colorspace">709</property>
  <property name="meta.media.0.codec.color_trc">1</property>
  <property name="meta.media.0.codec.name">h264</property>
  <property name="meta.media.0.codec.long_name">H.264 / AVC / MPEG-4 AVC / MPEG-4 part 10</property>
  <property name="meta.media.0.codec.bit_rate">34400220</property>
  <property name="meta.attr.0.stream.creation_time.markup">2019-12-07T16:54:23.000000Z</property>
  <property name="meta.attr.0.stream.language.markup">eng</property>
  <property name="meta.media.1.stream.type">audio</property>
  <property name="meta.media.1.codec.sample_fmt">fltp</property>
  <property name="meta.media.1.codec.sample_rate">48000</property>
  <property name="meta.media.1.codec.channels">2</property>
  <property name="meta.media.1.codec.name">aac</property>
  <property name="meta.media.1.codec.long_name">AAC (Advanced Audio Coding)</property>
  <property name="meta.media.1.codec.bit_rate">254937</property>
  <property name="meta.attr.1.stream.creation_time.markup">2019-12-07T16:54:23.000000Z</property>
  <property name="meta.attr.1.stream.language.markup">eng</property>
  <property name="meta.attr.major_brand.markup">mp42</property>
  <property name="meta.attr.minor_version.markup">1</property>
  <property name="meta.attr.compatible_brands.markup">mp42avc1CAEP</property>
  <property name="meta.attr.creation_time.markup">2019-12-07T16:54:23.000000Z</property>
  <property name="meta.attr.timecode.markup">16:53:22;04</property>
  <property name="meta.media.sample_aspect_num">1</property>
  <property name="meta.media.sample_aspect_den">1</property>
  <property name="meta.media.frame_rate_num">60000</property>
  <property name="meta.media.frame_rate_den">1001</property>
  <property name="meta.media.colorspace">709</property>
  <property name="meta.media.color_trc">1</property>
  <property name="meta.media.width">1920</property>
  <property name="meta.media.height">1080</property>
  <property name="meta.media.top_field_first">0</property>
  <property name="meta.media.progressive">1</property>
 </producer>
 <producer title="Anonymous Submission" id="16_playlist9" in="0" out="989">
  <property name="length">00:00:16:30</property>
  <property name="eof">pause</property>
  <property name="resource">/media/bordun/plagiat2/2019-12-07_Plagiat_ViktorHuguauEnFranceAfrik/MVI_0017.MP4</property>
  <property name="audio_index">1</property>
  <property name="video_index">0</property>
  <property name="mute_on_pause">1</property>
  <property name="mlt_service">avformat-novalidate</property>
  <property name="seekable">1</property>
  <property name="aspect_ratio">1</property>
  <property name="kdenlive:file_size">72019742</property>
  <property name="kdenlive:file_hash">c19a7dc308094306cb4f4590d919b69f</property>
  <property name="global_feed">1</property>
  <property name="kdenlive:folderid">1</property>
  <property name="xml">was here</property>
  <property name="meta.media.nb_streams">3</property>
  <property name="meta.media.0.stream.type">video</property>
  <property name="meta.media.0.stream.frame_rate">59,9401</property>
  <property name="meta.media.0.stream.sample_aspect_ratio">0</property>
  <property name="meta.media.0.codec.width">1920</property>
  <property name="meta.media.0.codec.height">1080</property>
  <property name="meta.media.0.codec.rotate">0</property>
  <property name="meta.media.0.codec.frame_rate">60000</property>
  <property name="meta.media.0.codec.pix_fmt">yuv420p</property>
  <property name="meta.media.0.codec.sample_aspect_ratio">0</property>
  <property name="meta.media.0.codec.colorspace">709</property>
  <property name="meta.media.0.codec.color_trc">1</property>
  <property name="meta.media.0.codec.name">h264</property>
  <property name="meta.media.0.codec.long_name">H.264 / AVC / MPEG-4 AVC / MPEG-4 part 10</property>
  <property name="meta.media.0.codec.bit_rate">34495889</property>
  <property name="meta.attr.0.stream.creation_time.markup">2019-12-07T16:53:51.000000Z</property>
  <property name="meta.attr.0.stream.language.markup">eng</property>
  <property name="meta.media.1.stream.type">audio</property>
  <property name="meta.media.1.codec.sample_fmt">fltp</property>
  <property name="meta.media.1.codec.sample_rate">48000</property>
  <property name="meta.media.1.codec.channels">2</property>
  <property name="meta.media.1.codec.name">aac</property>
  <property name="meta.media.1.codec.long_name">AAC (Advanced Audio Coding)</property>
  <property name="meta.media.1.codec.bit_rate">254683</property>
  <property name="meta.attr.1.stream.creation_time.markup">2019-12-07T16:53:51.000000Z</property>
  <property name="meta.attr.1.stream.language.markup">eng</property>
  <property name="meta.attr.major_brand.markup">mp42</property>
  <property name="meta.attr.minor_version.markup">1</property>
  <property name="meta.attr.compatible_brands.markup">mp42avc1CAEP</property>
  <property name="meta.attr.creation_time.markup">2019-12-07T16:53:51.000000Z</property>
  <property name="meta.attr.timecode.markup">16:52:50;14</property>
  <property name="meta.media.sample_aspect_num">1</property>
  <property name="meta.media.sample_aspect_den">1</property>
  <property name="meta.media.frame_rate_num">60000</property>
  <property name="meta.media.frame_rate_den">1001</property>
  <property name="meta.media.colorspace">709</property>
  <property name="meta.media.color_trc">1</property>
  <property name="meta.media.width">1920</property>
  <property name="meta.media.height">1080</property>
  <property name="meta.media.top_field_first">0</property>
  <property name="meta.media.progressive">1</property>
 </producer>
 <producer title="Anonymous Submission" id="22_playlist9" in="0" out="4829">
  <property name="length">00:01:20:35</property>
  <property name="eof">pause</property>
  <property name="resource">/media/bordun/plagiat2/2019-12-07_Plagiat_ViktorHuguauEnFranceAfrik/MVI_0023.MP4</property>
  <property name="audio_index">1</property>
  <property name="video_index">0</property>
  <property name="mute_on_pause">1</property>
  <property name="mlt_service">avformat-novalidate</property>
  <property name="seekable">1</property>
  <property name="aspect_ratio">1</property>
  <property name="kdenlive:file_size">349203399</property>
  <property name="kdenlive:file_hash">cf0408e406df01f7b8e8f1793f42b886</property>
  <property name="global_feed">1</property>
  <property name="kdenlive:folderid">1</property>
  <property name="xml">was here</property>
  <property name="meta.media.nb_streams">3</property>
  <property name="meta.media.0.stream.type">video</property>
  <property name="meta.media.0.stream.frame_rate">59,9401</property>
  <property name="meta.media.0.stream.sample_aspect_ratio">0</property>
  <property name="meta.media.0.codec.width">1920</property>
  <property name="meta.media.0.codec.height">1080</property>
  <property name="meta.media.0.codec.rotate">0</property>
  <property name="meta.media.0.codec.frame_rate">60000</property>
  <property name="meta.media.0.codec.pix_fmt">yuv420p</property>
  <property name="meta.media.0.codec.sample_aspect_ratio">0</property>
  <property name="meta.media.0.codec.colorspace">709</property>
  <property name="meta.media.0.codec.color_trc">1</property>
  <property name="meta.media.0.codec.name">h264</property>
  <property name="meta.media.0.codec.long_name">H.264 / AVC / MPEG-4 AVC / MPEG-4 part 10</property>
  <property name="meta.media.0.codec.bit_rate">34381511</property>
  <property name="meta.attr.0.stream.creation_time.markup">2019-12-07T17:02:16.000000Z</property>
  <property name="meta.attr.0.stream.language.markup">eng</property>
  <property name="meta.media.1.stream.type">audio</property>
  <property name="meta.media.1.codec.sample_fmt">fltp</property>
  <property name="meta.media.1.codec.sample_rate">48000</property>
  <property name="meta.media.1.codec.channels">2</property>
  <property name="meta.media.1.codec.name">aac</property>
  <property name="meta.media.1.codec.long_name">AAC (Advanced Audio Coding)</property>
  <property name="meta.media.1.codec.bit_rate">254954</property>
  <property name="meta.attr.1.stream.creation_time.markup">2019-12-07T17:02:16.000000Z</property>
  <property name="meta.attr.1.stream.language.markup">eng</property>
  <property name="meta.attr.major_brand.markup">mp42</property>
  <property name="meta.attr.minor_version.markup">1</property>
  <property name="meta.attr.compatible_brands.markup">mp42avc1CAEP</property>
  <property name="meta.attr.creation_time.markup">2019-12-07T17:02:16.000000Z</property>
  <property name="meta.attr.timecode.markup">17:01:15;42</property>
  <property name="meta.media.sample_aspect_num">1</property>
  <property name="meta.media.sample_aspect_den">1</property>
  <property name="meta.media.frame_rate_num">60000</property>
  <property name="meta.media.frame_rate_den">1001</property>
  <property name="meta.media.colorspace">709</property>
  <property name="meta.media.color_trc">1</property>
  <property name="meta.media.width">1920</property>
  <property name="meta.media.height">1080</property>
  <property name="meta.media.top_field_first">0</property>
  <property name="meta.media.progressive">1</property>
 </producer>
 <playlist id="playlist9">
  <property name="kdenlive:track_name">Video 8</property>
  <blank length="9527"/>
  <entry producer="17_playlist9" in="801" out="903"/>
  <blank length="11210"/>
  <entry producer="16_playlist9" in="876" out="933"/>
  <blank length="326"/>
  <entry producer="22_playlist9" in="2341" out="2427"/>
  <blank length="308"/>
  <entry producer="16_playlist9" in="0" out="116"/>
  <blank length="1530"/>
  <entry producer="22_playlist9" in="3732" out="3835"/>
  <blank length="1031"/>
  <entry producer="22_playlist9" in="4441" out="4539"/>
 </playlist>
 <producer title="Anonymous Submission" id="17_playlist10" in="0" out="4559">
  <property name="length">00:01:16:04</property>
  <property name="eof">pause</property>
  <property name="resource">/media/bordun/plagiat2/2019-12-07_Plagiat_ViktorHuguauEnFranceAfrik/MVI_0018.MP4</property>
  <property name="audio_index">1</property>
  <property name="video_index">0</property>
  <property name="mute_on_pause">1</property>
  <property name="mlt_service">avformat-novalidate</property>
  <property name="seekable">1</property>
  <property name="aspect_ratio">1</property>
  <property name="kdenlive:file_size">329875210</property>
  <property name="kdenlive:file_hash">dbcb736a6d2b7ae1de7ed7c4851c3f0b</property>
  <property name="global_feed">1</property>
  <property name="kdenlive:folderid">1</property>
  <property name="xml">was here</property>
  <property name="meta.media.nb_streams">3</property>
  <property name="meta.media.0.stream.type">video</property>
  <property name="meta.media.0.stream.frame_rate">59,9401</property>
  <property name="meta.media.0.stream.sample_aspect_ratio">0</property>
  <property name="meta.media.0.codec.width">1920</property>
  <property name="meta.media.0.codec.height">1080</property>
  <property name="meta.media.0.codec.rotate">0</property>
  <property name="meta.media.0.codec.frame_rate">60000</property>
  <property name="meta.media.0.codec.pix_fmt">yuv420p</property>
  <property name="meta.media.0.codec.sample_aspect_ratio">0</property>
  <property name="meta.media.0.codec.colorspace">709</property>
  <property name="meta.media.0.codec.color_trc">1</property>
  <property name="meta.media.0.codec.name">h264</property>
  <property name="meta.media.0.codec.long_name">H.264 / AVC / MPEG-4 AVC / MPEG-4 part 10</property>
  <property name="meta.media.0.codec.bit_rate">34400220</property>
  <property name="meta.attr.0.stream.creation_time.markup">2019-12-07T16:54:23.000000Z</property>
  <property name="meta.attr.0.stream.language.markup">eng</property>
  <property name="meta.media.1.stream.type">audio</property>
  <property name="meta.media.1.codec.sample_fmt">fltp</property>
  <property name="meta.media.1.codec.sample_rate">48000</property>
  <property name="meta.media.1.codec.channels">2</property>
  <property name="meta.media.1.codec.name">aac</property>
  <property name="meta.media.1.codec.long_name">AAC (Advanced Audio Coding)</property>
  <property name="meta.media.1.codec.bit_rate">254937</property>
  <property name="meta.attr.1.stream.creation_time.markup">2019-12-07T16:54:23.000000Z</property>
  <property name="meta.attr.1.stream.language.markup">eng</property>
  <property name="meta.attr.major_brand.markup">mp42</property>
  <property name="meta.attr.minor_version.markup">1</property>
  <property name="meta.attr.compatible_brands.markup">mp42avc1CAEP</property>
  <property name="meta.attr.creation_time.markup">2019-12-07T16:54:23.000000Z</property>
  <property name="meta.attr.timecode.markup">16:53:22;04</property>
  <property name="meta.media.sample_aspect_num">1</property>
  <property name="meta.media.sample_aspect_den">1</property>
  <property name="meta.media.frame_rate_num">60000</property>
  <property name="meta.media.frame_rate_den">1001</property>
  <property name="meta.media.colorspace">709</property>
  <property name="meta.media.color_trc">1</property>
  <property name="meta.media.width">1920</property>
  <property name="meta.media.height">1080</property>
  <property name="meta.media.top_field_first">0</property>
  <property name="meta.media.progressive">1</property>
 </producer>
 <producer title="Anonymous Submission" id="6_playlist10" in="0" out="9659">
  <property name="length">00:02:41:10</property>
  <property name="eof">pause</property>
  <property name="resource">/media/bordun/plagiat2/2019-12-07_Plagiat_ViktorHuguauEnFranceAfrik/MVI_0007.MP4</property>
  <property name="audio_index">1</property>
  <property name="video_index">0</property>
  <property name="mute_on_pause">1</property>
  <property name="mlt_service">avformat-novalidate</property>
  <property name="seekable">1</property>
  <property name="aspect_ratio">1</property>
  <property name="kdenlive:file_size">700031689</property>
  <property name="kdenlive:file_hash">d81ae400436ae89d8d3d521890053515</property>
  <property name="global_feed">1</property>
  <property name="kdenlive:folderid">1</property>
  <property name="xml">was here</property>
  <property name="meta.media.nb_streams">3</property>
  <property name="meta.media.0.stream.type">video</property>
  <property name="meta.media.0.stream.frame_rate">59,9401</property>
  <property name="meta.media.0.stream.sample_aspect_ratio">0</property>
  <property name="meta.media.0.codec.width">1920</property>
  <property name="meta.media.0.codec.height">1080</property>
  <property name="meta.media.0.codec.rotate">0</property>
  <property name="meta.media.0.codec.frame_rate">60000</property>
  <property name="meta.media.0.codec.pix_fmt">yuv420p</property>
  <property name="meta.media.0.codec.sample_aspect_ratio">0</property>
  <property name="meta.media.0.codec.colorspace">709</property>
  <property name="meta.media.0.codec.color_trc">1</property>
  <property name="meta.media.0.codec.name">h264</property>
  <property name="meta.media.0.codec.long_name">H.264 / AVC / MPEG-4 AVC / MPEG-4 part 10</property>
  <property name="meta.media.0.codec.bit_rate">34468646</property>
  <property name="meta.attr.0.stream.creation_time.markup">2019-12-07T15:54:23.000000Z</property>
  <property name="meta.attr.0.stream.language.markup">eng</property>
  <property name="meta.media.1.stream.type">audio</property>
  <property name="meta.media.1.codec.sample_fmt">fltp</property>
  <property name="meta.media.1.codec.sample_rate">48000</property>
  <property name="meta.media.1.codec.channels">2</property>
  <property name="meta.media.1.codec.name">aac</property>
  <property name="meta.media.1.codec.long_name">AAC (Advanced Audio Coding)</property>
  <property name="meta.media.1.codec.bit_rate">254986</property>
  <property name="meta.attr.1.stream.creation_time.markup">2019-12-07T15:54:23.000000Z</property>
  <property name="meta.attr.1.stream.language.markup">eng</property>
  <property name="meta.attr.major_brand.markup">mp42</property>
  <property name="meta.attr.minor_version.markup">1</property>
  <property name="meta.attr.compatible_brands.markup">mp42avc1CAEP</property>
  <property name="meta.attr.creation_time.markup">2019-12-07T15:54:23.000000Z</property>
  <property name="meta.attr.timecode.markup">15:53:22;02</property>
  <property name="meta.media.sample_aspect_num">1</property>
  <property name="meta.media.sample_aspect_den">1</property>
  <property name="meta.media.frame_rate_num">60000</property>
  <property name="meta.media.frame_rate_den">1001</property>
  <property name="meta.media.colorspace">709</property>
  <property name="meta.media.color_trc">1</property>
  <property name="meta.media.width">1920</property>
  <property name="meta.media.height">1080</property>
  <property name="meta.media.top_field_first">0</property>
  <property name="meta.media.progressive">1</property>
 </producer>
 <playlist id="playlist10">
  <property name="kdenlive:track_name">Video 9</property>
  <blank length="9517"/>
  <entry producer="17_playlist10" in="791" out="960"/>
  <blank length="2946"/>
  <entry producer="17" in="2376" out="2431"/>
  <blank length="10028"/>
  <entry producer="6_playlist10" in="2212" out="2382"/>
 </playlist>
 <producer id="slowmotion:7:0,62:1:0" in="0" out="7257">
  <property name="length">7258</property>
  <property name="eof">pause</property>
  <property name="resource">0,62:/media/bordun/plagiat2/2019-12-07_Plagiat_ViktorHuguauEnFranceAfrik/MVI_0008.MP4</property>
  <property name="aspect_ratio">1</property>
  <property name="meta.media.nb_streams">3</property>
  <property name="meta.media.0.stream.type">video</property>
  <property name="meta.media.0.stream.frame_rate">59,9401</property>
  <property name="meta.media.0.stream.sample_aspect_ratio">0</property>
  <property name="meta.media.0.codec.width">1920</property>
  <property name="meta.media.0.codec.height">1080</property>
  <property name="meta.media.0.codec.rotate">0</property>
  <property name="meta.media.0.codec.frame_rate">60000</property>
  <property name="meta.media.0.codec.pix_fmt">yuv420p</property>
  <property name="meta.media.0.codec.sample_aspect_ratio">0</property>
  <property name="meta.media.0.codec.colorspace">709</property>
  <property name="meta.media.0.codec.color_trc">1</property>
  <property name="meta.media.0.codec.name">h264</property>
  <property name="meta.media.0.codec.long_name">H.264 / AVC / MPEG-4 AVC / MPEG-4 part 10</property>
  <property name="meta.media.0.codec.bit_rate">34576133</property>
  <property name="meta.attr.0.stream.creation_time.markup">2019-12-07T15:59:57.000000Z</property>
  <property name="meta.attr.0.stream.language.markup">eng</property>
  <property name="meta.media.1.stream.type">audio</property>
  <property name="meta.media.1.codec.sample_fmt">fltp</property>
  <property name="meta.media.1.codec.sample_rate">48000</property>
  <property name="meta.media.1.codec.channels">2</property>
  <property name="meta.media.1.codec.name">aac</property>
  <property name="meta.media.1.codec.long_name">AAC (Advanced Audio Coding)</property>
  <property name="meta.media.1.codec.bit_rate">254978</property>
  <property name="meta.attr.1.stream.creation_time.markup">2019-12-07T15:59:57.000000Z</property>
  <property name="meta.attr.1.stream.language.markup">eng</property>
  <property name="meta.attr.major_brand.markup">mp42</property>
  <property name="meta.attr.minor_version.markup">1</property>
  <property name="meta.attr.compatible_brands.markup">mp42avc1CAEP</property>
  <property name="meta.attr.creation_time.markup">2019-12-07T15:59:57.000000Z</property>
  <property name="meta.attr.timecode.markup">15:58:56;14</property>
  <property name="seekable">1</property>
  <property name="meta.media.sample_aspect_num">1</property>
  <property name="meta.media.sample_aspect_den">1</property>
  <property name="audio_index">1</property>
  <property name="video_index">0</property>
  <property name="mute_on_pause">1</property>
  <property name="warp_speed">0,62</property>
  <property name="warp_resource">/media/bordun/plagiat2/2019-12-07_Plagiat_ViktorHuguauEnFranceAfrik/MVI_0008.MP4</property>
  <property name="mlt_service">timewarp</property>
  <property name="meta.media.frame_rate_num">60000</property>
  <property name="meta.media.frame_rate_den">1001</property>
  <property name="meta.media.colorspace">709</property>
  <property name="meta.media.color_trc">1</property>
  <property name="meta.media.width">1920</property>
  <property name="meta.media.height">1080</property>
  <property name="meta.media.top_field_first">0</property>
  <property name="meta.media.progressive">1</property>
 </producer>
 <producer title="Anonymous Submission" id="13_playlist11" in="0" out="2579">
  <property name="length">00:00:43:02</property>
  <property name="eof">pause</property>
  <property name="resource">/media/bordun/plagiat2/2019-12-07_Plagiat_ViktorHuguauEnFranceAfrik/MVI_0014.MP4</property>
  <property name="audio_index">1</property>
  <property name="video_index">0</property>
  <property name="mute_on_pause">1</property>
  <property name="mlt_service">avformat-novalidate</property>
  <property name="seekable">1</property>
  <property name="aspect_ratio">1</property>
  <property name="kdenlive:file_size">186985409</property>
  <property name="kdenlive:file_hash">e8fd5b062e641bd9e15ee68fb38025b3</property>
  <property name="global_feed">1</property>
  <property name="kdenlive:folderid">1</property>
  <property name="xml">was here</property>
  <property name="meta.media.nb_streams">3</property>
  <property name="meta.media.0.stream.type">video</property>
  <property name="meta.media.0.stream.frame_rate">59,9401</property>
  <property name="meta.media.0.stream.sample_aspect_ratio">0</property>
  <property name="meta.media.0.codec.width">1920</property>
  <property name="meta.media.0.codec.height">1080</property>
  <property name="meta.media.0.codec.rotate">0</property>
  <property name="meta.media.0.codec.frame_rate">60000</property>
  <property name="meta.media.0.codec.pix_fmt">yuv420p</property>
  <property name="meta.media.0.codec.sample_aspect_ratio">0</property>
  <property name="meta.media.0.codec.colorspace">709</property>
  <property name="meta.media.0.codec.color_trc">1</property>
  <property name="meta.media.0.codec.name">h264</property>
  <property name="meta.media.0.codec.long_name">H.264 / AVC / MPEG-4 AVC / MPEG-4 part 10</property>
  <property name="meta.media.0.codec.bit_rate">34443348</property>
  <property name="meta.attr.0.stream.creation_time.markup">2019-12-07T16:51:14.000000Z</property>
  <property name="meta.attr.0.stream.language.markup">eng</property>
  <property name="meta.media.1.stream.type">audio</property>
  <property name="meta.media.1.codec.sample_fmt">fltp</property>
  <property name="meta.media.1.codec.sample_rate">48000</property>
  <property name="meta.media.1.codec.channels">2</property>
  <property name="meta.media.1.codec.name">aac</property>
  <property name="meta.media.1.codec.long_name">AAC (Advanced Audio Coding)</property>
  <property name="meta.media.1.codec.bit_rate">254941</property>
  <property name="meta.attr.1.stream.creation_time.markup">2019-12-07T16:51:14.000000Z</property>
  <property name="meta.attr.1.stream.language.markup">eng</property>
  <property name="meta.attr.major_brand.markup">mp42</property>
  <property name="meta.attr.minor_version.markup">1</property>
  <property name="meta.attr.compatible_brands.markup">mp42avc1CAEP</property>
  <property name="meta.attr.creation_time.markup">2019-12-07T16:51:14.000000Z</property>
  <property name="meta.attr.timecode.markup">16:50:13;18</property>
  <property name="meta.media.sample_aspect_num">1</property>
  <property name="meta.media.sample_aspect_den">1</property>
  <property name="meta.media.frame_rate_num">60000</property>
  <property name="meta.media.frame_rate_den">1001</property>
  <property name="meta.media.colorspace">709</property>
  <property name="meta.media.color_trc">1</property>
  <property name="meta.media.width">1920</property>
  <property name="meta.media.height">1080</property>
  <property name="meta.media.top_field_first">0</property>
  <property name="meta.media.progressive">1</property>
 </producer>
 <producer title="Anonymous Submission" id="9_playlist11" in="0" out="5879">
  <property name="length">00:01:38:06</property>
  <property name="eof">pause</property>
  <property name="resource">/media/bordun/plagiat2/2019-12-07_Plagiat_ViktorHuguauEnFranceAfrik/MVI_0010.MP4</property>
  <property name="audio_index">1</property>
  <property name="video_index">0</property>
  <property name="mute_on_pause">1</property>
  <property name="mlt_service">avformat-novalidate</property>
  <property name="seekable">1</property>
  <property name="aspect_ratio">1</property>
  <property name="kdenlive:file_size">427331079</property>
  <property name="kdenlive:file_hash">aca8fd0a960799c252a0a025fbc6ae2b</property>
  <property name="global_feed">1</property>
  <property name="kdenlive:folderid">1</property>
  <property name="xml">was here</property>
  <property name="meta.media.nb_streams">3</property>
  <property name="meta.media.0.stream.type">video</property>
  <property name="meta.media.0.stream.frame_rate">59,9401</property>
  <property name="meta.media.0.stream.sample_aspect_ratio">0</property>
  <property name="meta.media.0.codec.width">1920</property>
  <property name="meta.media.0.codec.height">1080</property>
  <property name="meta.media.0.codec.rotate">0</property>
  <property name="meta.media.0.codec.frame_rate">60000</property>
  <property name="meta.media.0.codec.pix_fmt">yuv420p</property>
  <property name="meta.media.0.codec.sample_aspect_ratio">0</property>
  <property name="meta.media.0.codec.colorspace">709</property>
  <property name="meta.media.0.codec.color_trc">1</property>
  <property name="meta.media.0.codec.name">h264</property>
  <property name="meta.media.0.codec.long_name">H.264 / AVC / MPEG-4 AVC / MPEG-4 part 10</property>
  <property name="meta.media.0.codec.bit_rate">34566705</property>
  <property name="meta.attr.0.stream.creation_time.markup">2019-12-07T16:06:04.000000Z</property>
  <property name="meta.attr.0.stream.language.markup">eng</property>
  <property name="meta.media.1.stream.type">audio</property>
  <property name="meta.media.1.codec.sample_fmt">fltp</property>
  <property name="meta.media.1.codec.sample_rate">48000</property>
  <property name="meta.media.1.codec.channels">2</property>
  <property name="meta.media.1.codec.name">aac</property>
  <property name="meta.media.1.codec.long_name">AAC (Advanced Audio Coding)</property>
  <property name="meta.media.1.codec.bit_rate">254959</property>
  <property name="meta.attr.1.stream.creation_time.markup">2019-12-07T16:06:04.000000Z</property>
  <property name="meta.attr.1.stream.language.markup">eng</property>
  <property name="meta.attr.major_brand.markup">mp42</property>
  <property name="meta.attr.minor_version.markup">1</property>
  <property name="meta.attr.compatible_brands.markup">mp42avc1CAEP</property>
  <property name="meta.attr.creation_time.markup">2019-12-07T16:06:04.000000Z</property>
  <property name="meta.attr.timecode.markup">16:05:02;52</property>
  <property name="meta.media.sample_aspect_num">1</property>
  <property name="meta.media.sample_aspect_den">1</property>
  <property name="meta.media.frame_rate_num">60000</property>
  <property name="meta.media.frame_rate_den">1001</property>
  <property name="meta.media.colorspace">709</property>
  <property name="meta.media.color_trc">1</property>
  <property name="meta.media.width">1920</property>
  <property name="meta.media.height">1080</property>
  <property name="meta.media.top_field_first">0</property>
  <property name="meta.media.progressive">1</property>
 </producer>
 <producer title="Anonymous Submission" id="6_playlist11" in="0" out="9659">
  <property name="length">00:02:41:10</property>
  <property name="eof">pause</property>
  <property name="resource">/media/bordun/plagiat2/2019-12-07_Plagiat_ViktorHuguauEnFranceAfrik/MVI_0007.MP4</property>
  <property name="audio_index">1</property>
  <property name="video_index">0</property>
  <property name="mute_on_pause">1</property>
  <property name="mlt_service">avformat-novalidate</property>
  <property name="seekable">1</property>
  <property name="aspect_ratio">1</property>
  <property name="kdenlive:file_size">700031689</property>
  <property name="kdenlive:file_hash">d81ae400436ae89d8d3d521890053515</property>
  <property name="global_feed">1</property>
  <property name="kdenlive:folderid">1</property>
  <property name="xml">was here</property>
  <property name="meta.media.nb_streams">3</property>
  <property name="meta.media.0.stream.type">video</property>
  <property name="meta.media.0.stream.frame_rate">59,9401</property>
  <property name="meta.media.0.stream.sample_aspect_ratio">0</property>
  <property name="meta.media.0.codec.width">1920</property>
  <property name="meta.media.0.codec.height">1080</property>
  <property name="meta.media.0.codec.rotate">0</property>
  <property name="meta.media.0.codec.frame_rate">60000</property>
  <property name="meta.media.0.codec.pix_fmt">yuv420p</property>
  <property name="meta.media.0.codec.sample_aspect_ratio">0</property>
  <property name="meta.media.0.codec.colorspace">709</property>
  <property name="meta.media.0.codec.color_trc">1</property>
  <property name="meta.media.0.codec.name">h264</property>
  <property name="meta.media.0.codec.long_name">H.264 / AVC / MPEG-4 AVC / MPEG-4 part 10</property>
  <property name="meta.media.0.codec.bit_rate">34468646</property>
  <property name="meta.attr.0.stream.creation_time.markup">2019-12-07T15:54:23.000000Z</property>
  <property name="meta.attr.0.stream.language.markup">eng</property>
  <property name="meta.media.1.stream.type">audio</property>
  <property name="meta.media.1.codec.sample_fmt">fltp</property>
  <property name="meta.media.1.codec.sample_rate">48000</property>
  <property name="meta.media.1.codec.channels">2</property>
  <property name="meta.media.1.codec.name">aac</property>
  <property name="meta.media.1.codec.long_name">AAC (Advanced Audio Coding)</property>
  <property name="meta.media.1.codec.bit_rate">254986</property>
  <property name="meta.attr.1.stream.creation_time.markup">2019-12-07T15:54:23.000000Z</property>
  <property name="meta.attr.1.stream.language.markup">eng</property>
  <property name="meta.attr.major_brand.markup">mp42</property>
  <property name="meta.attr.minor_version.markup">1</property>
  <property name="meta.attr.compatible_brands.markup">mp42avc1CAEP</property>
  <property name="meta.attr.creation_time.markup">2019-12-07T15:54:23.000000Z</property>
  <property name="meta.attr.timecode.markup">15:53:22;02</property>
  <property name="meta.media.sample_aspect_num">1</property>
  <property name="meta.media.sample_aspect_den">1</property>
  <property name="meta.media.frame_rate_num">60000</property>
  <property name="meta.media.frame_rate_den">1001</property>
  <property name="meta.media.colorspace">709</property>
  <property name="meta.media.color_trc">1</property>
  <property name="meta.media.width">1920</property>
  <property name="meta.media.height">1080</property>
  <property name="meta.media.top_field_first">0</property>
  <property name="meta.media.progressive">1</property>
 </producer>
 <producer title="Anonymous Submission" id="23_playlist11" in="0" out="7229">
  <property name="length">00:02:00:38</property>
  <property name="eof">pause</property>
  <property name="resource">/media/bordun/plagiat2/2019-12-07_Plagiat_ViktorHuguauEnFranceAfrik/MVI_0024.MP4</property>
  <property name="audio_index">1</property>
  <property name="video_index">0</property>
  <property name="mute_on_pause">1</property>
  <property name="mlt_service">avformat-novalidate</property>
  <property name="seekable">1</property>
  <property name="aspect_ratio">1</property>
  <property name="kdenlive:file_size">523624358</property>
  <property name="kdenlive:file_hash">3c05dbf69a29c2fae71c33f76e40ccc7</property>
  <property name="global_feed">1</property>
  <property name="kdenlive:folderid">1</property>
  <property name="xml">was here</property>
  <property name="meta.media.nb_streams">3</property>
  <property name="meta.media.0.stream.type">video</property>
  <property name="meta.media.0.stream.frame_rate">59,9401</property>
  <property name="meta.media.0.stream.sample_aspect_ratio">0</property>
  <property name="meta.media.0.codec.width">1920</property>
  <property name="meta.media.0.codec.height">1080</property>
  <property name="meta.media.0.codec.rotate">0</property>
  <property name="meta.media.0.codec.frame_rate">60000</property>
  <property name="meta.media.0.codec.pix_fmt">yuv420p</property>
  <property name="meta.media.0.codec.sample_aspect_ratio">0</property>
  <property name="meta.media.0.codec.colorspace">709</property>
  <property name="meta.media.0.codec.color_trc">1</property>
  <property name="meta.media.0.codec.name">h264</property>
  <property name="meta.media.0.codec.long_name">H.264 / AVC / MPEG-4 AVC / MPEG-4 part 10</property>
  <property name="meta.media.0.codec.bit_rate">34450063</property>
  <property name="meta.attr.0.stream.creation_time.markup">2019-12-07T17:06:24.000000Z</property>
  <property name="meta.attr.0.stream.language.markup">eng</property>
  <property name="meta.media.1.stream.type">audio</property>
  <property name="meta.media.1.codec.sample_fmt">fltp</property>
  <property name="meta.media.1.codec.sample_rate">48000</property>
  <property name="meta.media.1.codec.channels">2</property>
  <property name="meta.media.1.codec.name">aac</property>
  <property name="meta.media.1.codec.long_name">AAC (Advanced Audio Coding)</property>
  <property name="meta.media.1.codec.bit_rate">254972</property>
  <property name="meta.attr.1.stream.creation_time.markup">2019-12-07T17:06:24.000000Z</property>
  <property name="meta.attr.1.stream.language.markup">eng</property>
  <property name="meta.attr.major_brand.markup">mp42</property>
  <property name="meta.attr.minor_version.markup">1</property>
  <property name="meta.attr.compatible_brands.markup">mp42avc1CAEP</property>
  <property name="meta.attr.creation_time.markup">2019-12-07T17:06:24.000000Z</property>
  <property name="meta.attr.timecode.markup">17:05:23;36</property>
  <property name="meta.media.sample_aspect_num">1</property>
  <property name="meta.media.sample_aspect_den">1</property>
  <property name="meta.media.frame_rate_num">60000</property>
  <property name="meta.media.frame_rate_den">1001</property>
  <property name="meta.media.colorspace">709</property>
  <property name="meta.media.color_trc">1</property>
  <property name="meta.media.width">1920</property>
  <property name="meta.media.height">1080</property>
  <property name="meta.media.top_field_first">0</property>
  <property name="meta.media.progressive">1</property>
 </producer>
 <producer title="Anonymous Submission" id="18_playlist11" in="0" out="2609">
  <property name="length">00:00:43:32</property>
  <property name="eof">pause</property>
  <property name="resource">/media/bordun/plagiat2/2019-12-07_Plagiat_ViktorHuguauEnFranceAfrik/MVI_0019.MP4</property>
  <property name="audio_index">1</property>
  <property name="video_index">0</property>
  <property name="mute_on_pause">1</property>
  <property name="mlt_service">avformat-novalidate</property>
  <property name="seekable">1</property>
  <property name="aspect_ratio">1</property>
  <property name="kdenlive:file_size">189785150</property>
  <property name="kdenlive:file_hash">c40f60ad81317d8d9c786bd6fb1c4bb5</property>
  <property name="global_feed">1</property>
  <property name="kdenlive:folderid">1</property>
  <property name="xml">was here</property>
  <property name="meta.media.nb_streams">3</property>
  <property name="meta.media.0.stream.type">video</property>
  <property name="meta.media.0.stream.frame_rate">59,9401</property>
  <property name="meta.media.0.stream.sample_aspect_ratio">0</property>
  <property name="meta.media.0.codec.width">1920</property>
  <property name="meta.media.0.codec.height">1080</property>
  <property name="meta.media.0.codec.rotate">0</property>
  <property name="meta.media.0.codec.frame_rate">60000</property>
  <property name="meta.media.0.codec.pix_fmt">yuv420p</property>
  <property name="meta.media.0.codec.sample_aspect_ratio">0</property>
  <property name="meta.media.0.codec.colorspace">709</property>
  <property name="meta.media.0.codec.color_trc">1</property>
  <property name="meta.media.0.codec.name">h264</property>
  <property name="meta.media.0.codec.long_name">H.264 / AVC / MPEG-4 AVC / MPEG-4 part 10</property>
  <property name="meta.media.0.codec.bit_rate">34558792</property>
  <property name="meta.attr.0.stream.creation_time.markup">2019-12-07T16:55:41.000000Z</property>
  <property name="meta.attr.0.stream.language.markup">eng</property>
  <property name="meta.media.1.stream.type">audio</property>
  <property name="meta.media.1.codec.sample_fmt">fltp</property>
  <property name="meta.media.1.codec.sample_rate">48000</property>
  <property name="meta.media.1.codec.channels">2</property>
  <property name="meta.media.1.codec.name">aac</property>
  <property name="meta.media.1.codec.long_name">AAC (Advanced Audio Coding)</property>
  <property name="meta.media.1.codec.bit_rate">254908</property>
  <property name="meta.attr.1.stream.creation_time.markup">2019-12-07T16:55:41.000000Z</property>
  <property name="meta.attr.1.stream.language.markup">eng</property>
  <property name="meta.attr.major_brand.markup">mp42</property>
  <property name="meta.attr.minor_version.markup">1</property>
  <property name="meta.attr.compatible_brands.markup">mp42avc1CAEP</property>
  <property name="meta.attr.creation_time.markup">2019-12-07T16:55:41.000000Z</property>
  <property name="meta.attr.timecode.markup">16:54:40;16</property>
  <property name="meta.media.sample_aspect_num">1</property>
  <property name="meta.media.sample_aspect_den">1</property>
  <property name="meta.media.frame_rate_num">60000</property>
  <property name="meta.media.frame_rate_den">1001</property>
  <property name="meta.media.colorspace">709</property>
  <property name="meta.media.color_trc">1</property>
  <property name="meta.media.width">1920</property>
  <property name="meta.media.height">1080</property>
  <property name="meta.media.top_field_first">0</property>
  <property name="meta.media.progressive">1</property>
 </producer>
 <playlist id="playlist11">
  <property name="kdenlive:track_name">Video 10</property>
  <blank length="8007"/>
  <entry producer="slowmotion:7:0,62:1:0" in="4323" out="4576"/>
  <blank length="7050"/>
  <entry producer="13_playlist11" in="63" out="214">
   <filter id="filter10" in="63" out="214">
    <property name="background">colour:0x00000000</property>
    <property name="mlt_service">affine</property>
    <property name="kdenlive_id">pan_zoom</property>
    <property name="tag">affine</property>
    <property name="kdenlive_ix">1</property>
    <property name="transition.geometry">-192/-108:2112x1188:100</property>
    <property name="transition.distort">0</property>
    <property name="kdenlive:sync_in_out">1</property>
    <property name="kdenlive_info"/>
    <property name="disable">0</property>
   </filter>
  </entry>
  <blank length="5250"/>
  <entry producer="9_playlist11" in="289" out="357">
   <filter id="filter11">
    <property name="version">0,3</property>
    <property name="mlt_service">frei0r.levels</property>
    <property name="kdenlive_id">frei0r.levels</property>
    <property name="tag">frei0r.levels</property>
    <property name="kdenlive_ix">1</property>
    <property name="Channel">0,3</property>
    <property name="Input black level">289=0</property>
    <property name="Input white level">289=1</property>
    <property name="Gamma">289=0,25</property>
    <property name="Black output">289=0</property>
    <property name="White output">289=0,9</property>
    <property name="Show histogram">0</property>
    <property name="Histogram position">0,3</property>
    <property name="kdenlive_info"/>
    <property name="disable">0</property>
   </filter>
  </entry>
  <blank length="2252"/>
  <entry producer="6_playlist11" in="2383" out="2496"/>
  <blank length="3445"/>
  <entry producer="23_playlist11" in="1395" out="1496"/>
  <blank length="444"/>
  <entry producer="23_playlist11" in="1941" out="2077"/>
  <blank length="407"/>
  <entry producer="23_playlist11" in="2485" out="2587"/>
  <blank length="282"/>
  <entry producer="23_playlist11" in="2870" out="2954"/>
  <blank length="621"/>
  <entry producer="23_playlist11" in="3576" out="3710"/>
  <blank length="292"/>
  <entry producer="23_playlist11" in="3970" out="4049"/>
  <blank length="1746"/>
  <entry producer="23_playlist11" in="5829" out="5896"/>
  <blank length="182"/>
  <entry producer="23_playlist11" in="6079" out="6291"/>
  <blank length="90"/>
  <entry producer="23_playlist11" in="6382" out="6489"/>
  <blank length="62"/>
  <entry producer="23_playlist11" in="6552" out="6712"/>
  <blank length="318"/>
  <entry producer="23_playlist11" in="7031" out="7069"/>
  <blank length="2156"/>
  <entry producer="18_playlist11" in="673" out="754"/>
  <blank length="237"/>
  <entry producer="18_playlist11" in="999" out="1168"/>
 </playlist>
 <producer title="Anonymous Submission" id="producer14" in="0" out="32579">
  <property name="length">00:09:03:33</property>
  <property name="eof">pause</property>
  <property name="resource">/media/bordun/plagiat2/2019-12-07_Plagiat_ViktorHuguauEnFranceAfrik/MVI_0030.MP4</property>
  <property name="audio_index">-1</property>
  <property name="video_index">-1</property>
  <property name="mute_on_pause">1</property>
  <property name="mlt_service">avformat-novalidate</property>
  <property name="seekable">1</property>
  <property name="aspect_ratio">1</property>
  <property name="kdenlive:file_size">2361394871</property>
  <property name="kdenlive:file_hash">418df3676bf30cb26dab229b2803518c</property>
  <property name="global_feed">1</property>
  <property name="kdenlive:clipname">COUNTERCLOCKWISE 2</property>
  <property name="kdenlive:folderid">4</property>
  <property name="xml">was here</property>
  <property name="kdenlive:binid">29</property>
 </producer>
 <producer title="Anonymous Submission" id="producer15" in="0" out="32579">
  <property name="length">00:09:03:33</property>
  <property name="eof">pause</property>
  <property name="resource">/media/bordun/plagiat2/2019-12-07_Plagiat_ViktorHuguauEnFranceAfrik/MVI_0030.MP4</property>
  <property name="audio_index">-1</property>
  <property name="video_index">-1</property>
  <property name="mute_on_pause">1</property>
  <property name="mlt_service">avformat-novalidate</property>
  <property name="seekable">1</property>
  <property name="aspect_ratio">1</property>
  <property name="kdenlive:file_size">2361394871</property>
  <property name="kdenlive:file_hash">418df3676bf30cb26dab229b2803518c</property>
  <property name="global_feed">1</property>
  <property name="kdenlive:clipname">COUNTERCLOCKWISE 2</property>
  <property name="kdenlive:folderid">4</property>
  <property name="xml">was here</property>
  <property name="kdenlive:binid">29</property>
 </producer>
 <producer title="Anonymous Submission" id="6_playlist12" in="0" out="9659">
  <property name="length">00:02:41:10</property>
  <property name="eof">pause</property>
  <property name="resource">/media/bordun/plagiat2/2019-12-07_Plagiat_ViktorHuguauEnFranceAfrik/MVI_0007.MP4</property>
  <property name="audio_index">1</property>
  <property name="video_index">0</property>
  <property name="mute_on_pause">1</property>
  <property name="mlt_service">avformat-novalidate</property>
  <property name="seekable">1</property>
  <property name="aspect_ratio">1</property>
  <property name="kdenlive:file_size">700031689</property>
  <property name="kdenlive:file_hash">d81ae400436ae89d8d3d521890053515</property>
  <property name="global_feed">1</property>
  <property name="kdenlive:folderid">1</property>
  <property name="xml">was here</property>
  <property name="meta.media.nb_streams">3</property>
  <property name="meta.media.0.stream.type">video</property>
  <property name="meta.media.0.stream.frame_rate">59,9401</property>
  <property name="meta.media.0.stream.sample_aspect_ratio">0</property>
  <property name="meta.media.0.codec.width">1920</property>
  <property name="meta.media.0.codec.height">1080</property>
  <property name="meta.media.0.codec.rotate">0</property>
  <property name="meta.media.0.codec.frame_rate">60000</property>
  <property name="meta.media.0.codec.pix_fmt">yuv420p</property>
  <property name="meta.media.0.codec.sample_aspect_ratio">0</property>
  <property name="meta.media.0.codec.colorspace">709</property>
  <property name="meta.media.0.codec.color_trc">1</property>
  <property name="meta.media.0.codec.name">h264</property>
  <property name="meta.media.0.codec.long_name">H.264 / AVC / MPEG-4 AVC / MPEG-4 part 10</property>
  <property name="meta.media.0.codec.bit_rate">34468646</property>
  <property name="meta.attr.0.stream.creation_time.markup">2019-12-07T15:54:23.000000Z</property>
  <property name="meta.attr.0.stream.language.markup">eng</property>
  <property name="meta.media.1.stream.type">audio</property>
  <property name="meta.media.1.codec.sample_fmt">fltp</property>
  <property name="meta.media.1.codec.sample_rate">48000</property>
  <property name="meta.media.1.codec.channels">2</property>
  <property name="meta.media.1.codec.name">aac</property>
  <property name="meta.media.1.codec.long_name">AAC (Advanced Audio Coding)</property>
  <property name="meta.media.1.codec.bit_rate">254986</property>
  <property name="meta.attr.1.stream.creation_time.markup">2019-12-07T15:54:23.000000Z</property>
  <property name="meta.attr.1.stream.language.markup">eng</property>
  <property name="meta.attr.major_brand.markup">mp42</property>
  <property name="meta.attr.minor_version.markup">1</property>
  <property name="meta.attr.compatible_brands.markup">mp42avc1CAEP</property>
  <property name="meta.attr.creation_time.markup">2019-12-07T15:54:23.000000Z</property>
  <property name="meta.attr.timecode.markup">15:53:22;02</property>
  <property name="meta.media.sample_aspect_num">1</property>
  <property name="meta.media.sample_aspect_den">1</property>
  <property name="meta.media.frame_rate_num">60000</property>
  <property name="meta.media.frame_rate_den">1001</property>
  <property name="meta.media.colorspace">709</property>
  <property name="meta.media.color_trc">1</property>
  <property name="meta.media.width">1920</property>
  <property name="meta.media.height">1080</property>
  <property name="meta.media.top_field_first">0</property>
  <property name="meta.media.progressive">1</property>
 </producer>
 <producer title="Anonymous Submission" id="producer16" in="0" out="9659">
  <property name="length">00:02:41:10</property>
  <property name="eof">pause</property>
  <property name="resource">/media/bordun/plagiat2/2019-12-07_Plagiat_ViktorHuguauEnFranceAfrik/MVI_0007.MP4</property>
  <property name="audio_index">-1</property>
  <property name="video_index">-1</property>
  <property name="mute_on_pause">1</property>
  <property name="mlt_service">avformat-novalidate</property>
  <property name="seekable">1</property>
  <property name="aspect_ratio">1</property>
  <property name="kdenlive:file_size">700031689</property>
  <property name="kdenlive:file_hash">d81ae400436ae89d8d3d521890053515</property>
  <property name="global_feed">1</property>
  <property name="kdenlive:folderid">1</property>
  <property name="xml">was here</property>
  <property name="kdenlive:binid">6</property>
 </producer>
 <playlist id="playlist12">
  <property name="kdenlive:track_name">Video 11</property>
  <blank length="15880"/>
  <entry producer="producer14" in="9562" out="9615"/>
  <blank length="59"/>
  <entry producer="producer15" in="9562" out="9615"/>
  <blank length="7434"/>
  <entry producer="6_playlist12" in="2503" out="2571"/>
  <blank length="130"/>
  <entry producer="6_playlist12" in="2712" out="2797"/>
  <blank length="2047"/>
  <entry producer="6_playlist12" in="6044" out="6244"/>
  <blank length="114"/>
  <entry producer="producer16" in="6359" out="6417"/>
  <blank length="155"/>
  <entry producer="6_playlist12" in="6573" out="6641"/>
  <blank length="113"/>
  <entry producer="6_playlist12" in="6758" out="6867"/>
  <blank length="429"/>
  <entry producer="6_playlist12" in="7294" out="7369"/>
  <blank length="201"/>
  <entry producer="6_playlist12" in="7571" out="7683"/>
  <blank length="333"/>
  <entry producer="6_playlist12" in="8017" out="8079"/>
  <blank length="35"/>
  <entry producer="6_playlist12" in="8114" out="8184"/>
  <blank length="438"/>
  <entry producer="6_playlist12" in="8625" out="8736"/>
  <blank length="94"/>
  <entry producer="6_playlist12" in="8831" out="8900"/>
 </playlist>
 <producer title="Anonymous Submission" id="29_playlist14" in="0" out="32579">
  <property name="length">00:09:03:33</property>
  <property name="eof">pause</property>
  <property name="resource">/media/bordun/plagiat2/2019-12-07_Plagiat_ViktorHuguauEnFranceAfrik/MVI_0030.MP4</property>
  <property name="audio_index">1</property>
  <property name="video_index">0</property>
  <property name="mute_on_pause">1</property>
  <property name="mlt_service">avformat-novalidate</property>
  <property name="seekable">1</property>
  <property name="aspect_ratio">1</property>
  <property name="kdenlive:file_size">2361394871</property>
  <property name="kdenlive:file_hash">418df3676bf30cb26dab229b2803518c</property>
  <property name="global_feed">1</property>
  <property name="kdenlive:clipname">COUNTERCLOCKWISE 2</property>
  <property name="kdenlive:folderid">4</property>
  <property name="xml">was here</property>
  <property name="meta.media.nb_streams">3</property>
  <property name="meta.media.0.stream.type">video</property>
  <property name="meta.media.0.stream.frame_rate">59,9401</property>
  <property name="meta.media.0.stream.sample_aspect_ratio">0</property>
  <property name="meta.media.0.codec.width">1920</property>
  <property name="meta.media.0.codec.height">1080</property>
  <property name="meta.media.0.codec.rotate">0</property>
  <property name="meta.media.0.codec.frame_rate">60000</property>
  <property name="meta.media.0.codec.pix_fmt">yuv420p</property>
  <property name="meta.media.0.codec.sample_aspect_ratio">0</property>
  <property name="meta.media.0.codec.colorspace">709</property>
  <property name="meta.media.0.codec.color_trc">1</property>
  <property name="meta.media.0.codec.name">h264</property>
  <property name="meta.media.0.codec.long_name">H.264 / AVC / MPEG-4 AVC / MPEG-4 part 10</property>
  <property name="meta.media.0.codec.bit_rate">34484793</property>
  <property name="meta.attr.0.stream.creation_time.markup">2019-12-07T17:16:57.000000Z</property>
  <property name="meta.attr.0.stream.language.markup">eng</property>
  <property name="meta.media.1.stream.type">audio</property>
  <property name="meta.media.1.codec.sample_fmt">fltp</property>
  <property name="meta.media.1.codec.sample_rate">48000</property>
  <property name="meta.media.1.codec.channels">2</property>
  <property name="meta.media.1.codec.name">aac</property>
  <property name="meta.media.1.codec.long_name">AAC (Advanced Audio Coding)</property>
  <property name="meta.media.1.codec.bit_rate">254863</property>
  <property name="meta.attr.1.stream.creation_time.markup">2019-12-07T17:16:57.000000Z</property>
  <property name="meta.attr.1.stream.language.markup">eng</property>
  <property name="meta.attr.major_brand.markup">mp42</property>
  <property name="meta.attr.minor_version.markup">1</property>
  <property name="meta.attr.compatible_brands.markup">mp42avc1CAEP</property>
  <property name="meta.attr.creation_time.markup">2019-12-07T17:16:57.000000Z</property>
  <property name="meta.attr.timecode.markup">17:15:56;38</property>
  <property name="meta.media.sample_aspect_num">1</property>
  <property name="meta.media.sample_aspect_den">1</property>
  <property name="meta.media.frame_rate_num">60000</property>
  <property name="meta.media.frame_rate_den">1001</property>
  <property name="meta.media.colorspace">709</property>
  <property name="meta.media.color_trc">1</property>
  <property name="meta.media.width">1920</property>
  <property name="meta.media.height">1080</property>
  <property name="meta.media.top_field_first">0</property>
  <property name="meta.media.progressive">1</property>
 </producer>
 <producer id="slowmotion:29:0,5:1:0" in="0" out="65159">
  <property name="length">65160</property>
  <property name="eof">pause</property>
  <property name="resource">0,5:/media/bordun/plagiat2/2019-12-07_Plagiat_ViktorHuguauEnFranceAfrik/MVI_0030.MP4</property>
  <property name="aspect_ratio">1</property>
  <property name="meta.media.nb_streams">3</property>
  <property name="meta.media.0.stream.type">video</property>
  <property name="meta.media.0.stream.frame_rate">59,9401</property>
  <property name="meta.media.0.stream.sample_aspect_ratio">0</property>
  <property name="meta.media.0.codec.width">1920</property>
  <property name="meta.media.0.codec.height">1080</property>
  <property name="meta.media.0.codec.rotate">0</property>
  <property name="meta.media.0.codec.frame_rate">60000</property>
  <property name="meta.media.0.codec.pix_fmt">yuv420p</property>
  <property name="meta.media.0.codec.sample_aspect_ratio">0</property>
  <property name="meta.media.0.codec.colorspace">709</property>
  <property name="meta.media.0.codec.color_trc">1</property>
  <property name="meta.media.0.codec.name">h264</property>
  <property name="meta.media.0.codec.long_name">H.264 / AVC / MPEG-4 AVC / MPEG-4 part 10</property>
  <property name="meta.media.0.codec.bit_rate">34484793</property>
  <property name="meta.attr.0.stream.creation_time.markup">2019-12-07T17:16:57.000000Z</property>
  <property name="meta.attr.0.stream.language.markup">eng</property>
  <property name="meta.media.1.stream.type">audio</property>
  <property name="meta.media.1.codec.sample_fmt">fltp</property>
  <property name="meta.media.1.codec.sample_rate">48000</property>
  <property name="meta.media.1.codec.channels">2</property>
  <property name="meta.media.1.codec.name">aac</property>
  <property name="meta.media.1.codec.long_name">AAC (Advanced Audio Coding)</property>
  <property name="meta.media.1.codec.bit_rate">254863</property>
  <property name="meta.attr.1.stream.creation_time.markup">2019-12-07T17:16:57.000000Z</property>
  <property name="meta.attr.1.stream.language.markup">eng</property>
  <property name="meta.attr.major_brand.markup">mp42</property>
  <property name="meta.attr.minor_version.markup">1</property>
  <property name="meta.attr.compatible_brands.markup">mp42avc1CAEP</property>
  <property name="meta.attr.creation_time.markup">2019-12-07T17:16:57.000000Z</property>
  <property name="meta.attr.timecode.markup">17:15:56;38</property>
  <property name="seekable">1</property>
  <property name="meta.media.sample_aspect_num">1</property>
  <property name="meta.media.sample_aspect_den">1</property>
  <property name="audio_index">1</property>
  <property name="video_index">0</property>
  <property name="mute_on_pause">1</property>
  <property name="warp_speed">0,5</property>
  <property name="warp_resource">/media/bordun/plagiat2/2019-12-07_Plagiat_ViktorHuguauEnFranceAfrik/MVI_0030.MP4</property>
  <property name="mlt_service">timewarp</property>
  <property name="meta.media.frame_rate_num">60000</property>
  <property name="meta.media.frame_rate_den">1001</property>
  <property name="meta.media.colorspace">709</property>
  <property name="meta.media.color_trc">1</property>
  <property name="meta.media.width">1920</property>
  <property name="meta.media.height">1080</property>
  <property name="meta.media.top_field_first">0</property>
  <property name="meta.media.progressive">1</property>
 </producer>
 <producer title="Anonymous Submission" id="14_playlist14" in="0" out="2219">
  <property name="length">00:00:37:02</property>
  <property name="eof">pause</property>
  <property name="resource">/media/bordun/plagiat2/2019-12-07_Plagiat_ViktorHuguauEnFranceAfrik/MVI_0015.MP4</property>
  <property name="audio_index">1</property>
  <property name="video_index">0</property>
  <property name="mute_on_pause">1</property>
  <property name="mlt_service">avformat-novalidate</property>
  <property name="seekable">1</property>
  <property name="aspect_ratio">1</property>
  <property name="kdenlive:file_size">160803019</property>
  <property name="kdenlive:file_hash">bd41129f3c9490020c0ea8397eed6a82</property>
  <property name="global_feed">1</property>
  <property name="kdenlive:folderid">1</property>
  <property name="xml">was here</property>
  <property name="meta.media.nb_streams">3</property>
  <property name="meta.media.0.stream.type">video</property>
  <property name="meta.media.0.stream.frame_rate">59,9401</property>
  <property name="meta.media.0.stream.sample_aspect_ratio">0</property>
  <property name="meta.media.0.codec.width">1920</property>
  <property name="meta.media.0.codec.height">1080</property>
  <property name="meta.media.0.codec.rotate">0</property>
  <property name="meta.media.0.codec.frame_rate">60000</property>
  <property name="meta.media.0.codec.pix_fmt">yuv420p</property>
  <property name="meta.media.0.codec.sample_aspect_ratio">0</property>
  <property name="meta.media.0.codec.colorspace">709</property>
  <property name="meta.media.0.codec.color_trc">1</property>
  <property name="meta.media.0.codec.name">h264</property>
  <property name="meta.media.0.codec.long_name">H.264 / AVC / MPEG-4 AVC / MPEG-4 part 10</property>
  <property name="meta.media.0.codec.bit_rate">34415712</property>
  <property name="meta.attr.0.stream.creation_time.markup">2019-12-07T16:52:13.000000Z</property>
  <property name="meta.attr.0.stream.language.markup">eng</property>
  <property name="meta.media.1.stream.type">audio</property>
  <property name="meta.media.1.codec.sample_fmt">fltp</property>
  <property name="meta.media.1.codec.sample_rate">48000</property>
  <property name="meta.media.1.codec.channels">2</property>
  <property name="meta.media.1.codec.name">aac</property>
  <property name="meta.media.1.codec.long_name">AAC (Advanced Audio Coding)</property>
  <property name="meta.media.1.codec.bit_rate">254869</property>
  <property name="meta.attr.1.stream.creation_time.markup">2019-12-07T16:52:13.000000Z</property>
  <property name="meta.attr.1.stream.language.markup">eng</property>
  <property name="meta.attr.major_brand.markup">mp42</property>
  <property name="meta.attr.minor_version.markup">1</property>
  <property name="meta.attr.compatible_brands.markup">mp42avc1CAEP</property>
  <property name="meta.attr.creation_time.markup">2019-12-07T16:52:13.000000Z</property>
  <property name="meta.attr.timecode.markup">16:51:12;18</property>
  <property name="meta.media.sample_aspect_num">1</property>
  <property name="meta.media.sample_aspect_den">1</property>
  <property name="meta.media.frame_rate_num">60000</property>
  <property name="meta.media.frame_rate_den">1001</property>
  <property name="meta.media.colorspace">709</property>
  <property name="meta.media.color_trc">1</property>
  <property name="meta.media.width">1920</property>
  <property name="meta.media.height">1080</property>
  <property name="meta.media.top_field_first">0</property>
  <property name="meta.media.progressive">1</property>
 </producer>
 <playlist id="playlist14">
  <property name="kdenlive:track_name">Video 13</property>
  <blank length="13023"/>
  <entry producer="29_playlist14" in="6876" out="6975">
   <filter id="filter12" in="6876" out="6975">
    <property name="background">colour:0x00000000</property>
    <property name="mlt_service">affine</property>
    <property name="kdenlive_id">pan_zoom</property>
    <property name="tag">affine</property>
    <property name="kdenlive_ix">1</property>
    <property name="transition.geometry">-960/-270:2880x1620:100</property>
    <property name="transition.distort">0</property>
    <property name="kdenlive:sync_in_out">1</property>
    <property name="kdenlive_info"/>
   </filter>
  </entry>
  <blank length="1828"/>
  <entry producer="29_playlist14" in="8804" out="8990"/>
  <blank length="583"/>
  <entry producer="slowmotion:29:0,5:1:0" in="19148" out="19229"/>
  <blank length="2251"/>
  <entry producer="14_playlist14" in="33" out="97">
   <filter id="filter13">
    <property name="version">0,3</property>
    <property name="mlt_service">frei0r.levels</property>
    <property name="kdenlive_id">frei0r.levels</property>
    <property name="tag">frei0r.levels</property>
    <property name="kdenlive_ix">1</property>
    <property name="Channel">0,3</property>
    <property name="Input black level">33=0,033</property>
    <property name="Input white level">33=0,52</property>
    <property name="Gamma">33=0,25</property>
    <property name="Black output">33=0</property>
    <property name="White output">33=1</property>
    <property name="Show histogram">0</property>
    <property name="Histogram position">0,3</property>
    <property name="kdenlive_info"/>
   </filter>
  </entry>
  <blank length="16504"/>
  <entry producer="29_playlist14" in="28476" out="28595"/>
 </playlist>
 <tractor title="Anonymous Submission" id="maintractor" global_feed="1" in="0" out="96567">
  <track producer="black_track"/>
  <track producer="playlist13"/>
  <track hide="video" producer="playlist1"/>
  <track hide="video" producer="playlist15"/>
  <track hide="both" producer="playlist2"/>
  <track hide="audio" producer="playlist3"/>
  <track hide="audio" producer="playlist4"/>
  <track hide="audio" producer="playlist5"/>
  <track hide="audio" producer="playlist0"/>
  <track hide="audio" producer="playlist6"/>
  <track hide="audio" producer="playlist7"/>
  <track hide="audio" producer="playlist8"/>
  <track hide="audio" producer="playlist9"/>
  <track hide="audio" producer="playlist10"/>
  <track hide="audio" producer="playlist11"/>
  <track hide="audio" producer="playlist12"/>
  <track hide="audio" producer="playlist14"/>
  <transition id="transition0">
   <property name="a_track">0</property>
   <property name="b_track">1</property>
   <property name="mlt_service">mix</property>
   <property name="always_active">1</property>
   <property name="sum">1</property>
   <property name="internal_added">237</property>
  </transition>
  <transition id="transition1">
   <property name="a_track">0</property>
   <property name="b_track">2</property>
   <property name="mlt_service">mix</property>
   <property name="always_active">1</property>
   <property name="sum">1</property>
   <property name="internal_added">237</property>
  </transition>
  <transition id="transition2">
   <property name="a_track">0</property>
   <property name="b_track">3</property>
   <property name="mlt_service">mix</property>
   <property name="always_active">1</property>
   <property name="sum">1</property>
   <property name="internal_added">237</property>
  </transition>
  <transition id="transition3">
   <property name="a_track">0</property>
   <property name="b_track">4</property>
   <property name="mlt_service">mix</property>
   <property name="always_active">1</property>
   <property name="sum">1</property>
   <property name="internal_added">237</property>
  </transition>
  <transition id="transition4">
   <property name="a_track">0</property>
   <property name="b_track">5</property>
   <property name="mlt_service">mix</property>
   <property name="always_active">1</property>
   <property name="sum">1</property>
   <property name="internal_added">237</property>
  </transition>
  <transition id="transition5">
   <property name="a_track">0</property>
   <property name="b_track">6</property>
   <property name="mlt_service">mix</property>
   <property name="always_active">1</property>
   <property name="sum">1</property>
   <property name="internal_added">237</property>
  </transition>
  <transition id="transition6">
   <property name="a_track">0</property>
   <property name="b_track">7</property>
   <property name="mlt_service">mix</property>
   <property name="always_active">1</property>
   <property name="sum">1</property>
   <property name="internal_added">237</property>
  </transition>
  <transition id="transition7">
   <property name="a_track">0</property>
   <property name="b_track">8</property>
   <property name="mlt_service">mix</property>
   <property name="always_active">1</property>
   <property name="sum">1</property>
   <property name="internal_added">237</property>
  </transition>
  <transition id="transition8">
   <property name="a_track">0</property>
   <property name="b_track">9</property>
   <property name="mlt_service">mix</property>
   <property name="always_active">1</property>
   <property name="sum">1</property>
   <property name="internal_added">237</property>
  </transition>
  <transition id="transition9">
   <property name="a_track">0</property>
   <property name="b_track">10</property>
   <property name="mlt_service">mix</property>
   <property name="always_active">1</property>
   <property name="sum">1</property>
   <property name="internal_added">237</property>
  </transition>
  <transition id="transition10">
   <property name="a_track">0</property>
   <property name="b_track">11</property>
   <property name="mlt_service">mix</property>
   <property name="always_active">1</property>
   <property name="sum">1</property>
   <property name="internal_added">237</property>
  </transition>
  <transition id="transition11">
   <property name="a_track">0</property>
   <property name="b_track">12</property>
   <property name="mlt_service">mix</property>
   <property name="always_active">1</property>
   <property name="sum">1</property>
   <property name="internal_added">237</property>
  </transition>
  <transition id="transition12">
   <property name="a_track">0</property>
   <property name="b_track">13</property>
   <property name="mlt_service">mix</property>
   <property name="always_active">1</property>
   <property name="sum">1</property>
   <property name="internal_added">237</property>
  </transition>
  <transition id="transition13">
   <property name="a_track">0</property>
   <property name="b_track">14</property>
   <property name="mlt_service">mix</property>
   <property name="always_active">1</property>
   <property name="sum">1</property>
   <property name="internal_added">237</property>
  </transition>
  <transition id="transition14">
   <property name="a_track">0</property>
   <property name="b_track">15</property>
   <property name="mlt_service">mix</property>
   <property name="always_active">1</property>
   <property name="sum">1</property>
   <property name="internal_added">237</property>
  </transition>
  <transition id="transition15">
   <property name="a_track">0</property>
   <property name="b_track">16</property>
   <property name="mlt_service">mix</property>
   <property name="always_active">1</property>
   <property name="sum">1</property>
   <property name="internal_added">237</property>
  </transition>
  <transition id="transition16">
   <property name="a_track">0</property>
   <property name="b_track">1</property>
   <property name="compositing">0</property>
   <property name="distort">0</property>
   <property name="rotate_center">0</property>
   <property name="mlt_service">qtblend</property>
   <property name="always_active">1</property>
   <property name="internal_added">237</property>
  </transition>
  <transition id="transition17">
   <property name="a_track">0</property>
   <property name="b_track">5</property>
   <property name="compositing">0</property>
   <property name="distort">0</property>
   <property name="rotate_center">0</property>
   <property name="mlt_service">qtblend</property>
   <property name="always_active">1</property>
   <property name="internal_added">237</property>
  </transition>
  <transition id="transition18">
   <property name="a_track">0</property>
   <property name="b_track">6</property>
   <property name="compositing">0</property>
   <property name="distort">0</property>
   <property name="rotate_center">0</property>
   <property name="mlt_service">qtblend</property>
   <property name="always_active">1</property>
   <property name="internal_added">237</property>
  </transition>
  <transition id="transition19">
   <property name="a_track">0</property>
   <property name="b_track">7</property>
   <property name="compositing">0</property>
   <property name="distort">0</property>
   <property name="rotate_center">0</property>
   <property name="mlt_service">qtblend</property>
   <property name="always_active">1</property>
   <property name="internal_added">237</property>
  </transition>
  <transition id="transition20">
   <property name="a_track">0</property>
   <property name="b_track">8</property>
   <property name="compositing">0</property>
   <property name="distort">0</property>
   <property name="rotate_center">0</property>
   <property name="mlt_service">qtblend</property>
   <property name="always_active">1</property>
   <property name="internal_added">237</property>
  </transition>
  <transition id="transition21">
   <property name="a_track">0</property>
   <property name="b_track">9</property>
   <property name="compositing">0</property>
   <property name="distort">0</property>
   <property name="rotate_center">0</property>
   <property name="mlt_service">qtblend</property>
   <property name="always_active">1</property>
   <property name="internal_added">237</property>
  </transition>
  <transition id="transition22">
   <property name="a_track">0</property>
   <property name="b_track">10</property>
   <property name="compositing">0</property>
   <property name="distort">0</property>
   <property name="rotate_center">0</property>
   <property name="mlt_service">qtblend</property>
   <property name="always_active">1</property>
   <property name="internal_added">237</property>
  </transition>
  <transition id="transition23">
   <property name="a_track">0</property>
   <property name="b_track">11</property>
   <property name="compositing">0</property>
   <property name="distort">0</property>
   <property name="rotate_center">0</property>
   <property name="mlt_service">qtblend</property>
   <property name="always_active">1</property>
   <property name="internal_added">237</property>
  </transition>
  <transition id="transition24">
   <property name="a_track">0</property>
   <property name="b_track">12</property>
   <property name="compositing">0</property>
   <property name="distort">0</property>
   <property name="rotate_center">0</property>
   <property name="mlt_service">qtblend</property>
   <property name="always_active">1</property>
   <property name="internal_added">237</property>
  </transition>
  <transition id="transition25">
   <property name="a_track">0</property>
   <property name="b_track">13</property>
   <property name="compositing">0</property>
   <property name="distort">0</property>
   <property name="rotate_center">0</property>
   <property name="mlt_service">qtblend</property>
   <property name="always_active">1</property>
   <property name="internal_added">237</property>
  </transition>
  <transition id="transition26">
   <property name="a_track">0</property>
   <property name="b_track">14</property>
   <property name="compositing">0</property>
   <property name="distort">0</property>
   <property name="rotate_center">0</property>
   <property name="mlt_service">qtblend</property>
   <property name="always_active">1</property>
   <property name="internal_added">237</property>
  </transition>
  <transition id="transition27">
   <property name="a_track">0</property>
   <property name="b_track">15</property>
   <property name="compositing">0</property>
   <property name="distort">0</property>
   <property name="rotate_center">0</property>
   <property name="mlt_service">qtblend</property>
   <property name="always_active">1</property>
   <property name="internal_added">237</property>
  </transition>
  <transition id="transition28">
   <property name="a_track">0</property>
   <property name="b_track">16</property>
   <property name="compositing">0</property>
   <property name="distort">0</property>
   <property name="rotate_center">0</property>
   <property name="mlt_service">qtblend</property>
   <property name="always_active">1</property>
   <property name="internal_added">237</property>
  </transition>
 </tractor>
</mlt>
